<svg xmlns="http://www.w3.org/2000/svg" xmlns:xlink="http://www.w3.org/1999/xlink" width="800" zoomAndPan="magnify" viewBox="0 0 600 136.499996" height="182" preserveAspectRatio="xMidYMid meet" version="1.0"><defs><clipPath id="04392a94fa"><path d="M 539 64 L 598.902344 64 L 598.902344 69 L 539 69 Z M 539 64 " clip-rule="nonzero"/></clipPath><clipPath id="9fbb489e1f"><path d="M 310 134 L 313 134 L 313 136 L 310 136 Z M 310 134 " clip-rule="nonzero"/></clipPath><clipPath id="b34cec711e"><path d="M 1.09375 64 L 61 64 L 61 69 L 1.09375 69 Z M 1.09375 64 " clip-rule="nonzero"/></clipPath></defs><path fill="#000000" d="M 534.238281 68.21875 L 533.949219 68.207031 C 533.085938 68.167969 532.417969 67.433594 532.457031 66.566406 C 532.496094 65.753906 533.152344 65.113281 533.949219 65.074219 L 534.238281 65.0625 C 535.109375 65.019531 535.851562 65.695312 535.890625 66.566406 C 535.929688 67.441406 535.257812 68.179688 534.382812 68.21875 C 534.335938 68.222656 534.285156 68.222656 534.238281 68.21875 Z M 534.238281 68.21875 " fill-opacity="1" fill-rule="nonzero"/><path fill="#000000" d="M 529.335938 67.992188 L 529.046875 67.980469 C 528.304688 67.945312 527.734375 67.316406 527.769531 66.578125 C 527.800781 65.882812 528.363281 65.335938 529.046875 65.300781 L 529.335938 65.289062 C 530.082031 65.253906 530.714844 65.832031 530.75 66.578125 C 530.785156 67.324219 530.207031 67.957031 529.460938 67.992188 C 529.417969 67.996094 529.375 67.996094 529.335938 67.992188 Z M 529.335938 67.992188 " fill-opacity="1" fill-rule="nonzero"/><path fill="#000000" d="M 524.429688 67.765625 L 524.140625 67.753906 C 523.527344 67.722656 523.054688 67.203125 523.082031 66.589844 C 523.109375 66.011719 523.574219 65.558594 524.140625 65.527344 L 524.429688 65.515625 C 525.050781 65.488281 525.578125 65.96875 525.605469 66.589844 C 525.636719 67.210938 525.15625 67.738281 524.535156 67.765625 C 524.5 67.765625 524.464844 67.765625 524.429688 67.765625 Z M 524.429688 67.765625 " fill-opacity="1" fill-rule="nonzero"/><path fill="#000000" d="M 519.527344 67.539062 L 519.238281 67.523438 C 518.75 67.503906 518.371094 67.089844 518.394531 66.601562 C 518.414062 66.140625 518.789062 65.777344 519.238281 65.757812 L 519.527344 65.742188 C 520.023438 65.71875 520.441406 66.101562 520.464844 66.597656 C 520.488281 67.09375 520.105469 67.515625 519.609375 67.539062 C 519.582031 67.539062 519.554688 67.539062 519.527344 67.539062 Z M 519.527344 67.539062 " fill-opacity="1" fill-rule="nonzero"/><path fill="#000000" d="M 514.621094 67.3125 L 514.332031 67.296875 C 513.972656 67.28125 513.691406 66.972656 513.707031 66.609375 C 513.722656 66.269531 514 66 514.332031 65.984375 L 514.621094 65.96875 C 514.992188 65.953125 515.304688 66.238281 515.324219 66.609375 C 515.339844 66.980469 515.054688 67.292969 514.683594 67.3125 C 514.664062 67.3125 514.640625 67.3125 514.621094 67.3125 Z M 514.621094 67.3125 " fill-opacity="1" fill-rule="nonzero"/><path fill="#000000" d="M 509.71875 67.085938 L 509.429688 67.070312 C 509.191406 67.058594 509.007812 66.859375 509.019531 66.621094 C 509.03125 66.398438 509.210938 66.222656 509.429688 66.210938 L 509.71875 66.199219 C 509.964844 66.1875 510.171875 66.375 510.183594 66.621094 C 510.195312 66.863281 510.003906 67.074219 509.757812 67.085938 C 509.746094 67.085938 509.730469 67.085938 509.71875 67.085938 Z M 509.71875 67.085938 " fill-opacity="1" fill-rule="nonzero"/><path fill="#000000" d="M 504.8125 66.855469 L 504.527344 66.84375 C 504.414062 66.839844 504.328125 66.742188 504.332031 66.632812 C 504.335938 66.527344 504.421875 66.441406 504.527344 66.4375 L 504.8125 66.425781 C 504.933594 66.417969 505.035156 66.511719 505.039062 66.628906 C 505.046875 66.75 504.953125 66.851562 504.835938 66.855469 C 504.828125 66.855469 504.820312 66.855469 504.8125 66.855469 Z M 504.8125 66.855469 " fill-opacity="1" fill-rule="nonzero"/><path fill="#000000" d="M 427.730469 68.21875 L 427.441406 68.207031 C 426.574219 68.167969 425.90625 67.433594 425.949219 66.566406 C 425.984375 65.753906 426.644531 65.113281 427.441406 65.074219 L 427.730469 65.0625 C 428.601562 65.019531 429.339844 65.695312 429.382812 66.566406 C 429.421875 67.441406 428.746094 68.179688 427.875 68.21875 C 427.828125 68.222656 427.777344 68.222656 427.730469 68.21875 Z M 427.730469 68.21875 " fill-opacity="1" fill-rule="nonzero"/><path fill="#000000" d="M 422.824219 67.992188 L 422.535156 67.980469 C 421.796875 67.945312 421.226562 67.316406 421.261719 66.578125 C 421.292969 65.882812 421.855469 65.335938 422.535156 65.300781 L 422.824219 65.289062 C 423.570312 65.253906 424.207031 65.832031 424.238281 66.578125 C 424.273438 67.324219 423.695312 67.957031 422.949219 67.992188 C 422.910156 67.996094 422.867188 67.996094 422.824219 67.992188 Z M 422.824219 67.992188 " fill-opacity="1" fill-rule="nonzero"/><path fill="#000000" d="M 417.921875 67.765625 L 417.632812 67.753906 C 417.019531 67.722656 416.542969 67.203125 416.574219 66.589844 C 416.597656 66.011719 417.066406 65.558594 417.632812 65.527344 L 417.921875 65.515625 C 418.542969 65.488281 419.070312 65.96875 419.097656 66.589844 C 419.125 67.210938 418.644531 67.738281 418.023438 67.765625 C 417.992188 67.765625 417.953125 67.765625 417.921875 67.765625 Z M 417.921875 67.765625 " fill-opacity="1" fill-rule="nonzero"/><path fill="#000000" d="M 413.015625 67.539062 L 412.726562 67.523438 C 412.238281 67.503906 411.863281 67.089844 411.886719 66.601562 C 411.90625 66.140625 412.277344 65.777344 412.726562 65.757812 L 413.015625 65.742188 C 413.511719 65.71875 413.933594 66.101562 413.957031 66.597656 C 413.980469 67.09375 413.597656 67.515625 413.101562 67.539062 C 413.074219 67.539062 413.042969 67.539062 413.015625 67.539062 Z M 413.015625 67.539062 " fill-opacity="1" fill-rule="nonzero"/><path fill="#000000" d="M 408.113281 67.3125 L 407.824219 67.296875 C 407.460938 67.28125 407.179688 66.972656 407.199219 66.609375 C 407.214844 66.269531 407.488281 66 407.824219 65.984375 L 408.113281 65.96875 C 408.484375 65.953125 408.796875 66.238281 408.8125 66.609375 C 408.832031 66.980469 408.546875 67.292969 408.175781 67.3125 C 408.15625 67.3125 408.132812 67.3125 408.113281 67.3125 Z M 408.113281 67.3125 " fill-opacity="1" fill-rule="nonzero"/><path fill="#000000" d="M 403.207031 67.085938 L 402.921875 67.070312 C 402.683594 67.058594 402.5 66.859375 402.511719 66.621094 C 402.519531 66.398438 402.703125 66.222656 402.921875 66.210938 L 403.207031 66.199219 C 403.453125 66.1875 403.660156 66.375 403.671875 66.621094 C 403.683594 66.863281 403.496094 67.074219 403.25 67.085938 C 403.234375 67.085938 403.222656 67.085938 403.207031 67.085938 Z M 403.207031 67.085938 " fill-opacity="1" fill-rule="nonzero"/><path fill="#000000" d="M 398.304688 66.855469 L 398.015625 66.84375 C 397.902344 66.839844 397.816406 66.742188 397.824219 66.632812 C 397.828125 66.527344 397.914062 66.441406 398.015625 66.4375 L 398.304688 66.425781 C 398.425781 66.417969 398.523438 66.511719 398.53125 66.628906 C 398.535156 66.75 398.445312 66.851562 398.324219 66.855469 C 398.316406 66.855469 398.3125 66.855469 398.304688 66.855469 Z M 398.304688 66.855469 " fill-opacity="1" fill-rule="nonzero"/><g clip-path="url(#04392a94fa)"><path fill="#000000" d="M 541.101562 64.941406 L 598.90625 66.640625 L 541.101562 68.339844 C 538.789062 68.3125 538.777344 64.972656 541.101562 64.941406 Z M 541.101562 64.941406 " fill-opacity="1" fill-rule="nonzero"/></g><path fill="#000000" d="M 469.683594 73.21875 C 471.070312 69.023438 471.902344 68.492188 478.492188 67.609375 C 488.59375 66.355469 488.59375 66.917969 478.492188 65.667969 C 471.902344 64.785156 471.0625 64.257812 469.683594 60.0625 C 467.710938 53.632812 468.59375 53.628906 466.632812 60.0625 C 465.246094 64.257812 464.414062 64.789062 457.824219 65.671875 C 447.722656 66.925781 447.722656 66.363281 457.824219 67.613281 C 464.414062 68.496094 465.253906 69.023438 466.632812 73.21875 C 468.605469 79.648438 467.722656 79.652344 469.683594 73.21875 Z M 469.683594 73.21875 " fill-opacity="1" fill-rule="nonzero"/><path fill="#000000" d="M 299.769531 73.847656 C 297.941406 69.957031 295.335938 68.472656 290.128906 66.640625 C 295.335938 64.808594 297.941406 63.324219 299.769531 59.433594 C 301.601562 63.324219 304.207031 64.808594 309.414062 66.640625 C 304.207031 68.472656 301.601562 69.957031 299.769531 73.847656 Z M 299.769531 73.847656 " fill-opacity="1" fill-rule="nonzero"/><path fill="#000000" d="M 299.769531 5.976562 C 300.648438 19.824219 300.359375 33.71875 301.546875 47.53125 C 301.859375 49.972656 302.308594 55.179688 304.332031 56.640625 C 306.175781 57.84375 309.234375 55.382812 310.765625 54.28125 C 314.414062 51.464844 317.742188 48.238281 321.21875 45.191406 C 317.566406 49.203125 313.984375 53.359375 309.617188 56.625 C 302.035156 62.152344 300.535156 53.5625 299.867188 47.71875 C 299.34375 43.085938 299.222656 38.421875 299.140625 33.777344 C 299.046875 24.503906 299.25 15.238281 299.769531 5.976562 Z M 299.769531 5.976562 " fill-opacity="1" fill-rule="nonzero"/><path fill="#000000" d="M 278.324219 45.191406 C 281.796875 48.238281 285.125 51.464844 288.777344 54.285156 C 290.445312 55.476562 293.941406 58.332031 295.703125 56.195312 C 296.632812 55.058594 297.011719 53.472656 297.328125 52.023438 C 297.628906 50.558594 297.835938 49.050781 297.996094 47.53125 C 298.726562 39.882812 298.785156 32.175781 299.046875 24.492188 C 299.222656 18.324219 299.410156 12.152344 299.769531 5.976562 C 300.210938 13.695312 300.414062 21.414062 300.429688 29.140625 C 300.410156 35.335938 300.351562 41.542969 299.675781 47.71875 C 299.28125 50.71875 298.734375 56.089844 296.011719 57.886719 C 293.34375 59.539062 290.070312 56.8125 288.066406 55.164062 C 284.550781 52.101562 281.425781 48.652344 278.324219 45.191406 Z M 278.324219 45.191406 " fill-opacity="1" fill-rule="nonzero"/><path fill="#000000" d="M 206.296875 66.640625 C 223.28125 65.929688 241.132812 65.871094 258.132812 65.40625 C 265.128906 65.203125 272.128906 65.015625 279.066406 64.15625 C 281.761719 63.757812 284.597656 63.382812 287.015625 62.109375 C 287.015625 62.109375 287.328125 61.914062 287.328125 61.914062 L 287.480469 61.816406 C 287.605469 61.707031 287.78125 61.597656 287.898438 61.480469 C 289.992188 59.605469 288.027344 56.785156 286.78125 54.957031 C 284.3125 51.53125 281.164062 48.339844 278.324219 45.191406 C 281.464844 48.125 284.757812 51.09375 287.460938 54.449219 C 289.421875 56.910156 291.433594 60.410156 288.195312 62.800781 C 284.277344 65.550781 275.980469 66.0625 271.167969 66.511719 C 249.570312 67.855469 227.90625 67.371094 206.296875 66.640625 Z M 206.296875 66.640625 " fill-opacity="1" fill-rule="nonzero"/><path fill="#000000" d="M 278.324219 88.089844 C 281.164062 84.9375 284.3125 81.753906 286.78125 78.324219 C 288.03125 76.5 289.996094 73.671875 287.898438 71.796875 C 287.78125 71.683594 287.609375 71.574219 287.484375 71.464844 C 287.484375 71.464844 287.328125 71.367188 287.328125 71.367188 L 287.015625 71.171875 C 284.597656 69.894531 281.761719 69.523438 279.066406 69.121094 C 272.128906 68.265625 265.128906 68.074219 258.132812 67.875 C 241.125 67.414062 223.285156 67.355469 206.296875 66.640625 C 219.203125 66.109375 232.277344 65.929688 245.203125 65.953125 C 256.027344 66.074219 266.890625 66.113281 277.65625 67.425781 C 280.910156 67.894531 284.273438 68.367188 287.265625 69.898438 C 287.265625 69.898438 287.644531 70.109375 287.644531 70.109375 L 288.011719 70.359375 C 291.476562 72.710938 289.5 76.28125 287.460938 78.832031 C 284.761719 82.183594 281.460938 85.160156 278.324219 88.089844 Z M 278.324219 88.089844 " fill-opacity="1" fill-rule="nonzero"/><path fill="#000000" d="M 299.769531 127.304688 C 298.894531 113.457031 299.183594 99.5625 297.996094 85.75 C 297.683594 83.308594 297.234375 78.101562 295.210938 76.640625 C 293.367188 75.4375 290.308594 77.898438 288.777344 79 C 285.128906 81.816406 281.800781 85.042969 278.324219 88.089844 C 281.976562 84.078125 285.558594 79.921875 289.925781 76.65625 C 297.507812 71.128906 299.007812 79.71875 299.675781 85.566406 C 300.199219 90.195312 300.316406 94.859375 300.402344 99.503906 C 300.492188 108.777344 300.292969 118.042969 299.769531 127.304688 Z M 299.769531 127.304688 " fill-opacity="1" fill-rule="nonzero"/><path fill="#000000" d="M 321.21875 88.089844 C 317.742188 85.042969 314.417969 81.816406 310.765625 78.996094 C 309.097656 77.804688 305.601562 74.949219 303.839844 77.085938 C 302.910156 78.222656 302.53125 79.808594 302.214844 81.257812 C 301.914062 82.722656 301.703125 84.230469 301.546875 85.75 C 300.816406 93.398438 300.757812 101.105469 300.496094 108.789062 C 300.320312 114.957031 300.132812 121.128906 299.769531 127.304688 C 299.328125 119.585938 299.125 111.867188 299.113281 104.140625 C 299.132812 97.945312 299.191406 91.738281 299.867188 85.566406 C 300.261719 82.5625 300.808594 77.191406 303.53125 75.394531 C 306.199219 73.742188 309.472656 76.46875 311.476562 78.117188 C 314.992188 81.179688 318.117188 84.628906 321.21875 88.089844 Z M 321.21875 88.089844 " fill-opacity="1" fill-rule="nonzero"/><path fill="#000000" d="M 393.246094 66.640625 C 371.425781 67.582031 349.015625 67.289062 327.207031 68.332031 C 323.929688 68.511719 320.65625 68.75 317.414062 69.238281 C 315.335938 69.5625 313.136719 69.941406 311.28125 70.894531 C 309.03125 72.066406 309.339844 73.757812 310.464844 75.695312 C 312.171875 78.476562 314.503906 80.839844 316.710938 83.25 C 317.839844 84.445312 320.097656 86.882812 321.21875 88.089844 C 321.21875 88.089844 318.785156 85.847656 318.785156 85.847656 L 316.367188 83.589844 C 313.980469 81.277344 311.488281 79.011719 309.617188 76.214844 C 306.726562 71.800781 309.730469 69.667969 313.886719 68.539062 C 316.070312 67.929688 318.277344 67.597656 320.484375 67.320312 C 327.078125 66.523438 333.71875 66.316406 340.34375 66.113281 C 357.980469 65.761719 375.617188 65.96875 393.246094 66.640625 Z M 393.246094 66.640625 " fill-opacity="1" fill-rule="nonzero"/><path fill="#000000" d="M 321.21875 45.191406 C 318.203125 48.28125 314.917969 51.414062 312.25 54.78125 C 308.804688 59.210938 308.484375 61.808594 314.539062 63.347656 C 318.757812 64.375 323.121094 64.667969 327.449219 64.945312 C 340.101562 65.65625 354.164062 65.671875 366.902344 65.9375 C 375.683594 66.09375 384.464844 66.28125 393.246094 66.640625 C 380.152344 67.171875 366.835938 67.359375 353.71875 67.351562 C 342.722656 67.242188 331.6875 67.238281 320.746094 65.921875 C 317.398438 65.40625 309.394531 64.535156 308.722656 60.445312 C 308.527344 59.183594 309.003906 58.03125 309.605469 56.972656 C 311.34375 54.089844 313.863281 51.828125 316.269531 49.550781 C 317.65625 48.230469 319.757812 46.46875 321.21875 45.191406 Z M 321.21875 45.191406 " fill-opacity="1" fill-rule="nonzero"/><path fill="#000000" d="M 251.796875 37.332031 L 278.902344 55.136719 L 250.886719 38.804688 Z M 251.796875 37.332031 " fill-opacity="1" fill-rule="nonzero"/><path fill="#000000" d="M 281.171875 31.277344 L 288.269531 46.332031 L 279.648438 32.097656 Z M 281.171875 31.277344 " fill-opacity="1" fill-rule="nonzero"/><path fill="#000000" d="M 330.90625 19.996094 L 313.097656 47.101562 L 329.433594 19.082031 Z M 330.90625 19.996094 " fill-opacity="1" fill-rule="nonzero"/><path fill="#000000" d="M 340.9375 47.234375 L 321.90625 56.46875 L 340.117188 45.710938 Z M 340.9375 47.234375 " fill-opacity="1" fill-rule="nonzero"/><path fill="#000000" d="M 348.242188 99.105469 L 321.136719 81.296875 L 349.152344 97.632812 Z M 348.242188 99.105469 " fill-opacity="1" fill-rule="nonzero"/><path fill="#000000" d="M 321.726562 110.480469 L 311.765625 90.101562 L 323.25 109.664062 Z M 321.726562 110.480469 " fill-opacity="1" fill-rule="nonzero"/><path fill="#000000" d="M 269.132812 116.441406 L 286.941406 89.335938 L 270.605469 117.351562 Z M 269.132812 116.441406 " fill-opacity="1" fill-rule="nonzero"/><path fill="#000000" d="M 262.449219 87.402344 L 278.132812 79.964844 L 263.265625 88.929688 Z M 262.449219 87.402344 " fill-opacity="1" fill-rule="nonzero"/><path fill="#000000" d="M 289.335938 0.695312 L 289.378906 0.980469 C 289.449219 1.449219 289.125 1.886719 288.65625 1.957031 C 288.199219 2.023438 287.773438 1.71875 287.683594 1.269531 L 287.628906 0.984375 C 287.539062 0.515625 287.84375 0.0625 288.316406 -0.0273438 C 288.785156 -0.121094 289.238281 0.1875 289.328125 0.65625 C 289.332031 0.667969 289.335938 0.683594 289.335938 0.695312 Z M 289.335938 0.695312 " fill-opacity="1" fill-rule="nonzero"/><path fill="#000000" d="M 290.054688 5.546875 L 290.097656 5.832031 C 290.160156 6.242188 289.875 6.621094 289.464844 6.683594 C 289.070312 6.742188 288.695312 6.476562 288.621094 6.085938 L 288.566406 5.800781 C 288.484375 5.390625 288.753906 4.996094 289.164062 4.914062 C 289.574219 4.835938 289.96875 5.101562 290.050781 5.511719 C 290.050781 5.523438 290.054688 5.535156 290.054688 5.546875 Z M 290.054688 5.546875 " fill-opacity="1" fill-rule="nonzero"/><path fill="#000000" d="M 290.773438 10.398438 L 290.816406 10.683594 C 290.871094 11.035156 290.628906 11.359375 290.277344 11.410156 C 289.9375 11.460938 289.621094 11.234375 289.554688 10.898438 L 289.5 10.617188 C 289.433594 10.265625 289.664062 9.925781 290.011719 9.859375 C 290.363281 9.789062 290.703125 10.019531 290.769531 10.371094 C 290.773438 10.378906 290.773438 10.390625 290.773438 10.398438 Z M 290.773438 10.398438 " fill-opacity="1" fill-rule="nonzero"/><path fill="#000000" d="M 291.496094 15.25 L 291.535156 15.535156 C 291.578125 15.824219 291.378906 16.09375 291.089844 16.136719 C 290.808594 16.179688 290.546875 15.992188 290.492188 15.714844 L 290.4375 15.433594 C 290.378906 15.140625 290.570312 14.859375 290.863281 14.804688 C 291.152344 14.746094 291.433594 14.9375 291.492188 15.226562 C 291.492188 15.234375 291.492188 15.242188 291.496094 15.25 Z M 291.496094 15.25 " fill-opacity="1" fill-rule="nonzero"/><path fill="#000000" d="M 292.214844 20.101562 L 292.257812 20.386719 C 292.289062 20.617188 292.132812 20.832031 291.902344 20.867188 C 291.679688 20.898438 291.472656 20.75 291.429688 20.53125 L 291.371094 20.246094 C 291.328125 20.015625 291.480469 19.792969 291.710938 19.746094 C 291.941406 19.703125 292.164062 19.851562 292.210938 20.085938 C 292.210938 20.089844 292.214844 20.097656 292.214844 20.101562 Z M 292.214844 20.101562 " fill-opacity="1" fill-rule="nonzero"/><path fill="#000000" d="M 292.933594 24.957031 L 292.976562 25.242188 C 293 25.410156 292.882812 25.570312 292.714844 25.59375 C 292.550781 25.617188 292.394531 25.507812 292.363281 25.34375 L 292.308594 25.0625 C 292.273438 24.890625 292.386719 24.722656 292.558594 24.691406 C 292.730469 24.65625 292.898438 24.769531 292.929688 24.941406 C 292.933594 24.945312 292.933594 24.949219 292.933594 24.957031 Z M 292.933594 24.957031 " fill-opacity="1" fill-rule="nonzero"/><path fill="#000000" d="M 293.652344 29.808594 L 293.695312 30.09375 C 293.710938 30.203125 293.636719 30.304688 293.527344 30.320312 C 293.417969 30.335938 293.320312 30.265625 293.300781 30.160156 L 293.246094 29.878906 C 293.222656 29.765625 293.296875 29.65625 293.410156 29.632812 C 293.519531 29.613281 293.628906 29.6875 293.652344 29.796875 C 293.652344 29.800781 293.652344 29.804688 293.652344 29.808594 Z M 293.652344 29.808594 " fill-opacity="1" fill-rule="nonzero"/><path fill="#000000" d="M 294.371094 34.660156 L 294.414062 34.945312 C 294.421875 34.996094 294.386719 35.042969 294.339844 35.050781 C 294.289062 35.054688 294.246094 35.023438 294.234375 34.976562 L 294.179688 34.691406 C 294.167969 34.640625 294.203125 34.589844 294.257812 34.578125 C 294.308594 34.566406 294.363281 34.601562 294.371094 34.65625 C 294.371094 34.65625 294.371094 34.660156 294.371094 34.660156 Z M 294.371094 34.660156 " fill-opacity="1" fill-rule="nonzero"/><path fill="#000000" d="M 317.992188 22.089844 L 317.867188 22.351562 C 317.671875 22.773438 317.167969 22.957031 316.746094 22.757812 C 316.367188 22.582031 316.179688 22.160156 316.289062 21.769531 L 316.367188 21.488281 C 316.496094 21.027344 316.972656 20.757812 317.4375 20.886719 C 317.898438 21.015625 318.167969 21.492188 318.039062 21.953125 C 318.027344 22 318.007812 22.046875 317.992188 22.089844 Z M 317.992188 22.089844 " fill-opacity="1" fill-rule="nonzero"/><path fill="#000000" d="M 315.90625 26.546875 L 315.785156 26.808594 C 315.683594 27.027344 315.425781 27.121094 315.207031 27.019531 C 315.011719 26.929688 314.914062 26.710938 314.972656 26.507812 L 315.050781 26.230469 C 315.117188 25.984375 315.371094 25.84375 315.613281 25.910156 C 315.859375 25.980469 316.003906 26.230469 315.933594 26.476562 C 315.925781 26.5 315.917969 26.527344 315.90625 26.546875 Z M 315.90625 26.546875 " fill-opacity="1" fill-rule="nonzero"/><path fill="#000000" d="M 313.824219 31.007812 L 313.703125 31.269531 C 313.695312 31.28125 313.679688 31.289062 313.667969 31.28125 C 313.65625 31.277344 313.652344 31.261719 313.652344 31.25 L 313.730469 30.972656 C 313.738281 30.945312 313.765625 30.929688 313.792969 30.9375 C 313.820312 30.945312 313.835938 30.972656 313.828125 31 C 313.828125 31 313.828125 31.003906 313.824219 31.007812 Z M 313.824219 31.007812 " fill-opacity="1" fill-rule="nonzero"/><path fill="#000000" d="M 367.542969 57.535156 L 367.257812 57.578125 C 366.789062 57.644531 366.351562 57.320312 366.28125 56.851562 C 366.214844 56.398438 366.519531 55.972656 366.96875 55.882812 L 367.25 55.828125 C 367.71875 55.738281 368.175781 56.042969 368.265625 56.511719 C 368.355469 56.980469 368.050781 57.4375 367.582031 57.527344 C 367.570312 57.53125 367.554688 57.53125 367.542969 57.535156 Z M 367.542969 57.535156 " fill-opacity="1" fill-rule="nonzero"/><path fill="#000000" d="M 362.691406 58.253906 L 362.40625 58.296875 C 361.996094 58.355469 361.613281 58.074219 361.554688 57.664062 C 361.496094 57.265625 361.761719 56.894531 362.152344 56.820312 L 362.4375 56.765625 C 362.84375 56.683594 363.242188 56.953125 363.320312 57.363281 C 363.402344 57.773438 363.132812 58.167969 362.722656 58.246094 C 362.714844 58.25 362.699219 58.253906 362.691406 58.253906 Z M 362.691406 58.253906 " fill-opacity="1" fill-rule="nonzero"/><path fill="#000000" d="M 357.839844 58.972656 L 357.554688 59.015625 C 357.203125 59.066406 356.878906 58.824219 356.828125 58.476562 C 356.777344 58.136719 357.003906 57.820312 357.335938 57.753906 L 357.621094 57.699219 C 357.972656 57.632812 358.308594 57.859375 358.378906 58.210938 C 358.445312 58.5625 358.21875 58.898438 357.867188 58.96875 C 357.859375 58.96875 357.847656 58.972656 357.839844 58.972656 Z M 357.839844 58.972656 " fill-opacity="1" fill-rule="nonzero"/><path fill="#000000" d="M 352.984375 59.691406 L 352.699219 59.734375 C 352.410156 59.777344 352.140625 59.578125 352.097656 59.289062 C 352.058594 59.007812 352.246094 58.746094 352.523438 58.691406 L 352.804688 58.636719 C 353.097656 58.578125 353.378906 58.769531 353.433594 59.058594 C 353.492188 59.351562 353.300781 59.632812 353.011719 59.6875 C 353.003906 59.691406 352.992188 59.691406 352.984375 59.691406 Z M 352.984375 59.691406 " fill-opacity="1" fill-rule="nonzero"/><path fill="#000000" d="M 348.132812 60.414062 L 347.847656 60.453125 C 347.617188 60.488281 347.40625 60.332031 347.371094 60.101562 C 347.339844 59.878906 347.488281 59.667969 347.707031 59.625 L 347.988281 59.570312 C 348.222656 59.527344 348.445312 59.675781 348.492188 59.910156 C 348.535156 60.140625 348.382812 60.363281 348.152344 60.410156 C 348.148438 60.410156 348.140625 60.410156 348.132812 60.414062 Z M 348.132812 60.414062 " fill-opacity="1" fill-rule="nonzero"/><path fill="#000000" d="M 343.28125 61.132812 L 342.996094 61.175781 C 342.828125 61.199219 342.667969 61.082031 342.644531 60.914062 C 342.617188 60.746094 342.730469 60.59375 342.890625 60.5625 L 343.175781 60.507812 C 343.347656 60.472656 343.511719 60.585938 343.546875 60.757812 C 343.582031 60.929688 343.46875 61.097656 343.296875 61.128906 C 343.292969 61.128906 343.285156 61.132812 343.28125 61.132812 Z M 343.28125 61.132812 " fill-opacity="1" fill-rule="nonzero"/><path fill="#000000" d="M 338.429688 61.851562 L 338.144531 61.894531 C 338.035156 61.910156 337.933594 61.835938 337.914062 61.722656 C 337.898438 61.617188 337.972656 61.519531 338.078125 61.496094 L 338.359375 61.441406 C 338.472656 61.421875 338.582031 61.492188 338.601562 61.605469 C 338.625 61.71875 338.550781 61.828125 338.4375 61.851562 C 338.4375 61.851562 338.433594 61.851562 338.429688 61.851562 Z M 338.429688 61.851562 " fill-opacity="1" fill-rule="nonzero"/><path fill="#000000" d="M 333.578125 62.570312 L 333.292969 62.613281 C 333.242188 62.621094 333.195312 62.585938 333.1875 62.535156 C 333.179688 62.488281 333.214844 62.441406 333.261719 62.433594 L 333.542969 62.378906 C 333.597656 62.367188 333.648438 62.402344 333.660156 62.457031 C 333.667969 62.507812 333.632812 62.558594 333.582031 62.570312 C 333.582031 62.570312 333.578125 62.570312 333.578125 62.570312 Z M 333.578125 62.570312 " fill-opacity="1" fill-rule="nonzero"/><path fill="#000000" d="M 351.203125 88.058594 L 350.9375 87.941406 C 350.507812 87.753906 350.3125 87.25 350.5 86.820312 C 350.675781 86.421875 351.121094 86.226562 351.527344 86.347656 L 351.800781 86.433594 C 352.261719 86.574219 352.519531 87.058594 352.378906 87.515625 C 352.242188 87.972656 351.757812 88.230469 351.296875 88.09375 C 351.265625 88.082031 351.230469 88.070312 351.203125 88.058594 Z M 351.203125 88.058594 " fill-opacity="1" fill-rule="nonzero"/><path fill="#000000" d="M 346.703125 86.085938 L 346.4375 85.96875 C 346.15625 85.84375 346.027344 85.515625 346.152344 85.230469 C 346.265625 84.96875 346.558594 84.839844 346.824219 84.921875 L 347.101562 85.007812 C 347.40625 85.097656 347.578125 85.421875 347.484375 85.722656 C 347.394531 86.027344 347.070312 86.199219 346.765625 86.109375 C 346.746094 86.101562 346.722656 86.09375 346.703125 86.085938 Z M 346.703125 86.085938 " fill-opacity="1" fill-rule="nonzero"/><path fill="#000000" d="M 342.203125 84.113281 L 341.9375 83.996094 C 341.804688 83.9375 341.742188 83.777344 341.800781 83.644531 C 341.855469 83.515625 341.996094 83.457031 342.125 83.496094 L 342.402344 83.578125 C 342.550781 83.625 342.636719 83.78125 342.589844 83.933594 C 342.546875 84.085938 342.386719 84.167969 342.234375 84.125 C 342.226562 84.121094 342.214844 84.117188 342.203125 84.113281 Z M 342.203125 84.113281 " fill-opacity="1" fill-rule="nonzero"/><g clip-path="url(#9fbb489e1f)"><path fill="#000000" d="M 310.703125 135.742188 L 310.660156 135.457031 C 310.589844 134.988281 310.914062 134.550781 311.386719 134.480469 C 311.839844 134.414062 312.265625 134.71875 312.355469 135.164062 L 312.410156 135.449219 C 312.5 135.917969 312.195312 136.371094 311.726562 136.464844 C 311.253906 136.554688 310.800781 136.25 310.710938 135.78125 C 310.707031 135.769531 310.703125 135.753906 310.703125 135.742188 Z M 310.703125 135.742188 " fill-opacity="1" fill-rule="nonzero"/></g><path fill="#000000" d="M 309.984375 130.890625 L 309.941406 130.605469 C 309.878906 130.195312 310.164062 129.8125 310.574219 129.753906 C 310.96875 129.691406 311.34375 129.960938 311.417969 130.351562 L 311.472656 130.632812 C 311.554688 131.042969 311.285156 131.441406 310.875 131.519531 C 310.464844 131.601562 310.070312 131.332031 309.988281 130.921875 C 309.988281 130.914062 309.984375 130.898438 309.984375 130.890625 Z M 309.984375 130.890625 " fill-opacity="1" fill-rule="nonzero"/><path fill="#000000" d="M 309.265625 126.035156 L 309.222656 125.75 C 309.171875 125.402344 309.410156 125.078125 309.761719 125.023438 C 310.101562 124.972656 310.417969 125.203125 310.484375 125.535156 L 310.539062 125.820312 C 310.605469 126.167969 310.378906 126.507812 310.027344 126.578125 C 309.675781 126.644531 309.335938 126.414062 309.269531 126.066406 C 309.265625 126.054688 309.265625 126.046875 309.265625 126.035156 Z M 309.265625 126.035156 " fill-opacity="1" fill-rule="nonzero"/><path fill="#000000" d="M 308.542969 121.183594 L 308.503906 120.898438 C 308.460938 120.609375 308.660156 120.339844 308.949219 120.296875 C 309.230469 120.253906 309.492188 120.445312 309.546875 120.71875 L 309.601562 121.003906 C 309.660156 121.292969 309.46875 121.574219 309.179688 121.632812 C 308.886719 121.6875 308.605469 121.5 308.546875 121.207031 C 308.546875 121.199219 308.546875 121.191406 308.542969 121.183594 Z M 308.542969 121.183594 " fill-opacity="1" fill-rule="nonzero"/><path fill="#000000" d="M 307.824219 116.332031 L 307.78125 116.046875 C 307.75 115.816406 307.90625 115.601562 308.136719 115.570312 C 308.359375 115.535156 308.570312 115.6875 308.613281 115.90625 L 308.667969 116.1875 C 308.710938 116.417969 308.558594 116.644531 308.328125 116.6875 C 308.097656 116.734375 307.875 116.582031 307.828125 116.351562 C 307.828125 116.34375 307.824219 116.339844 307.824219 116.332031 Z M 307.824219 116.332031 " fill-opacity="1" fill-rule="nonzero"/><path fill="#000000" d="M 307.105469 111.480469 L 307.0625 111.195312 C 307.039062 111.023438 307.15625 110.867188 307.324219 110.839844 C 307.488281 110.816406 307.644531 110.929688 307.675781 111.089844 L 307.730469 111.371094 C 307.765625 111.546875 307.652344 111.710938 307.480469 111.746094 C 307.308594 111.777344 307.140625 111.667969 307.109375 111.492188 C 307.105469 111.488281 307.105469 111.484375 307.105469 111.480469 Z M 307.105469 111.480469 " fill-opacity="1" fill-rule="nonzero"/><path fill="#000000" d="M 306.386719 106.628906 L 306.34375 106.34375 C 306.328125 106.234375 306.402344 106.128906 306.511719 106.113281 C 306.621094 106.097656 306.71875 106.167969 306.738281 106.273438 L 306.792969 106.558594 C 306.816406 106.671875 306.742188 106.78125 306.628906 106.800781 C 306.519531 106.824219 306.410156 106.75 306.386719 106.636719 C 306.386719 106.632812 306.386719 106.628906 306.386719 106.628906 Z M 306.386719 106.628906 " fill-opacity="1" fill-rule="nonzero"/><path fill="#000000" d="M 305.667969 101.777344 L 305.625 101.488281 C 305.617188 101.441406 305.652344 101.394531 305.699219 101.386719 C 305.75 101.378906 305.792969 101.410156 305.804688 101.460938 L 305.859375 101.742188 C 305.871094 101.796875 305.835938 101.847656 305.78125 101.855469 C 305.730469 101.867188 305.675781 101.832031 305.667969 101.78125 C 305.667969 101.777344 305.667969 101.777344 305.667969 101.777344 Z M 305.667969 101.777344 " fill-opacity="1" fill-rule="nonzero"/><path fill="#000000" d="M 279.546875 121.113281 L 279.65625 120.847656 C 279.835938 120.40625 280.332031 120.195312 280.773438 120.375 C 281.191406 120.546875 281.402344 121.015625 281.261719 121.4375 L 281.171875 121.714844 C 281.019531 122.167969 280.527344 122.410156 280.074219 122.261719 C 279.621094 122.109375 279.375 121.617188 279.527344 121.164062 C 279.535156 121.148438 279.539062 121.128906 279.546875 121.113281 Z M 279.546875 121.113281 " fill-opacity="1" fill-rule="nonzero"/><path fill="#000000" d="M 281.394531 116.566406 L 281.503906 116.300781 C 281.648438 115.941406 282.058594 115.769531 282.414062 115.914062 C 282.757812 116.054688 282.929688 116.4375 282.816406 116.785156 L 282.722656 117.058594 C 282.601562 117.429688 282.199219 117.628906 281.828125 117.507812 C 281.457031 117.382812 281.253906 116.980469 281.378906 116.609375 C 281.382812 116.597656 281.390625 116.582031 281.394531 116.566406 Z M 281.394531 116.566406 " fill-opacity="1" fill-rule="nonzero"/><path fill="#000000" d="M 283.242188 112.023438 L 283.351562 111.753906 C 283.464844 111.476562 283.78125 111.34375 284.058594 111.457031 C 284.324219 111.5625 284.457031 111.863281 284.367188 112.128906 L 284.277344 112.40625 C 284.179688 112.695312 283.867188 112.851562 283.578125 112.753906 C 283.289062 112.65625 283.132812 112.34375 283.230469 112.054688 C 283.234375 112.042969 283.238281 112.03125 283.242188 112.023438 Z M 283.242188 112.023438 " fill-opacity="1" fill-rule="nonzero"/><path fill="#000000" d="M 285.089844 107.476562 L 285.199219 107.210938 C 285.277344 107.011719 285.503906 106.917969 285.699219 106.996094 C 285.890625 107.074219 285.984375 107.285156 285.921875 107.476562 L 285.828125 107.75 C 285.761719 107.957031 285.535156 108.070312 285.328125 108 C 285.121094 107.929688 285.011719 107.707031 285.082031 107.5 C 285.082031 107.492188 285.085938 107.484375 285.089844 107.476562 Z M 285.089844 107.476562 " fill-opacity="1" fill-rule="nonzero"/><path fill="#000000" d="M 286.9375 102.929688 L 287.046875 102.664062 C 287.09375 102.546875 287.226562 102.488281 287.34375 102.539062 C 287.457031 102.582031 287.511719 102.707031 287.472656 102.820312 L 287.382812 103.097656 C 287.339844 103.21875 287.207031 103.289062 287.082031 103.246094 C 286.957031 103.203125 286.890625 103.070312 286.929688 102.945312 C 286.933594 102.941406 286.933594 102.933594 286.9375 102.929688 Z M 286.9375 102.929688 " fill-opacity="1" fill-rule="nonzero"/><path fill="#000000" d="M 288.785156 98.386719 L 288.890625 98.117188 C 288.90625 98.082031 288.949219 98.0625 288.984375 98.078125 C 289.019531 98.09375 289.039062 98.132812 289.027344 98.167969 L 288.9375 98.441406 C 288.921875 98.484375 288.875 98.507812 288.832031 98.492188 C 288.789062 98.480469 288.765625 98.433594 288.78125 98.390625 C 288.78125 98.386719 288.78125 98.386719 288.785156 98.386719 Z M 288.785156 98.386719 " fill-opacity="1" fill-rule="nonzero"/><path fill="#000000" d="M 232.496094 78.902344 L 232.78125 78.859375 C 233.25 78.789062 233.6875 79.113281 233.757812 79.582031 C 233.824219 80.039062 233.519531 80.464844 233.070312 80.550781 L 232.789062 80.609375 C 232.320312 80.699219 231.863281 80.390625 231.773438 79.921875 C 231.683594 79.453125 231.988281 79 232.457031 78.910156 C 232.46875 78.90625 232.484375 78.902344 232.496094 78.902344 Z M 232.496094 78.902344 " fill-opacity="1" fill-rule="nonzero"/><path fill="#000000" d="M 237.347656 78.183594 L 237.632812 78.140625 C 238.042969 78.078125 238.425781 78.363281 238.484375 78.769531 C 238.542969 79.167969 238.277344 79.539062 237.886719 79.617188 L 237.601562 79.671875 C 237.195312 79.75 236.796875 79.484375 236.71875 79.074219 C 236.636719 78.664062 236.90625 78.265625 237.316406 78.1875 C 237.324219 78.1875 237.339844 78.183594 237.347656 78.183594 Z M 237.347656 78.183594 " fill-opacity="1" fill-rule="nonzero"/><path fill="#000000" d="M 242.199219 77.460938 L 242.484375 77.421875 C 242.835938 77.367188 243.160156 77.609375 243.210938 77.960938 C 243.261719 78.296875 243.035156 78.617188 242.703125 78.679688 L 242.417969 78.734375 C 242.066406 78.804688 241.730469 78.574219 241.660156 78.226562 C 241.59375 77.875 241.820312 77.535156 242.171875 77.46875 C 242.179688 77.464844 242.191406 77.464844 242.199219 77.460938 Z M 242.199219 77.460938 " fill-opacity="1" fill-rule="nonzero"/><path fill="#000000" d="M 247.050781 76.742188 L 247.339844 76.699219 C 247.628906 76.65625 247.898438 76.859375 247.941406 77.148438 C 247.980469 77.429688 247.792969 77.691406 247.515625 77.746094 L 247.234375 77.800781 C 246.941406 77.855469 246.660156 77.667969 246.605469 77.375 C 246.546875 77.085938 246.738281 76.804688 247.027344 76.746094 C 247.035156 76.746094 247.046875 76.742188 247.050781 76.742188 Z M 247.050781 76.742188 " fill-opacity="1" fill-rule="nonzero"/><path fill="#000000" d="M 251.90625 76.023438 L 252.191406 75.980469 C 252.421875 75.945312 252.632812 76.105469 252.667969 76.335938 C 252.699219 76.558594 252.550781 76.765625 252.332031 76.808594 L 252.050781 76.863281 C 251.816406 76.910156 251.59375 76.757812 251.546875 76.527344 C 251.503906 76.296875 251.65625 76.070312 251.886719 76.027344 C 251.890625 76.027344 251.898438 76.023438 251.90625 76.023438 Z M 251.90625 76.023438 " fill-opacity="1" fill-rule="nonzero"/><path fill="#000000" d="M 256.757812 75.304688 L 257.042969 75.261719 C 257.210938 75.234375 257.371094 75.351562 257.394531 75.523438 C 257.421875 75.6875 257.308594 75.84375 257.148438 75.875 L 256.863281 75.929688 C 256.691406 75.960938 256.527344 75.851562 256.492188 75.679688 C 256.457031 75.507812 256.570312 75.339844 256.742188 75.304688 C 256.746094 75.304688 256.753906 75.304688 256.757812 75.304688 Z M 256.757812 75.304688 " fill-opacity="1" fill-rule="nonzero"/><path fill="#000000" d="M 261.609375 74.585938 L 261.894531 74.542969 C 262.003906 74.527344 262.105469 74.601562 262.125 74.710938 C 262.140625 74.816406 262.066406 74.917969 261.960938 74.9375 L 261.679688 74.992188 C 261.566406 75.015625 261.457031 74.941406 261.4375 74.828125 C 261.414062 74.714844 261.488281 74.609375 261.601562 74.585938 C 261.601562 74.585938 261.605469 74.585938 261.609375 74.585938 Z M 261.609375 74.585938 " fill-opacity="1" fill-rule="nonzero"/><path fill="#000000" d="M 266.460938 73.863281 L 266.746094 73.824219 C 266.796875 73.816406 266.84375 73.847656 266.851562 73.898438 C 266.859375 73.949219 266.824219 73.992188 266.777344 74.003906 L 266.496094 74.058594 C 266.441406 74.066406 266.390625 74.03125 266.378906 73.980469 C 266.371094 73.925781 266.402344 73.875 266.457031 73.867188 C 266.457031 73.863281 266.460938 73.863281 266.460938 73.863281 Z M 266.460938 73.863281 " fill-opacity="1" fill-rule="nonzero"/><path fill="#000000" d="M 253.089844 49.949219 L 253.355469 50.0625 C 253.792969 50.242188 253.996094 50.742188 253.816406 51.179688 C 253.644531 51.589844 253.183594 51.796875 252.765625 51.664062 L 252.488281 51.574219 C 252.035156 51.425781 251.785156 50.9375 251.929688 50.484375 C 252.078125 50.027344 252.566406 49.777344 253.023438 49.925781 C 253.042969 49.933594 253.066406 49.941406 253.089844 49.949219 Z M 253.089844 49.949219 " fill-opacity="1" fill-rule="nonzero"/><path fill="#000000" d="M 257.617188 51.84375 L 257.886719 51.953125 C 258.214844 52.09375 258.371094 52.472656 258.234375 52.804688 C 258.101562 53.117188 257.753906 53.269531 257.433594 53.171875 L 257.160156 53.082031 C 256.8125 52.96875 256.621094 52.597656 256.734375 52.25 C 256.847656 51.902344 257.21875 51.710938 257.566406 51.824219 C 257.582031 51.828125 257.601562 51.835938 257.617188 51.84375 Z M 257.617188 51.84375 " fill-opacity="1" fill-rule="nonzero"/><path fill="#000000" d="M 262.148438 53.734375 L 262.414062 53.847656 C 262.640625 53.941406 262.746094 54.199219 262.652344 54.425781 C 262.5625 54.640625 262.324219 54.746094 262.105469 54.679688 L 261.832031 54.589844 C 261.59375 54.511719 261.460938 54.253906 261.539062 54.015625 C 261.617188 53.777344 261.871094 53.644531 262.113281 53.722656 C 262.125 53.726562 262.136719 53.730469 262.148438 53.734375 Z M 262.148438 53.734375 " fill-opacity="1" fill-rule="nonzero"/><path fill="#000000" d="M 266.675781 55.628906 L 266.941406 55.738281 C 267.0625 55.789062 267.121094 55.929688 267.070312 56.050781 C 267.023438 56.164062 266.894531 56.222656 266.777344 56.1875 L 266.503906 56.097656 C 266.371094 56.054688 266.296875 55.914062 266.339844 55.78125 C 266.382812 55.648438 266.523438 55.578125 266.65625 55.621094 C 266.664062 55.621094 266.671875 55.625 266.675781 55.628906 Z M 266.675781 55.628906 " fill-opacity="1" fill-rule="nonzero"/><path fill="#000000" d="M 271.207031 57.519531 L 271.472656 57.632812 C 271.488281 57.636719 271.496094 57.65625 271.488281 57.675781 C 271.484375 57.691406 271.464844 57.699219 271.449219 57.695312 L 271.171875 57.605469 C 271.148438 57.597656 271.136719 57.570312 271.144531 57.546875 C 271.152344 57.523438 271.179688 57.511719 271.203125 57.519531 C 271.203125 57.519531 271.203125 57.519531 271.207031 57.519531 Z M 271.207031 57.519531 " fill-opacity="1" fill-rule="nonzero"/><path fill="#000000" d="M 437.480469 67.480469 C 439.785156 68.242188 440.082031 68.699219 440.5625 72.324219 C 441.253906 77.878906 440.945312 77.878906 441.632812 72.324219 C 442.117188 68.699219 442.410156 68.238281 444.714844 67.476562 C 448.25 66.394531 448.25 66.878906 444.714844 65.800781 C 442.410156 65.039062 442.113281 64.582031 441.632812 60.957031 C 440.941406 55.40625 441.25 55.402344 440.5625 60.957031 C 440.078125 64.582031 439.785156 65.042969 437.480469 65.804688 C 433.945312 66.886719 433.945312 66.402344 437.480469 67.480469 Z M 437.480469 67.480469 " fill-opacity="1" fill-rule="nonzero"/><path fill="#000000" d="M 491.601562 67.480469 C 493.90625 68.242188 494.203125 68.699219 494.683594 72.324219 C 495.375 77.878906 495.066406 77.878906 495.753906 72.324219 C 496.238281 68.699219 496.53125 68.238281 498.835938 67.476562 C 502.371094 66.394531 502.371094 66.878906 498.835938 65.800781 C 496.53125 65.039062 496.234375 64.582031 495.75 60.957031 C 495.0625 55.40625 495.371094 55.402344 494.683594 60.957031 C 494.199219 64.582031 493.90625 65.042969 491.601562 65.804688 C 488.066406 66.886719 488.066406 66.402344 491.601562 67.480469 Z M 491.601562 67.480469 " fill-opacity="1" fill-rule="nonzero"/><path fill="#000000" d="M 65.761719 65.0625 L 66.050781 65.074219 C 66.914062 65.113281 67.582031 65.847656 67.542969 66.714844 C 67.503906 67.527344 66.847656 68.167969 66.050781 68.207031 L 65.761719 68.21875 C 64.890625 68.261719 64.148438 67.585938 64.109375 66.714844 C 64.070312 65.839844 64.742188 65.101562 65.613281 65.0625 C 65.664062 65.058594 65.714844 65.058594 65.761719 65.0625 Z M 65.761719 65.0625 " fill-opacity="1" fill-rule="nonzero"/><path fill="#000000" d="M 70.664062 65.289062 L 70.953125 65.300781 C 71.691406 65.335938 72.265625 65.964844 72.230469 66.703125 C 72.199219 67.398438 71.636719 67.945312 70.953125 67.980469 L 70.664062 67.992188 C 69.917969 68.027344 69.285156 67.449219 69.25 66.703125 C 69.214844 65.957031 69.792969 65.324219 70.539062 65.289062 C 70.582031 65.285156 70.625 65.285156 70.664062 65.289062 Z M 70.664062 65.289062 " fill-opacity="1" fill-rule="nonzero"/><path fill="#000000" d="M 75.570312 65.515625 L 75.859375 65.527344 C 76.472656 65.558594 76.945312 66.078125 76.917969 66.691406 C 76.890625 67.269531 76.421875 67.722656 75.859375 67.753906 L 75.570312 67.765625 C 74.949219 67.792969 74.421875 67.3125 74.390625 66.691406 C 74.363281 66.070312 74.84375 65.542969 75.464844 65.515625 C 75.5 65.515625 75.535156 65.515625 75.570312 65.515625 Z M 75.570312 65.515625 " fill-opacity="1" fill-rule="nonzero"/><path fill="#000000" d="M 80.472656 65.742188 L 80.761719 65.757812 C 81.25 65.777344 81.628906 66.191406 81.605469 66.679688 C 81.585938 67.140625 81.210938 67.503906 80.761719 67.523438 L 80.472656 67.539062 C 79.976562 67.5625 79.558594 67.179688 79.535156 66.683594 C 79.511719 66.1875 79.894531 65.765625 80.390625 65.742188 C 80.417969 65.742188 80.445312 65.742188 80.472656 65.742188 Z M 80.472656 65.742188 " fill-opacity="1" fill-rule="nonzero"/><path fill="#000000" d="M 85.378906 65.96875 L 85.667969 65.984375 C 86.027344 66 86.308594 66.308594 86.292969 66.671875 C 86.277344 67.011719 86 67.28125 85.667969 67.296875 L 85.378906 67.3125 C 85.007812 67.328125 84.691406 67.042969 84.675781 66.671875 C 84.660156 66.300781 84.945312 65.988281 85.316406 65.96875 C 85.335938 65.96875 85.355469 65.96875 85.378906 65.96875 Z M 85.378906 65.96875 " fill-opacity="1" fill-rule="nonzero"/><path fill="#000000" d="M 90.28125 66.199219 L 90.570312 66.210938 C 90.808594 66.222656 90.992188 66.421875 90.980469 66.660156 C 90.96875 66.882812 90.789062 67.058594 90.570312 67.070312 L 90.28125 67.085938 C 90.035156 67.09375 89.828125 66.90625 89.816406 66.660156 C 89.804688 66.417969 89.996094 66.207031 90.242188 66.199219 C 90.253906 66.195312 90.269531 66.195312 90.28125 66.199219 Z M 90.28125 66.199219 " fill-opacity="1" fill-rule="nonzero"/><path fill="#000000" d="M 95.1875 66.425781 L 95.472656 66.4375 C 95.585938 66.441406 95.671875 66.539062 95.667969 66.648438 C 95.664062 66.753906 95.578125 66.839844 95.472656 66.84375 L 95.1875 66.855469 C 95.066406 66.863281 94.964844 66.769531 94.960938 66.652344 C 94.953125 66.53125 95.046875 66.429688 95.164062 66.425781 C 95.171875 66.425781 95.179688 66.425781 95.1875 66.425781 Z M 95.1875 66.425781 " fill-opacity="1" fill-rule="nonzero"/><path fill="#000000" d="M 172.269531 65.0625 L 172.558594 65.074219 C 173.425781 65.113281 174.09375 65.847656 174.050781 66.714844 C 174.015625 67.527344 173.355469 68.167969 172.558594 68.207031 L 172.269531 68.21875 C 171.398438 68.261719 170.660156 67.585938 170.617188 66.714844 C 170.578125 65.839844 171.253906 65.101562 172.125 65.0625 C 172.171875 65.058594 172.222656 65.058594 172.269531 65.0625 Z M 172.269531 65.0625 " fill-opacity="1" fill-rule="nonzero"/><path fill="#000000" d="M 177.175781 65.289062 L 177.464844 65.300781 C 178.203125 65.335938 178.773438 65.964844 178.738281 66.703125 C 178.707031 67.398438 178.144531 67.945312 177.464844 67.980469 L 177.175781 67.992188 C 176.429688 68.027344 175.792969 67.449219 175.761719 66.703125 C 175.726562 65.957031 176.300781 65.324219 177.050781 65.289062 C 177.089844 65.285156 177.132812 65.285156 177.175781 65.289062 Z M 177.175781 65.289062 " fill-opacity="1" fill-rule="nonzero"/><path fill="#000000" d="M 182.078125 65.515625 L 182.367188 65.527344 C 182.980469 65.558594 183.457031 66.078125 183.425781 66.691406 C 183.402344 67.269531 182.933594 67.722656 182.367188 67.753906 L 182.078125 67.765625 C 181.457031 67.792969 180.929688 67.3125 180.902344 66.691406 C 180.871094 66.070312 181.351562 65.542969 181.972656 65.515625 C 182.007812 65.515625 182.046875 65.515625 182.078125 65.515625 Z M 182.078125 65.515625 " fill-opacity="1" fill-rule="nonzero"/><path fill="#000000" d="M 186.984375 65.742188 L 187.269531 65.757812 C 187.757812 65.777344 188.136719 66.191406 188.113281 66.679688 C 188.09375 67.140625 187.722656 67.503906 187.269531 67.523438 L 186.984375 67.539062 C 186.488281 67.5625 186.066406 67.179688 186.042969 66.683594 C 186.019531 66.1875 186.402344 65.765625 186.898438 65.742188 C 186.925781 65.742188 186.957031 65.742188 186.984375 65.742188 Z M 186.984375 65.742188 " fill-opacity="1" fill-rule="nonzero"/><path fill="#000000" d="M 191.886719 65.96875 L 192.175781 65.984375 C 192.539062 66 192.820312 66.308594 192.800781 66.671875 C 192.785156 67.011719 192.511719 67.28125 192.175781 67.296875 L 191.886719 67.3125 C 191.515625 67.328125 191.203125 67.042969 191.183594 66.671875 C 191.167969 66.300781 191.453125 65.988281 191.824219 65.96875 C 191.84375 65.96875 191.867188 65.96875 191.886719 65.96875 Z M 191.886719 65.96875 " fill-opacity="1" fill-rule="nonzero"/><path fill="#000000" d="M 196.789062 66.199219 L 197.078125 66.210938 C 197.316406 66.222656 197.5 66.421875 197.488281 66.660156 C 197.480469 66.882812 197.296875 67.058594 197.078125 67.070312 L 196.789062 67.085938 C 196.546875 67.09375 196.339844 66.90625 196.328125 66.660156 C 196.316406 66.417969 196.503906 66.207031 196.75 66.199219 C 196.761719 66.195312 196.777344 66.195312 196.789062 66.199219 Z M 196.789062 66.199219 " fill-opacity="1" fill-rule="nonzero"/><path fill="#000000" d="M 201.695312 66.425781 L 201.984375 66.4375 C 202.09375 66.441406 202.183594 66.539062 202.175781 66.648438 C 202.171875 66.753906 202.085938 66.839844 201.984375 66.84375 L 201.695312 66.855469 C 201.574219 66.863281 201.472656 66.769531 201.46875 66.652344 C 201.464844 66.53125 201.554688 66.429688 201.675781 66.425781 C 201.679688 66.425781 201.6875 66.425781 201.695312 66.425781 Z M 201.695312 66.425781 " fill-opacity="1" fill-rule="nonzero"/><g clip-path="url(#b34cec711e)"><path fill="#000000" d="M 58.898438 68.339844 L 1.09375 66.640625 L 58.898438 64.941406 C 61.210938 64.96875 61.222656 68.308594 58.898438 68.339844 Z M 58.898438 68.339844 " fill-opacity="1" fill-rule="nonzero"/></g><path fill="#000000" d="M 133.363281 73.21875 C 134.746094 69.023438 135.585938 68.496094 142.175781 67.613281 C 152.277344 66.363281 152.273438 66.925781 142.175781 65.671875 C 135.585938 64.789062 134.753906 64.257812 133.367188 60.0625 C 131.40625 53.628906 132.285156 53.632812 130.316406 60.0625 C 128.9375 64.257812 128.097656 64.785156 121.507812 65.667969 C 111.40625 66.917969 111.40625 66.355469 121.507812 67.609375 C 128.097656 68.492188 128.929688 69.023438 130.316406 73.21875 C 132.277344 79.652344 131.394531 79.648438 133.363281 73.21875 Z M 133.363281 73.21875 " fill-opacity="1" fill-rule="nonzero"/><path fill="#000000" d="M 162.519531 65.804688 C 160.210938 65.042969 159.921875 64.582031 159.4375 60.957031 C 158.75 55.402344 159.058594 55.40625 158.367188 60.957031 C 157.886719 64.582031 157.589844 65.039062 155.285156 65.800781 C 151.746094 66.878906 151.75 66.394531 155.285156 67.476562 C 157.589844 68.238281 157.882812 68.699219 158.367188 72.324219 C 159.054688 77.878906 158.746094 77.878906 159.433594 72.324219 C 159.917969 68.699219 160.214844 68.242188 162.519531 67.480469 C 166.054688 66.402344 166.054688 66.886719 162.519531 65.804688 Z M 162.519531 65.804688 " fill-opacity="1" fill-rule="nonzero"/><path fill="#000000" d="M 108.398438 65.804688 C 106.09375 65.042969 105.800781 64.582031 105.316406 60.957031 C 104.628906 55.402344 104.9375 55.40625 104.246094 60.957031 C 103.765625 64.582031 103.46875 65.039062 101.164062 65.800781 C 97.628906 66.878906 97.628906 66.394531 101.164062 67.476562 C 103.46875 68.238281 103.761719 68.699219 104.246094 72.324219 C 104.933594 77.878906 104.625 77.878906 105.316406 72.324219 C 105.796875 68.699219 106.09375 68.242188 108.398438 67.480469 C 111.933594 66.402344 111.933594 66.886719 108.398438 65.804688 Z M 108.398438 65.804688 " fill-opacity="1" fill-rule="nonzero"/></svg>