<svg xmlns="http://www.w3.org/2000/svg" xmlns:xlink="http://www.w3.org/1999/xlink" width="2000" zoomAndPan="magnify" viewBox="0 0 1500 1499.999933" height="2000" preserveAspectRatio="xMidYMid meet" version="1.0"><defs><clipPath id="1ecf639a6c"><path d="M 25.3125 23 L 1475 23 L 1475 1204 L 25.3125 1204 Z M 25.3125 23 " clip-rule="nonzero"/></clipPath></defs><path fill="#221f1f" d="M 553.605469 391.1875 C 558.238281 397.078125 564.078125 409.894531 575.109375 413.527344 C 572.929688 415.132812 569.429688 415.359375 567.511719 417.632812 C 553.273438 409.582031 549.636719 401.738281 545.863281 391.992188 C 552.261719 387.917969 550.898438 387.734375 553.605469 391.1875 " fill-opacity="1" fill-rule="nonzero"/><path fill="#221f1f" d="M 1258.441406 1075.554688 C 1252.988281 1068.386719 1227.667969 1073.085938 1188.109375 986.78125 C 1187.570312 985.628906 1185.714844 986.457031 1186.0625 987.640625 C 1190.613281 1002.816406 1193.96875 1022.433594 1214.648438 1050.722656 C 1219.445312 1057.273438 1249.265625 1091.9375 1258.441406 1077.917969 C 1258.855469 1077.292969 1258.910156 1076.179688 1258.441406 1075.554688 " fill-opacity="1" fill-rule="nonzero"/><path fill="#221f1f" d="M 1183.511719 1004.257812 C 1174.507812 1013.945312 1158.546875 1018.851562 1142.84375 1011.554688 C 1188.164062 969.179688 1163.648438 952.605469 1181.46875 984.046875 C 1184.71875 989.800781 1187.550781 998.71875 1183.511719 1004.257812 Z M 1140.703125 1038.570312 C 1137.578125 1058.632812 1111.472656 1074.410156 1087.652344 1057.382812 C 1103.839844 1044.777344 1121.589844 1030.511719 1137.019531 1016.859375 C 1137.8125 1017.496094 1141.808594 1031.476562 1140.703125 1038.570312 Z M 1193.070312 990.136719 C 1191.652344 986.464844 1189.847656 982.949219 1187.910156 979.527344 C 1183.320312 971.46875 1180.175781 962.371094 1176.679688 953.800781 C 1170.269531 938.105469 1162.519531 922.707031 1154.953125 907.519531 C 1145.96875 889.460938 1128.5 848.738281 1107.851562 857.125 C 1104.398438 858.523438 1103.445312 862.855469 1106.8125 865.0625 C 1106.964844 865.15625 1107.089844 865.285156 1107.214844 865.421875 C 1105.566406 867.261719 1105.429688 870.355469 1107.703125 872.007812 C 1096.539062 877.050781 1096.0625 900.433594 1099.566406 913.183594 C 1078.265625 905.644531 1061.515625 919.6875 1057.011719 936.898438 C 1055.488281 942.695312 1056.832031 947.65625 1058.539062 952.753906 C 1036.21875 944.949219 1011.363281 958.949219 1019.339844 992.121094 C 1012.636719 986.117188 994.902344 980.4375 985 997.828125 C 978.40625 1009.425781 979.871094 1029.65625 987.722656 1040.605469 C 1002.625 1028.160156 1015.667969 1013.511719 1030.558594 1001.1875 C 1057.777344 978.667969 1091.25 947.679688 1118.867188 916.617188 C 1126.039062 908.546875 1135.335938 896.480469 1135.757812 884.972656 C 1138.710938 891.113281 1142.144531 897.011719 1144.984375 903.242188 C 1153.976562 922.917969 1153.945312 921.628906 1152.632812 925.164062 C 1145.480469 944.527344 1073.125 1012.984375 1050.933594 1029.085938 C 1049.722656 1029.960938 1014.957031 1056.722656 1007.054688 1064.074219 C 1012.964844 1069.296875 1011.757812 1069.371094 1013.386719 1068.121094 C 1080.839844 1015.917969 1098.984375 996.878906 1138.105469 956.726562 C 1144.652344 950.011719 1154.199219 939.007812 1157.230469 930.085938 C 1164.902344 946.769531 1164.230469 944.9375 1167.027344 951.535156 C 1171.394531 984.886719 1122.855469 1020.070312 1038.792969 1085.871094 C 1035.582031 1088.382812 1039.925781 1094.015625 1043.15625 1091.527344 C 1055.945312 1081.707031 1068.738281 1072 1081.453125 1062.179688 C 1091.03125 1083.847656 1078.105469 1102.984375 1071.632812 1104.425781 C 1075.488281 1104.546875 1078.667969 1108.421875 1081.824219 1105.644531 C 1091.582031 1097.058594 1093.632812 1079.683594 1090.863281 1067.910156 C 1119.582031 1078.449219 1143.449219 1063.960938 1146.914062 1042.101562 C 1148.074219 1034.695312 1148.597656 1027.789062 1146.097656 1021.183594 C 1168.367188 1027.328125 1202.6875 1015.15625 1193.070312 990.136719 " fill-opacity="1" fill-rule="nonzero"/><path fill="#221f1f" d="M 316.964844 1004.257812 C 325.972656 1013.945312 341.941406 1018.863281 357.632812 1011.554688 C 312.332031 969.191406 336.824219 952.613281 319.015625 984.046875 C 315.757812 989.800781 312.933594 998.71875 316.964844 1004.257812 Z M 359.78125 1038.570312 C 362.886719 1058.578125 388.972656 1074.429688 412.828125 1057.382812 C 396.683594 1044.808594 378.859375 1030.492188 363.464844 1016.859375 C 362.675781 1017.496094 358.679688 1031.476562 359.78125 1038.570312 Z M 307.414062 990.136719 C 308.832031 986.464844 310.632812 982.949219 312.574219 979.527344 C 317.160156 971.46875 320.300781 962.371094 323.800781 953.800781 C 330.210938 938.105469 337.972656 922.707031 345.527344 907.519531 C 354.511719 889.460938 371.984375 848.738281 392.632812 857.125 C 396.082031 858.523438 397.039062 862.855469 393.667969 865.0625 C 393.519531 865.15625 393.390625 865.285156 393.261719 865.421875 C 394.921875 867.261719 395.054688 870.355469 392.78125 872.007812 C 403.945312 877.050781 404.414062 900.433594 400.914062 913.183594 C 422.214844 905.644531 438.96875 919.6875 443.472656 936.898438 C 444.988281 942.695312 443.652344 947.65625 441.941406 952.753906 C 464.269531 944.949219 489.117188 958.949219 481.140625 992.121094 C 487.84375 986.117188 505.578125 980.4375 515.476562 997.828125 C 522.078125 1009.425781 520.613281 1029.65625 512.757812 1040.605469 C 497.859375 1028.160156 484.816406 1013.511719 469.917969 1001.1875 C 442.703125 978.667969 409.234375 947.679688 381.617188 916.617188 C 374.441406 908.546875 365.152344 896.480469 364.730469 884.972656 C 361.769531 891.113281 358.335938 897.011719 355.496094 903.242188 C 346.507812 922.917969 346.539062 921.628906 347.847656 925.164062 C 354.996094 944.527344 427.351562 1012.984375 449.554688 1029.085938 C 450.761719 1029.960938 485.53125 1056.722656 493.421875 1064.074219 C 487.554688 1069.253906 488.746094 1069.390625 487.097656 1068.121094 C 419.644531 1015.917969 401.492188 996.878906 362.371094 956.726562 C 355.824219 950.011719 346.285156 939.007812 343.246094 930.085938 C 335.582031 946.769531 336.25 944.9375 333.453125 951.535156 C 329.082031 984.886719 377.632812 1020.070312 461.691406 1085.871094 C 464.90625 1088.382812 460.558594 1094.015625 457.320312 1091.527344 C 444.539062 1081.707031 431.738281 1072 419.035156 1062.179688 C 409.453125 1083.847656 422.378906 1102.984375 428.839844 1104.425781 C 424.988281 1104.546875 421.816406 1108.421875 418.660156 1105.644531 C 408.902344 1097.058594 406.84375 1079.683594 409.625 1067.910156 C 380.90625 1078.449219 357.039062 1063.960938 353.570312 1042.101562 C 352.398438 1034.695312 351.882812 1027.789062 354.390625 1021.183594 C 332.121094 1027.328125 297.789062 1015.15625 307.414062 990.136719 " fill-opacity="1" fill-rule="nonzero"/><path fill="#221f1f" d="M 750.242188 1248.792969 C 792.839844 1195.289062 861.875 1147.828125 917.4375 1100.042969 C 917.777344 1099.746094 904.460938 1089.609375 903.285156 1089.082031 C 894.578125 1085.246094 875.457031 1090.921875 869.304688 1100.285156 C 860.550781 1111.214844 860.660156 1123.585938 860.660156 1123.585938 C 846.378906 1117.316406 808.960938 1122.285156 811.578125 1166.117188 C 789.933594 1156.347656 767.59375 1168.628906 774.023438 1199.308594 C 764.785156 1196.1875 755.476562 1201.460938 750.242188 1209.457031 C 745.003906 1201.460938 735.699219 1196.1875 726.460938 1199.308594 C 732.882812 1168.628906 710.542969 1156.347656 688.902344 1166.117188 C 691.519531 1122.285156 654.101562 1117.316406 639.820312 1123.585938 C 639.820312 1123.585938 639.925781 1111.214844 631.179688 1100.285156 C 625.023438 1090.921875 605.90625 1085.246094 597.199219 1089.082031 C 596.015625 1089.609375 582.699219 1099.746094 583.039062 1100.042969 C 636.886719 1146.347656 708.070312 1195.816406 750.242188 1248.792969 " fill-opacity="1" fill-rule="nonzero"/><path fill="#221f1f" d="M 570.074219 1197.523438 C 571.523438 1196.789062 570.074219 1197.523438 618.792969 1232.601562 C 607.589844 1239.535156 592.59375 1243.675781 581.988281 1233.605469 C 567.953125 1220.28125 568.792969 1208.003906 570.074219 1197.523438 Z M 918.492188 1233.605469 C 907.898438 1243.675781 892.894531 1239.535156 881.683594 1232.601562 C 930.410156 1197.523438 928.957031 1196.789062 930.410156 1197.523438 C 931.691406 1208.003906 932.527344 1220.28125 918.492188 1233.605469 Z M 628.15625 1239.726562 C 648.582031 1255.273438 640.914062 1249.574219 668.9375 1271.023438 C 665.628906 1272.746094 662.726562 1275.976562 658.730469 1277.089844 C 653.328125 1278.597656 646.53125 1279.316406 641.289062 1276.773438 C 627.691406 1270.175781 620.753906 1256.628906 628.15625 1239.726562 Z M 859.1875 1276.773438 C 853.953125 1279.316406 847.152344 1278.597656 841.746094 1277.089844 C 837.753906 1275.976562 834.855469 1272.746094 831.546875 1271.023438 C 859.566406 1249.574219 851.898438 1255.273438 872.320312 1239.726562 C 879.726562 1256.628906 872.789062 1270.175781 859.1875 1276.773438 Z M 678.617188 1278.457031 C 691.453125 1288.328125 702.039062 1296.480469 714.421875 1307.03125 C 709.863281 1312.199219 695.867188 1315.695312 686.988281 1309.9375 C 672.359375 1300.425781 676.636719 1288.035156 678.617188 1278.457031 Z M 813.496094 1309.9375 C 804.617188 1315.695312 790.613281 1312.199219 786.054688 1307.03125 C 798.441406 1296.480469 809.023438 1288.328125 821.863281 1278.457031 C 823.847656 1288.035156 828.117188 1300.425781 813.496094 1309.9375 Z M 750.242188 1343.738281 C 756.460938 1335.882812 763.542969 1327.078125 777.402344 1314.550781 C 779.054688 1318.035156 781.132812 1321.246094 782.253906 1325.007812 C 787.550781 1342.789062 760.886719 1365.78125 750.242188 1379.824219 C 739.59375 1365.78125 712.929688 1342.789062 718.226562 1325.007812 C 719.347656 1321.246094 721.429688 1318.035156 723.074219 1314.550781 C 736.933594 1327.078125 744.019531 1335.882812 750.242188 1343.738281 Z M 750.242188 1395.476562 C 765.683594 1370.8125 800.390625 1346.3125 788.664062 1320.140625 C 802.816406 1324.878906 841.367188 1319.136719 828.71875 1278.742188 C 849.164062 1298.238281 892.207031 1280.058594 881.589844 1242.035156 C 918.933594 1263.175781 942.71875 1226.105469 938 1202.097656 C 968.035156 1220.960938 1005.71875 1188.261719 981.46875 1168.375 C 990.515625 1194.386719 961.429688 1208.40625 935.8125 1191.929688 C 949.371094 1181.398438 954.847656 1175.535156 964.117188 1165.441406 C 966.101562 1163.28125 970.652344 1159.4375 969.910156 1156.207031 C 969.53125 1154.542969 965.78125 1152.828125 965.21875 1153.347656 C 959.519531 1158.527344 947.886719 1171.507812 940.214844 1177.792969 C 898.234375 1212.234375 786.605469 1287.195312 750.242188 1332.3125 C 713.875 1287.195312 602.25 1212.234375 560.261719 1177.792969 C 552.597656 1171.507812 540.960938 1158.527344 535.261719 1153.347656 C 534.699219 1152.828125 530.953125 1154.542969 530.570312 1156.207031 C 529.824219 1159.4375 534.382812 1163.28125 536.363281 1165.441406 C 545.628906 1175.535156 551.117188 1181.398438 564.667969 1191.929688 C 539.058594 1208.40625 509.960938 1194.386719 519.011719 1168.375 C 494.761719 1188.261719 532.445312 1220.960938 562.480469 1202.097656 C 557.761719 1226.105469 581.542969 1263.175781 618.890625 1242.035156 C 608.277344 1280.058594 651.308594 1298.238281 671.769531 1278.742188 C 659.113281 1319.136719 697.660156 1324.878906 711.816406 1320.140625 C 700.09375 1346.3125 734.800781 1370.8125 750.242188 1395.476562 " fill-opacity="1" fill-rule="nonzero"/><path fill="#221f1f" d="M 760.019531 1275.863281 C 796.324219 1229.855469 897.101562 1173.054688 935.183594 1137.859375 C 936.296875 1136.847656 943.765625 1129.191406 940.960938 1130.121094 C 942.769531 1129.515625 939.804688 1121.628906 938.332031 1122.84375 C 933.375 1126.921875 926.550781 1137.664062 891.605469 1162.023438 C 860.976562 1183.375 817.679688 1211.847656 776.683594 1247.585938 C 734.285156 1284.515625 766.191406 1284.527344 723.800781 1247.585938 C 682.800781 1211.847656 639.503906 1183.375 608.878906 1162.023438 C 573.925781 1137.664062 567.105469 1126.921875 562.148438 1122.84375 C 560.675781 1121.628906 557.710938 1129.515625 559.527344 1130.121094 C 556.710938 1129.191406 564.183594 1136.847656 565.292969 1137.859375 C 603.386719 1173.054688 704.152344 1229.855469 740.464844 1275.863281 C 755.019531 1294.3125 745.457031 1294.3125 760.019531 1275.863281 " fill-opacity="1" fill-rule="nonzero"/><path fill="#221f1f" d="M 750.242188 1487.777344 C 734.320312 1469.050781 746.25 1456.851562 750.242188 1450.933594 C 754.234375 1456.851562 766.164062 1469.050781 750.242188 1487.777344 Z M 752.792969 1444.652344 C 751.53125 1443.527344 748.945312 1443.527344 747.691406 1444.652344 C 739.507812 1452.011719 720.824219 1466.03125 750.242188 1500.011719 C 778.613281 1467.253906 762.382812 1453.261719 752.792969 1444.652344 " fill-opacity="1" fill-rule="nonzero"/><path fill="#221f1f" d="M 833.800781 1416.554688 C 826.960938 1406.703125 831.558594 1392.269531 830.160156 1380.34375 C 834.332031 1383.699219 838.910156 1386.707031 842.554688 1389.9375 C 863.390625 1408.386719 846.855469 1435.289062 833.800781 1416.554688 Z M 840.023438 1377.578125 C 834.257812 1373.109375 827.882812 1366.617188 820.445312 1365.324219 C 817.648438 1364.839844 820.996094 1370.644531 822.699219 1372.941406 C 824.320312 1391.296875 819.078125 1402.125 823.984375 1415.589844 C 834.609375 1444.726562 873.066406 1429.71875 856.273438 1394.398438 C 852.871094 1387.257812 846.113281 1382.28125 840.023438 1377.578125 " fill-opacity="1" fill-rule="nonzero"/><path fill="#221f1f" d="M 661.414062 1420.035156 C 648.371094 1438.785156 631.84375 1411.875 652.671875 1393.421875 C 656.320312 1390.191406 660.890625 1387.195312 665.074219 1383.835938 C 663.664062 1395.765625 668.265625 1410.199219 661.414062 1420.035156 Z M 674.777344 1368.8125 C 667.339844 1370.101562 660.96875 1376.605469 655.203125 1381.066406 C 649.113281 1385.777344 642.347656 1390.742188 638.953125 1397.882812 C 622.164062 1433.199219 660.613281 1448.210938 671.242188 1419.074219 C 674.015625 1411.480469 673.59375 1403.589844 672.816406 1395.667969 C 670.613281 1373.226562 673.714844 1377.027344 675.882812 1370.019531 C 676.101562 1369.308594 675.476562 1368.695312 674.777344 1368.8125 " fill-opacity="1" fill-rule="nonzero"/><path fill="#221f1f" d="M 925.8125 1365.484375 C 918.203125 1356.21875 921.65625 1341.464844 919.304688 1329.6875 C 923.746094 1332.695312 928.535156 1335.332031 932.433594 1338.265625 C 954.65625 1355.023438 940.28125 1383.136719 925.8125 1365.484375 Z M 928.933594 1326.136719 C 922.835938 1322.144531 915.96875 1316.160156 908.460938 1315.476562 C 907.746094 1315.402344 907.164062 1316.066406 907.441406 1316.753906 C 910.238281 1323.753906 912.949219 1319.488281 912.527344 1342.089844 C 911.414062 1400.414062 969.855469 1382.238281 946.457031 1341.632812 C 942.503906 1334.777344 935.378906 1330.351562 928.933594 1326.136719 " fill-opacity="1" fill-rule="nonzero"/><path fill="#221f1f" d="M 574.816406 1371.097656 C 560.3125 1388.773438 546 1360.601562 568.195312 1343.867188 C 572.085938 1340.933594 576.878906 1338.308594 581.3125 1335.289062 C 578.96875 1347.066406 582.421875 1361.820312 574.816406 1371.097656 Z M 592.171875 1321.078125 C 584.65625 1321.777344 577.789062 1327.757812 571.691406 1331.75 C 565.25 1335.964844 558.113281 1340.382812 554.167969 1347.234375 C 530.769531 1387.839844 589.207031 1406.015625 588.101562 1347.691406 C 587.667969 1325.089844 590.390625 1329.359375 593.179688 1322.367188 C 593.453125 1321.679688 592.878906 1321.011719 592.171875 1321.078125 " fill-opacity="1" fill-rule="nonzero"/><path fill="#221f1f" d="M 1002.011719 1304.191406 C 994.847656 1294.585938 998.96875 1280.023438 997.191406 1268.121094 C 1001.46875 1271.339844 1006.140625 1274.199219 1009.894531 1277.300781 C 1031.320312 1295.074219 1015.65625 1322.484375 1002.011719 1304.191406 Z M 1023.75 1281.320312 C 1020.414062 1275.800781 997.699219 1254.925781 986.996094 1253.417969 C 986.289062 1253.324219 985.6875 1253.960938 985.929688 1254.671875 C 988.386719 1261.777344 991.300781 1257.648438 989.828125 1280.207031 C 986.011719 1338.402344 1047.984375 1321.445312 1023.75 1281.320312 " fill-opacity="1" fill-rule="nonzero"/><path fill="#221f1f" d="M 496.773438 1310.570312 C 483.105469 1328.902344 467.503906 1301.417969 488.894531 1283.691406 C 492.648438 1280.574219 497.316406 1277.714844 501.601562 1274.503906 C 499.8125 1286.390625 503.941406 1300.953125 496.773438 1310.570312 Z M 511.789062 1259.804688 C 501.066406 1261.300781 478.363281 1282.195312 475.042969 1287.695312 C 450.796875 1327.832031 512.777344 1344.777344 508.960938 1286.582031 C 507.484375 1264.023438 510.394531 1268.152344 512.859375 1261.046875 C 513.097656 1260.347656 512.488281 1259.703125 511.789062 1259.804688 " fill-opacity="1" fill-rule="nonzero"/><path fill="#221f1f" d="M 1174.160156 1109.414062 C 1165.324219 1101.3125 1166.636719 1086.210938 1162.664062 1074.890625 C 1167.476562 1077.25 1172.589844 1079.175781 1176.859375 1081.53125 C 1201.246094 1094.96875 1190.980469 1124.835938 1174.160156 1109.414062 Z M 1191.226562 1082.875 C 1186.355469 1076.65625 1178.660156 1073.289062 1171.679688 1070.015625 C 1165.078125 1066.933594 1157.441406 1061.980469 1149.902344 1062.351562 C 1149.1875 1062.390625 1148.714844 1063.132812 1149.082031 1063.769531 C 1152.855469 1070.335938 1154.921875 1065.644531 1157.695312 1088.128906 C 1164.847656 1146.019531 1220.144531 1119.78125 1191.226562 1082.875 " fill-opacity="1" fill-rule="nonzero"/><path fill="#221f1f" d="M 323.617188 1081.53125 C 327.882812 1079.175781 333 1077.25 337.816406 1074.890625 C 333.839844 1086.203125 335.160156 1101.3125 326.320312 1109.414062 C 309.464844 1124.867188 299.277344 1094.945312 323.617188 1081.53125 Z M 336.121094 1110.621094 C 343.914062 1098.484375 341.070312 1086.976562 346.707031 1069.296875 C 348.871094 1067.429688 353.421875 1062.496094 350.574219 1062.351562 C 343.035156 1061.980469 335.398438 1066.933594 328.796875 1070.015625 C 321.820312 1073.289062 314.132812 1076.65625 309.257812 1082.875 C 285.128906 1113.664062 319.371094 1136.71875 336.121094 1110.621094 " fill-opacity="1" fill-rule="nonzero"/><path fill="#221f1f" d="M 908.339844 413.015625 C 875.945312 515.972656 784.921875 594.460938 750.242188 594.441406 C 707.617188 594.46875 599.253906 488.253906 583.507812 375.304688 C 580.871094 376.519531 578.167969 377.546875 575.402344 378.308594 C 576.011719 383.226562 577.90625 390.859375 581.25 403.503906 C 594.523438 453.675781 613.398438 487.511719 638.941406 518.363281 C 735.484375 634.992188 765.132812 634.8125 861.535156 518.363281 C 885.921875 488.910156 904.230469 456.710938 917.398438 410.1875 C 916.765625 410.402344 909.039062 412.878906 908.339844 413.015625 " fill-opacity="1" fill-rule="nonzero"/><path fill="#221f1f" d="M 1075.054688 799.925781 C 1038.261719 753.597656 978.875 752.761719 904.800781 727.148438 C 830.902344 701.585938 812.574219 646.433594 814.183594 567.460938 C 814.40625 556.003906 814.96875 571.996094 814.183594 567.460938 C 810.71875 547.5625 793.527344 587.96875 815.09375 656.8125 C 848.339844 762.890625 999.234375 744.839844 1055.679688 793.421875 C 1084.664062 818.351562 1093.421875 858.25 1112.796875 882.882812 C 1120.054688 892.128906 1106.707031 839.792969 1075.054688 799.925781 " fill-opacity="1" fill-rule="nonzero"/><path fill="#221f1f" d="M 425.429688 799.925781 C 462.222656 753.597656 521.609375 752.761719 595.679688 727.148438 C 669.578125 701.585938 687.90625 646.433594 686.300781 567.460938 C 686.070312 556.003906 685.515625 571.996094 686.300781 567.460938 C 689.765625 547.554688 706.960938 587.96875 685.382812 656.8125 C 652.144531 762.890625 501.242188 744.839844 444.796875 793.421875 C 415.824219 818.351562 407.058594 858.25 387.683594 882.882812 C 380.425781 892.128906 393.769531 839.792969 425.429688 799.925781 " fill-opacity="1" fill-rule="nonzero"/><path fill="#221f1f" d="M 1325.554688 1314.265625 C 1319.273438 1325.101562 1304.746094 1329.964844 1293.464844 1333.234375 C 1206.9375 1358.375 1150.386719 1309.625 1096.390625 1260.621094 C 1052.902344 1221.148438 946.203125 1135.140625 915.066406 1093.039062 C 894.621094 1065.386719 907.164062 1043.070312 913.894531 1019.667969 C 921.140625 994.441406 927.699219 956.257812 917.464844 932.472656 C 904.007812 901.1875 891.0625 882.089844 893.457031 861.070312 C 895.144531 855.726562 895.4375 854.070312 899.835938 863.261719 C 925.75 917.410156 931.933594 942.28125 943.351562 955.050781 C 943.914062 955.6875 945.175781 955.210938 945.089844 954.332031 C 943.9375 941.980469 939.402344 933.382812 921.402344 892.597656 C 906 857.679688 903.339844 846.34375 897.289062 845.5 C 895.449219 838.636719 890.53125 821.585938 900.203125 817.855469 C 905.324219 836.675781 917.355469 855.582031 921.539062 863.738281 C 950.238281 919.707031 948.417969 915.300781 957.050781 927.082031 C 957.742188 928.003906 959.316406 927.492188 958.992188 926.265625 C 953.53125 906.292969 941.585938 887.648438 931.636719 869.519531 C 916.804688 842.5 913.382812 831.179688 906.910156 819.074219 C 905.40625 812.390625 903.351562 803.515625 907.070312 796.132812 C 913.253906 810.238281 928.160156 839.25 935.929688 852.074219 C 979.203125 923.5625 980.136719 916.597656 977.824219 953.761719 C 973.015625 1031.230469 971.382812 1064.203125 1069.601562 1107.066406 C 1151.679688 1142.882812 1199.644531 1145.234375 1267.757812 1199.289062 C 1291.027344 1217.773438 1311.835938 1240.640625 1325.417969 1288.476562 C 1327.957031 1297.457031 1330.765625 1305.273438 1325.554688 1314.265625 Z M 929.601562 794.664062 C 932.1875 808.292969 938.128906 821.285156 942.273438 834.484375 C 944.847656 842.648438 946.976562 851.007812 949.53125 859.183594 C 942.070312 847.660156 934.625 835.320312 928.011719 823.734375 C 927.421875 817.027344 925.097656 803.539062 929.601562 794.664062 Z M 1308.421875 1228.171875 C 1305.933594 1224.507812 1300.691406 1220.035156 1299.199219 1216.003906 C 1273.199219 1145.539062 1217.972656 1056.425781 1199.742188 1014.734375 C 1197.792969 1010.304688 1194.859375 1007.542969 1192.347656 1003.570312 C 1191.617188 1002.425781 1189.839844 1002.890625 1189.816406 1004.257812 C 1189.457031 1020.007812 1242.320312 1116.027344 1242.867188 1117.085938 C 1252.988281 1136.570312 1281.21875 1193.273438 1285.679688 1201.894531 C 1206.988281 1129.625 1114.609375 1128.289062 1021.3125 1073.371094 C 1016.597656 1070.585938 1014.253906 1067.015625 1010.199219 1063.410156 C 990.929688 1046.242188 983.695312 1033.667969 984.308594 986.117188 C 984.796875 948.398438 990.25 933.734375 981.945312 914.480469 C 969.847656 886.398438 964.636719 889.195312 956.023438 859.914062 C 947.960938 832.5 950.542969 837.4375 937.640625 803.164062 C 936.03125 798.886719 932.898438 787.027344 930.175781 787.128906 C 923.128906 787.386719 919.816406 803.328125 919.773438 808.832031 C 918.214844 805.921875 911.019531 787.226562 906.996094 787.707031 C 901.308594 788.359375 896.0625 804.292969 898.953125 810.515625 C 880.027344 820.925781 891.582031 848.328125 891.007812 849.4375 C 875.574219 879.921875 902.585938 915.429688 913.902344 945.6875 C 923.554688 1067.355469 821.21875 1041.652344 1012.519531 1200.804688 C 1100.808594 1274.253906 1124.855469 1304.808594 1171.089844 1329.632812 C 1229.964844 1361.257812 1292.3125 1349.183594 1320.691406 1332.015625 C 1325.160156 1329.304688 1330.777344 1327.738281 1334.503906 1323.9375 C 1353.105469 1305.019531 1321.160156 1246.917969 1308.421875 1228.171875 " fill-opacity="1" fill-rule="nonzero"/><path fill="#221f1f" d="M 174.925781 1314.265625 C 181.207031 1325.101562 195.730469 1329.964844 207.015625 1333.234375 C 293.546875 1358.375 350.105469 1309.617188 404.085938 1260.621094 C 447.664062 1221.074219 554.28125 1135.152344 585.417969 1093.039062 C 605.863281 1065.386719 593.316406 1043.070312 586.589844 1019.667969 C 579.34375 994.441406 572.792969 956.257812 583.019531 932.472656 C 596.480469 901.1875 609.414062 882.089844 607.027344 861.070312 C 605.347656 855.726562 605.042969 854.070312 600.640625 863.261719 C 577.324219 911.945312 568.394531 942.449219 557.132812 955.050781 C 556.5625 955.6875 555.308594 955.210938 555.390625 954.332031 C 556.546875 941.980469 561.085938 933.382812 579.078125 892.597656 C 594.480469 857.679688 597.144531 846.34375 603.1875 845.5 C 605.03125 838.636719 609.949219 821.585938 600.273438 817.855469 C 595.15625 836.675781 583.140625 855.550781 578.945312 863.738281 C 550.394531 919.414062 552.328125 914.941406 543.425781 927.082031 C 542.75 928.003906 541.160156 927.492188 541.496094 926.265625 C 546.949219 906.292969 558.894531 887.648438 568.84375 869.519531 C 583.679688 842.5 587.09375 831.179688 593.566406 819.074219 C 595.074219 812.390625 597.128906 803.515625 593.40625 796.132812 C 587.222656 810.238281 572.324219 839.25 564.558594 852.074219 C 521.28125 923.5625 520.351562 916.597656 522.660156 953.761719 C 527.460938 1031.230469 529.089844 1064.203125 430.886719 1107.066406 C 348.789062 1142.890625 300.839844 1145.234375 232.730469 1199.289062 C 209.085938 1218.058594 188.582031 1240.878906 175.066406 1288.476562 C 172.519531 1297.457031 169.710938 1305.273438 174.925781 1314.265625 Z M 570.878906 794.664062 C 568.292969 808.292969 562.355469 821.285156 558.207031 834.484375 C 555.640625 842.648438 553.511719 851.007812 550.953125 859.183594 C 558.40625 847.660156 565.859375 835.320312 572.464844 823.734375 C 573.054688 817.027344 575.386719 803.539062 570.878906 794.664062 Z M 192.0625 1228.171875 C 194.550781 1224.507812 199.792969 1220.035156 201.289062 1216.003906 C 227.75 1144.269531 281.867188 1057.878906 300.738281 1014.734375 C 302.683594 1010.304688 305.628906 1007.542969 308.136719 1003.570312 C 308.859375 1002.425781 310.636719 1002.890625 310.667969 1004.257812 C 311.023438 1020.007812 258.160156 1116.027344 257.613281 1117.085938 C 247.488281 1136.570312 219.257812 1193.273438 214.800781 1201.894531 C 293.53125 1129.605469 385.882812 1128.28125 479.164062 1073.371094 C 483.886719 1070.585938 486.222656 1067.015625 490.28125 1063.410156 C 509.398438 1046.378906 516.792969 1033.914062 516.171875 986.117188 C 515.683594 948.398438 510.226562 933.734375 518.535156 914.480469 C 530.636719 886.398438 535.84375 889.195312 544.457031 859.914062 C 552.523438 832.5 549.933594 837.4375 562.84375 803.164062 C 564.453125 798.886719 567.585938 787.027344 570.304688 787.128906 C 577.351562 787.386719 580.664062 803.328125 580.707031 808.832031 C 582.269531 805.921875 589.464844 787.226562 593.484375 787.707031 C 599.179688 788.371094 604.40625 804.300781 601.53125 810.515625 C 620.488281 820.945312 608.894531 848.304688 609.476562 849.4375 C 624.910156 879.921875 597.894531 915.429688 586.578125 945.6875 C 576.925781 1067.355469 679.257812 1041.644531 487.960938 1200.804688 C 399.722656 1274.21875 375.628906 1304.808594 329.394531 1329.632812 C 269.984375 1361.546875 207.722656 1348.90625 179.789062 1332.015625 C 175.320312 1329.304688 169.703125 1327.738281 165.972656 1323.9375 C 147.371094 1305.019531 179.335938 1246.917969 192.0625 1228.171875 " fill-opacity="1" fill-rule="nonzero"/><path fill="#221f1f" d="M 942.992188 420.292969 C 911.828125 399.089844 913.710938 413.601562 911.878906 418.851562 C 918.945312 415.746094 952.769531 462.730469 930.394531 500.414062 C 912.359375 530.820312 875.183594 533.605469 864.207031 515.105469 C 862.566406 512.328125 857.480469 512.117188 856.78125 518.238281 C 855.539062 528.851562 868.246094 540.191406 876.347656 545.117188 C 886.710938 551.429688 899.597656 551.621094 911.203125 549.722656 C 963.015625 541.230469 1007.613281 464.273438 942.992188 420.292969 " fill-opacity="1" fill-rule="nonzero"/><path fill="#221f1f" d="M 643.429688 517.277344 C 643.789062 513.542969 638.332031 511.628906 636.273438 515.105469 C 630.441406 524.941406 614.890625 528.328125 604.242188 526.0625 C 582.046875 521.34375 554.757812 495.363281 564.589844 455.273438 C 568.847656 437.914062 583.28125 416.519531 588.605469 418.851562 C 586.730469 413.460938 588.132812 407.246094 576.757812 409.976562 C 567.144531 412.296875 543.710938 427.21875 533.597656 444.660156 C 508.066406 488.6875 546.535156 542.714844 589.277344 549.722656 C 600.878906 551.621094 613.769531 551.429688 624.132812 545.117188 C 637.4375 537.027344 646.269531 523.726562 643.429688 517.277344 " fill-opacity="1" fill-rule="nonzero"/><path fill="#221f1f" d="M 1427.953125 1110.941406 C 1423.925781 1103.8125 1420.640625 1099.300781 1412.863281 1096.1875 C 1399.6875 1090.902344 1368.203125 1099.128906 1356.402344 1083.167969 C 1351.496094 1076.527344 1351.453125 1068.164062 1348.847656 1060.6875 C 1347.949219 1058.136719 1345.261719 1059.414062 1344.867188 1060.738281 C 1341.371094 1069.8125 1345.703125 1091.707031 1364.492188 1098.457031 C 1384.761719 1105.726562 1398.976562 1100.253906 1414.699219 1105.484375 C 1419.160156 1106.96875 1422.527344 1110.261719 1426.785156 1112.105469 C 1427.527344 1112.421875 1428.40625 1111.742188 1427.953125 1110.941406 " fill-opacity="1" fill-rule="nonzero"/><path fill="#221f1f" d="M 749.03125 879.128906 C 758.960938 879.128906 767.007812 871.078125 767.007812 861.152344 C 767.007812 851.21875 758.960938 843.167969 749.03125 843.167969 C 739.101562 843.167969 731.050781 851.21875 731.050781 861.152344 C 731.050781 871.078125 739.101562 879.128906 749.03125 879.128906 " fill-opacity="1" fill-rule="nonzero"/><path fill="#221f1f" d="M 762.878906 790.59375 C 762.878906 773.976562 737.605469 773.851562 737.605469 790.59375 C 737.605469 807.273438 762.878906 807.296875 762.878906 790.59375 " fill-opacity="1" fill-rule="nonzero"/><path fill="#221f1f" d="M 760.960938 723.3125 C 760.960938 709.210938 739.523438 709.109375 739.523438 723.3125 C 739.523438 737.472656 760.960938 737.480469 760.960938 723.3125 " fill-opacity="1" fill-rule="nonzero"/><path fill="#221f1f" d="M 764.359375 1069.527344 C 764.359375 1088.171875 736.121094 1088.191406 736.121094 1069.527344 C 736.121094 1050.878906 764.359375 1050.859375 764.359375 1069.527344 " fill-opacity="1" fill-rule="nonzero"/><path fill="#221f1f" d="M 760.960938 1128.339844 C 760.960938 1142.4375 739.523438 1142.542969 739.523438 1128.339844 C 739.523438 1114.191406 760.960938 1114.171875 760.960938 1128.339844 " fill-opacity="1" fill-rule="nonzero"/><path fill="#221f1f" d="M 789.851562 847.890625 C 815.042969 880.957031 791.523438 929.117188 749.570312 929.117188 C 707.660156 929.117188 684.070312 880.988281 709.289062 847.890625 C 678.945312 862.792969 658.054688 893.984375 658.054688 930.058594 C 658.054688 980.585938 699.027344 1021.550781 749.570312 1021.550781 C 800.113281 1021.550781 841.082031 980.585938 841.082031 930.058594 C 841.082031 893.984375 820.191406 862.792969 789.851562 847.890625 " fill-opacity="1" fill-rule="nonzero"/><path fill="#221f1f" d="M 703.011719 853.738281 C 626.640625 900.140625 659.121094 1019.433594 749.570312 1019.433594 C 840.011719 1019.433594 872.503906 900.140625 796.121094 853.738281 C 814.820312 888.648438 789.308594 931.234375 749.570312 931.234375 C 709.824219 931.234375 684.335938 888.613281 703.011719 853.738281 Z M 749.570312 1023.667969 C 697.9375 1023.667969 655.9375 981.675781 655.9375 930.058594 C 655.9375 864.574219 721.34375 835.585938 710.972656 849.175781 C 686.730469 880.988281 709.59375 926.996094 749.570312 926.996094 C 789.585938 926.996094 812.382812 880.96875 788.167969 849.175781 C 778.230469 836.132812 843.199219 864.246094 843.199219 930.058594 C 843.199219 981.675781 801.199219 1023.667969 749.570312 1023.667969 " fill-opacity="1" fill-rule="nonzero"/><path fill="#221f1f" d="M 753.628906 223.734375 C 758.226562 209.40625 748.539062 202.765625 766.578125 172.683594 C 767.136719 171.753906 766.046875 170.734375 765.132812 171.234375 C 758.578125 174.875 753.621094 179.539062 750.242188 185.5625 C 746.863281 179.539062 741.902344 174.875 735.347656 171.234375 C 734.433594 170.734375 733.34375 171.753906 733.898438 172.683594 C 751.945312 202.765625 742.246094 209.40625 746.855469 223.734375 C 747.84375 226.804688 752.625 226.839844 753.628906 223.734375 " fill-opacity="1" fill-rule="nonzero"/><path fill="#221f1f" d="M 742.882812 196.058594 C 737.605469 191.652344 729.402344 189.324219 722.585938 190.191406 C 700.847656 192.96875 682.550781 214.6875 671.34375 233.605469 C 673.554688 238.285156 674.390625 243.6875 674.324219 249.277344 C 689.992188 212.761719 729.597656 176.890625 747.941406 217.898438 C 748.335938 218.789062 749.523438 218.238281 749.59375 217.457031 C 750.347656 208.71875 749.945312 201.957031 742.882812 196.058594 " fill-opacity="1" fill-rule="nonzero"/><g clip-path="url(#1ecf639a6c)"><path fill="#221f1f" d="M 1384.050781 917.601562 C 1388.777344 897.269531 1389.273438 875.992188 1381.890625 847.648438 C 1363.183594 775.863281 1283.570312 745.859375 1246.386719 719.0625 C 1192.148438 679.972656 1195.84375 626.433594 1199.617188 559.796875 C 1206.246094 528.179688 1198.84375 538.5625 1215.472656 587.027344 C 1245.632812 674.867188 1284.585938 703.496094 1334.484375 731.574219 C 1390.535156 763.109375 1450.316406 795.140625 1433.703125 864.710938 C 1426.445312 895.117188 1417.847656 898.15625 1414.179688 945.585938 C 1411.703125 977.800781 1415.429688 1022.304688 1441.703125 1044.015625 C 1397.210938 1019.253906 1384.371094 968.714844 1384.050781 917.601562 Z M 1427.03125 1073.683594 C 1444.507812 1093.65625 1441.417969 1115.375 1435.960938 1123.238281 C 1432.339844 1128.4375 1436.652344 1122.664062 1429.414062 1104.226562 C 1413.195312 1062.878906 1366.109375 1054.339844 1363.820312 1005.867188 C 1362.558594 978.921875 1373.375 960.019531 1374.910156 945.796875 C 1377.726562 938.847656 1376.703125 939.257812 1377.101562 947.46875 C 1377.84375 962.445312 1380.925781 977.144531 1386.160156 991.136719 C 1384.308594 1055.441406 1412.539062 1057.136719 1427.03125 1073.683594 Z M 1313.785156 1046.261719 C 1308.453125 1058.460938 1305.179688 1071.152344 1300.625 1083.542969 C 1284.660156 1076.792969 1284.9375 1048.613281 1286.941406 1034.644531 C 1293.527344 988.527344 1332.332031 950.496094 1339.515625 914.253906 C 1345.660156 883.222656 1331.378906 849.140625 1311.835938 825.542969 C 1279.28125 786.273438 1227.550781 779.105469 1180.875 734.003906 C 1164.570312 714.464844 1168.691406 688.859375 1188.449219 607.953125 C 1185.8125 719.519531 1255.378906 731.222656 1306.613281 767.367188 C 1353.765625 800.644531 1379.167969 834.738281 1377.789062 892.9375 C 1376.582031 943.496094 1336.8125 993.59375 1313.785156 1046.261719 Z M 1337.820312 1097.59375 C 1339.101562 1143.191406 1357.578125 1183.148438 1373.550781 1194.554688 C 1374.761719 1195.414062 1349.664062 1196.367188 1334.035156 1184.1875 C 1316.921875 1170.84375 1311.742188 1151.589844 1306.804688 1131.59375 C 1297.058594 1092.128906 1329.824219 1033.550781 1348.339844 999.511719 C 1346.007812 1011.386719 1336.976562 1067.15625 1337.820312 1097.59375 Z M 1296.695312 1114.148438 C 1287.492188 1108.449219 1279.058594 1102.667969 1272.4375 1093.125 C 1241.566406 1048.601562 1263.613281 968.269531 1270.476562 933.09375 C 1287.207031 847.46875 1252.667969 804.964844 1197.199219 762.507812 C 1162.558594 736 1142.554688 732.28125 1138.382812 684.640625 C 1157.683594 753.550781 1249.355469 787.054688 1284.246094 812.867188 C 1311.550781 833.066406 1329.410156 864.742188 1331.347656 898.761719 C 1333.988281 944.9375 1266.792969 993.835938 1277.375 1060.640625 C 1279.789062 1075.84375 1287.066406 1086.8125 1298.425781 1096.019531 C 1297.46875 1102 1296.875 1108.050781 1296.695312 1114.148438 Z M 1236.960938 952.59375 C 1203.398438 912.890625 1248.328125 840.417969 1218.15625 792.226562 C 1282.097656 851.734375 1267.574219 900.773438 1256.207031 955.804688 C 1248.367188 959.566406 1241.183594 957.617188 1236.960938 952.59375 Z M 1252.117188 1071.328125 C 1242.808594 1059.195312 1241.238281 1062.730469 1231.140625 1011.46875 C 1228.21875 996.660156 1218.832031 960.527344 1209.5625 942.777344 C 1213.300781 943.605469 1217.242188 943.761719 1221.058594 943.605469 C 1227.699219 960.019531 1236.566406 967.8125 1253.15625 970.652344 C 1241.558594 1029.683594 1249.640625 1068.101562 1252.117188 1071.328125 Z M 1177.453125 852.890625 C 1178.703125 825.324219 1194.085938 789.527344 1174.859375 756.578125 C 1179.222656 760.460938 1186.933594 766.542969 1191.5 770.136719 C 1197.527344 782.410156 1201.117188 783.59375 1206.320312 790.605469 C 1238.441406 833.859375 1201.714844 885.746094 1219.140625 938.371094 C 1190.464844 931.042969 1175.992188 884.953125 1177.453125 852.890625 Z M 1173.777344 813.796875 C 1159.382812 772.640625 1126.828125 753.359375 1084.429688 744.789062 C 1048.847656 737.597656 990.832031 747.332031 962.347656 689.695312 C 949.359375 663.40625 958.175781 636.582031 966.238281 605.371094 C 967.65625 630.640625 977.613281 651.707031 1004.382812 672.25 C 1017.859375 682.589844 1033.730469 687.597656 1049.820312 692.246094 C 1091.433594 704.289062 1079.644531 703.992188 1151.519531 743.761719 C 1170.097656 760.496094 1178.183594 777.761719 1173.777344 813.796875 Z M 986.449219 540.71875 C 999.660156 503.96875 1003.273438 488.273438 993.535156 451.386719 C 990.199219 438.910156 988.734375 427.027344 982.804688 415.460938 C 1027.171875 446.335938 1053.347656 484.898438 1049.585938 539.460938 C 1048.855469 550.230469 1048.03125 548.582031 1042.171875 566.839844 C 1028.875 608.21875 1038.089844 655.0625 1082.128906 693.039062 C 1047.671875 678.183594 1016.089844 681.507812 988.335938 642.488281 C 967.507812 613.207031 975.113281 572.253906 986.449219 540.71875 Z M 860.148438 299.070312 C 844.980469 271.722656 840.328125 208.007812 810.0625 179.566406 C 790.632812 161.3125 769.289062 162.234375 765.316406 167.117188 C 777.03125 152.75 797.023438 154.808594 812.078125 163.535156 C 849.269531 185.097656 856.082031 248.632812 891.367188 296.367188 C 937.164062 358.304688 1003.472656 369.730469 1037.34375 403.328125 C 1065.53125 431.308594 1069.015625 481.648438 1057.925781 520.25 C 1058.78125 466.414062 1025.203125 433.457031 981.480469 402.964844 C 956.269531 385.386719 895.292969 362.410156 860.148438 299.070312 Z M 877.691406 368.785156 C 852.394531 357.808594 853.074219 329.050781 851.601562 304.511719 C 868.972656 334.058594 891.59375 356.417969 921.425781 377.257812 C 907.070312 375.140625 891.328125 374.707031 877.691406 368.785156 Z M 750.242188 176.6875 C 743.375 164.828125 735.351562 143.304688 703.730469 148.058594 C 664.152344 154.003906 645.132812 200.402344 628.496094 241.539062 C 573.75 376.921875 456.335938 345.742188 431.820312 440.890625 C 419.914062 487.097656 431.328125 520.09375 439.730469 543.054688 C 457.558594 591.8125 457.1875 590.203125 448.6875 641.675781 C 436.296875 668.300781 410.988281 689.257812 387.128906 705.292969 C 380.597656 709.679688 384.859375 707.203125 393.058594 698.019531 C 490.789062 588.601562 352.199219 473.996094 420.261719 363.082031 C 426.972656 352.140625 435.078125 338.253906 473.851562 320.027344 C 542.875 287.589844 568.730469 282.070312 621.375 187.863281 C 634.847656 163.746094 662.996094 89.957031 718.378906 113.292969 C 736.246094 120.8125 748.128906 146.578125 750.242188 147.066406 C 752.347656 146.578125 764.234375 120.8125 782.105469 113.292969 C 797.742188 106.707031 814.585938 108.105469 828.761719 116.882812 C 853.402344 132.152344 865.5625 163.605469 879.113281 187.863281 C 931.753906 282.070312 957.601562 287.589844 1026.628906 320.027344 C 1065.402344 338.253906 1073.507812 352.140625 1080.222656 363.082031 C 1148.277344 473.996094 1009.691406 588.601562 1107.417969 698.019531 C 1115.617188 707.203125 1119.886719 709.679688 1113.351562 705.292969 C 1089.492188 689.257812 1064.1875 668.300781 1051.789062 641.675781 C 1043.292969 590.203125 1042.925781 591.8125 1060.753906 543.054688 C 1069.152344 520.09375 1080.5625 487.097656 1068.664062 440.890625 C 1044.152344 345.742188 926.734375 376.921875 871.984375 241.539062 C 855.351562 200.402344 836.328125 154.003906 796.757812 148.058594 C 765.125 143.304688 757.105469 164.828125 750.242188 176.6875 Z M 668.734375 217.042969 C 666.265625 229.96875 669.359375 235.054688 668.578125 278.203125 C 667.800781 321.222656 636.382812 352.457031 602.015625 365.996094 C 578.082031 375.417969 563.742188 371.753906 519.003906 402.964844 C 475.285156 433.457031 441.703125 466.414062 442.558594 520.25 C 431.464844 481.648438 434.949219 431.308594 463.140625 403.328125 C 497.003906 369.730469 563.316406 358.304688 609.113281 296.367188 C 644.402344 248.632812 651.210938 185.097656 688.402344 163.535156 C 703.464844 154.808594 723.457031 152.75 735.167969 167.117188 C 724.316406 153.800781 676.566406 176.0625 668.734375 217.042969 Z M 501.46875 489.652344 C 502.085938 507.625 508.011719 523.976562 514.035156 540.71875 C 525.371094 572.253906 532.972656 613.207031 512.148438 642.488281 C 484.394531 681.507812 452.8125 678.183594 418.355469 693.039062 C 462.382812 655.0625 471.601562 608.21875 458.3125 566.839844 C 452.449219 548.582031 451.628906 550.230469 450.890625 539.460938 C 446.703125 478.648438 479.695312 437.695312 533.621094 405.128906 C 511.335938 431.191406 500.589844 463.925781 501.46875 489.652344 Z M 538.128906 689.695312 C 509.652344 747.332031 451.632812 737.597656 416.058594 744.789062 C 373.660156 753.359375 341.097656 772.640625 326.707031 813.796875 C 322.296875 777.761719 330.382812 760.496094 348.964844 743.761719 C 420.84375 703.992188 409.050781 704.289062 450.664062 692.246094 C 466.757812 687.597656 482.628906 682.589844 496.09375 672.25 C 522.867188 651.707031 532.820312 630.640625 534.246094 605.371094 C 542.308594 636.582031 551.117188 663.40625 538.128906 689.695312 Z M 281.34375 938.371094 C 298.765625 885.746094 262.039062 833.859375 294.15625 790.605469 C 299.359375 783.59375 302.957031 782.410156 308.980469 770.136719 C 313.546875 766.542969 321.265625 760.460938 325.628906 756.578125 C 306.386719 789.527344 321.78125 825.324219 323.03125 852.890625 C 324.484375 884.953125 310.019531 931.042969 281.34375 938.371094 Z M 269.34375 1011.46875 C 259.246094 1062.730469 257.675781 1059.195312 248.371094 1071.328125 C 250.847656 1068.101562 258.929688 1029.683594 247.328125 970.652344 C 263.914062 967.8125 272.785156 960.019531 279.425781 943.605469 C 283.238281 943.761719 287.183594 943.605469 290.914062 942.777344 C 281.65625 960.527344 272.261719 996.660156 269.34375 1011.46875 Z M 282.328125 792.226562 C 252.152344 840.417969 297.085938 912.890625 263.527344 952.59375 C 259.292969 957.617188 252.117188 959.566406 244.277344 955.804688 C 232.910156 900.773438 218.382812 851.734375 282.328125 792.226562 Z M 228.042969 1093.125 C 221.429688 1102.667969 212.984375 1108.449219 203.789062 1114.148438 C 203.605469 1108.050781 203.011719 1102 202.066406 1096.019531 C 213.414062 1086.8125 220.699219 1075.84375 223.109375 1060.640625 C 233.6875 993.835938 166.492188 944.9375 169.128906 898.761719 C 171.070312 864.742188 188.929688 833.066406 216.226562 812.867188 C 251.128906 787.054688 342.792969 753.550781 362.097656 684.640625 C 357.925781 732.28125 337.925781 736 303.285156 762.507812 C 247.8125 804.964844 213.285156 847.46875 230.007812 933.09375 C 236.875 968.269531 258.917969 1048.601562 228.042969 1093.125 Z M 168.441406 1009.511719 C 148.632812 972.695312 123.632812 932.546875 122.695312 892.9375 C 121.316406 834.738281 146.714844 800.644531 193.863281 767.367188 C 245.101562 731.222656 314.667969 719.519531 312.027344 607.953125 C 331.792969 688.859375 335.910156 714.464844 319.601562 734.003906 C 272.929688 779.105469 221.199219 786.273438 188.652344 825.542969 C 169.097656 849.140625 154.824219 883.222656 160.96875 914.253906 C 168.148438 950.507812 206.953125 988.539062 213.542969 1034.644531 C 215.539062 1048.613281 215.820312 1076.792969 199.851562 1083.542969 C 191.117188 1059.765625 192.996094 1055.15625 168.441406 1009.511719 Z M 193.679688 1131.59375 C 188.746094 1151.589844 183.566406 1170.84375 166.4375 1184.1875 C 150.816406 1196.367188 125.714844 1195.414062 126.925781 1194.554688 C 142.902344 1183.148438 161.382812 1143.191406 162.65625 1097.59375 C 163.511719 1067.15625 154.472656 1011.386719 152.136719 999.511719 C 170.359375 1032.988281 203.46875 1091.953125 193.679688 1131.59375 Z M 79.003906 1110.984375 C 87.710938 1083.5625 110.019531 1073.382812 126.71875 1054.109375 C 151.1875 1025.863281 144.382812 995.996094 146.921875 1020.726562 C 148.328125 1034.496094 150.972656 1051.410156 152.296875 1069.8125 C 142.023438 1099.875 95.964844 1094.820312 79.003906 1110.984375 Z M 71.0625 1104.226562 C 63.832031 1122.664062 68.144531 1128.4375 64.523438 1123.238281 C 59.0625 1115.375 55.972656 1093.65625 73.457031 1073.683594 C 87.945312 1057.136719 116.171875 1055.441406 114.324219 991.136719 C 119.554688 977.144531 122.636719 962.445312 123.375 947.46875 C 123.785156 939.257812 122.757812 938.847656 125.574219 945.796875 C 127.113281 960.019531 137.929688 978.921875 136.65625 1005.867188 C 134.382812 1054.339844 87.28125 1062.878906 71.0625 1104.226562 Z M 58.78125 1044.015625 C 85.054688 1022.304688 88.78125 977.800781 86.296875 945.585938 C 82.636719 898.15625 74.035156 895.117188 66.777344 864.710938 C 50.164062 795.140625 109.945312 763.109375 166 731.574219 C 215.894531 703.496094 254.851562 674.867188 285.003906 587.027344 C 301.636719 538.5625 294.238281 528.179688 300.867188 559.796875 C 304.632812 626.433594 308.332031 679.972656 254.089844 719.0625 C 216.910156 745.859375 137.300781 775.863281 118.585938 847.648438 C 111.203125 875.992188 111.699219 897.269531 116.429688 917.601562 C 116.113281 968.714844 103.273438 1019.253906 58.78125 1044.015625 Z M 104.640625 717.433594 C 152.152344 674.476562 160.40625 679.175781 197.8125 659.722656 C 228.347656 643.835938 257.066406 620.945312 273.539062 590.722656 C 230.269531 709.054688 169.035156 710.644531 107.453125 755.527344 C 90.9375 767.558594 74.957031 782.089844 65.027344 799.96875 C 65.726562 762.558594 80.296875 739.449219 104.640625 717.433594 Z M 377.957031 480.160156 C 378.789062 447.191406 384.511719 413.714844 400.769531 384.726562 C 357.953125 487.175781 479.0625 603.113281 378.628906 699.195312 C 362.765625 714.371094 366.355469 710.367188 367.867188 705.558594 C 373.195312 688.605469 372.546875 669.277344 373.679688 651.671875 C 383.238281 503.652344 376.589844 534.738281 377.957031 480.160156 Z M 1126.804688 651.671875 C 1127.941406 669.277344 1127.292969 688.605469 1132.621094 705.558594 C 1134.125 710.367188 1137.71875 714.371094 1121.855469 699.195312 C 1021.417969 603.113281 1142.527344 487.175781 1099.71875 384.726562 C 1115.96875 413.714844 1121.6875 447.191406 1122.527344 480.160156 C 1123.890625 534.738281 1117.238281 503.652344 1126.804688 651.671875 Z M 324.886719 402.976562 C 366.398438 334.09375 433.699219 323.054688 482.675781 289.210938 C 550.980469 242.003906 570.824219 180.554688 611.25 127.34375 C 657.777344 66.121094 706.792969 63.460938 726.542969 74.214844 C 739.519531 81.289062 744.871094 94.28125 750.242188 107.167969 C 755.613281 94.28125 760.972656 81.289062 773.941406 74.214844 C 793.6875 63.460938 842.703125 66.121094 889.230469 127.34375 C 929.65625 180.554688 949.496094 242.003906 1017.804688 289.210938 C 1066.78125 323.054688 1134.082031 334.09375 1175.589844 402.976562 C 1197.347656 439.070312 1201.617188 470.152344 1198.746094 505.234375 C 1193.96875 563.585938 1157.1875 673.492188 1161.5625 711.832031 C 1111.527344 642.175781 1146.222656 490.828125 1121.964844 412.507812 C 1095.730469 327.8125 1027.808594 311.609375 986.828125 290.921875 C 954.710938 274.695312 934.054688 256.671875 910.769531 221.976562 C 873.984375 167.175781 853.71875 90.902344 792.847656 100.160156 C 776.726562 102.613281 760.625 112.457031 750.242188 128.648438 C 739.863281 112.457031 723.757812 102.613281 707.628906 100.160156 C 646.765625 90.902344 626.496094 167.175781 589.714844 221.976562 C 566.425781 256.671875 545.773438 274.695312 513.648438 290.921875 C 472.675781 311.609375 404.753906 327.8125 378.519531 412.507812 C 354.257812 490.828125 388.957031 642.175781 338.914062 711.832031 C 343.296875 673.492188 306.515625 563.585938 301.738281 505.234375 C 298.867188 470.152344 303.136719 439.070312 324.886719 402.976562 Z M 318.03125 385.875 C 339.472656 258.0625 483.933594 270.195312 533.246094 190.492188 C 516 249.40625 507.835938 266.902344 449.417969 298.113281 C 425.042969 311.140625 396.21875 320.820312 364 345.5 C 318.054688 380.679688 312.992188 415.929688 318.03125 385.875 Z M 601.867188 71.667969 C 676.277344 0.0234375 739.148438 43.929688 748.277344 86.027344 C 730.046875 48.105469 654.769531 40.742188 587.964844 144.460938 C 568.710938 174.347656 551.347656 205.804688 529.015625 233.582031 C 550.15625 179.019531 556.324219 115.519531 601.867188 71.667969 Z M 898.613281 71.667969 C 944.160156 115.519531 950.324219 179.019531 971.46875 233.582031 C 949.136719 205.804688 931.773438 174.347656 912.515625 144.460938 C 845.71875 40.742188 770.429688 48.105469 752.203125 86.027344 C 761.332031 43.929688 824.207031 0.0234375 898.613281 71.667969 Z M 1182.453125 385.875 C 1187.484375 415.929688 1182.421875 380.679688 1136.476562 345.5 C 1104.261719 320.820312 1075.433594 311.140625 1051.070312 298.113281 C 992.644531 266.902344 984.476562 249.40625 967.230469 190.492188 C 1016.542969 270.195312 1161.011719 258.0625 1182.453125 385.875 Z M 1302.667969 659.722656 C 1340.078125 679.175781 1348.332031 674.476562 1395.84375 717.433594 C 1420.183594 739.449219 1434.75 762.558594 1435.453125 799.96875 C 1425.527344 782.089844 1409.542969 767.558594 1393.027344 755.527344 C 1331.441406 710.644531 1270.210938 709.054688 1226.9375 590.722656 C 1243.417969 620.945312 1272.128906 643.835938 1302.667969 659.722656 Z M 1474.597656 1053.464844 C 1471.15625 1053.304688 1467.976562 1052.160156 1464.976562 1050.507812 C 1419.289062 1025.386719 1419.636719 966.375 1426.59375 921.785156 C 1431.621094 889.617188 1454.753906 860.8125 1442.878906 817.929688 C 1454.171875 748.179688 1407.921875 714.507812 1382.9375 693.886719 C 1327.40625 648.0625 1262.140625 654.117188 1221.851562 562.296875 C 1212.433594 540.816406 1207.996094 515.300781 1207.65625 511.746094 C 1213.546875 454.300781 1198.703125 443.261719 1193.4375 397.246094 C 1178.429688 265.972656 1053.867188 259.617188 994.996094 209.023438 C 978.71875 195.03125 970.398438 176.898438 953.585938 146.375 C 946.542969 125.820312 938.015625 105.835938 925.289062 88 C 894.0625 44.207031 826.558594 0.5 775.019531 38.074219 C 765.546875 44.980469 755.082031 55.929688 750.242188 68.078125 C 745.40625 55.929688 734.933594 44.980469 725.460938 38.074219 C 673.929688 0.5 606.425781 44.207031 575.191406 88 C 562.46875 105.835938 553.933594 125.820312 546.890625 146.375 C 530.085938 176.898438 521.765625 195.03125 505.480469 209.023438 C 446.613281 259.617188 322.054688 265.972656 307.046875 397.246094 C 301.777344 443.261719 286.9375 454.300781 292.828125 511.746094 C 292.488281 515.300781 288.050781 540.816406 278.628906 562.296875 C 238.339844 654.117188 173.074219 648.0625 117.542969 693.886719 C 92.5625 714.507812 46.308594 748.179688 57.601562 817.929688 C 45.726562 860.8125 68.867188 889.617188 73.882812 921.785156 C 80.835938 966.375 81.1875 1025.386719 35.503906 1050.507812 C 32.503906 1052.160156 29.328125 1053.304688 25.882812 1053.464844 C 49.351562 1076.699219 102.578125 1023.5 104.996094 1010.9375 C 96.132812 1057.011719 83.464844 1045.550781 61.910156 1072.746094 C 56.769531 1079.242188 42.273438 1104.117188 54.6875 1126.742188 C 58.316406 1133.359375 72.570312 1141.371094 72.460938 1160.359375 C 76.289062 1149.746094 75.027344 1138.148438 75.882812 1126.984375 C 83.085938 1118.796875 85.496094 1115.664062 97.132812 1111.207031 C 120.730469 1102.171875 141.398438 1101.21875 153.015625 1084.632812 C 153.535156 1106.726562 151.386719 1130.214844 142.570312 1152.53125 C 136.5625 1167.738281 125.921875 1193.179688 105.945312 1192.394531 C 107.898438 1192.472656 111.972656 1196.832031 113.675781 1197.9375 C 124.734375 1205.148438 126.65625 1202.171875 132.609375 1202.171875 C 137.308594 1202.179688 141.601562 1203.570312 146.433594 1202.902344 C 178.960938 1198.464844 201.914062 1163.375 203.714844 1124.167969 C 221.175781 1119.074219 235.585938 1102.742188 243.085938 1085.542969 C 278.382812 1070.101562 273.007812 1022.242188 287.800781 972.242188 C 292.164062 957.476562 300.808594 944.175781 301.992188 937.277344 C 314.933594 929.292969 339.300781 893.242188 330.835938 839.429688 C 331.078125 824.421875 339.820312 804.460938 349.460938 791.570312 C 361.882812 774.996094 380.359375 764.804688 399.878906 758.695312 C 394.277344 763.089844 389.550781 768.609375 385.25 775.152344 C 349.566406 829.507812 354.304688 865.453125 352.046875 884.261719 C 351.566406 888.246094 349.691406 905.835938 350.519531 907.554688 C 352.265625 900.941406 356.445312 894.722656 359.3125 888.339844 C 361.269531 883.488281 361.089844 883.699219 361.515625 883.011719 C 362.125 876.902344 362.949219 836.316406 374.535156 819.554688 C 401.699219 780.238281 469.867188 791.886719 480.699219 766.789062 C 434.117188 781.730469 407.710938 780.035156 382.636719 797.976562 C 399.757812 766.320312 410.878906 760.550781 416.347656 754.511719 C 459.734375 745.75 485.375 755.242188 520.605469 726.265625 C 541.054688 734.527344 599.960938 707.878906 635.414062 653.21875 C 616.222656 711.308594 592.742188 725.871094 578.6875 736.816406 C 573.457031 740.882812 622.5625 745.097656 650.382812 630.417969 C 654.644531 612.847656 657.851562 610.089844 661.308594 592.871094 C 664.082031 579.019531 668.816406 541.636719 657.621094 531.214844 C 656.292969 529.984375 649.996094 526.585938 650.859375 528.179688 C 667.585938 559.152344 648.226562 649.9375 582 696.1875 C 613.996094 650.816406 611.359375 581.773438 604.648438 548.507812 C 605.1875 515.769531 603.777344 507.8125 605.140625 490.882812 C 605.933594 481.03125 608.742188 470.714844 607.988281 460.867188 C 607.738281 457.675781 602.65625 456.492188 602.050781 460.058594 C 599.589844 474.550781 594.421875 487.949219 596.347656 520.621094 C 598.039062 549.375 598.886719 540.480469 597.546875 546.707031 C 594.738281 559.816406 605.804688 609.066406 592.386719 652.828125 C 584.164062 679.609375 568.601562 707.691406 542.066406 716.140625 C 563.570312 696.792969 568.351562 649.617188 570.261719 634.613281 C 575.5625 593.007812 560.929688 530.808594 548.832031 519.179688 C 547.75 518.132812 545.828125 519.15625 546.273438 520.664062 C 561.128906 570.410156 569.894531 632.683594 551.664062 681.382812 C 558.726562 656.839844 551.191406 636.785156 545.925781 614.011719 C 529.691406 543.753906 511.867188 518.171875 511.785156 474.574219 C 516.125 436.273438 534.203125 419.792969 547.359375 397.136719 C 552.210938 394.394531 556.84375 391.644531 561.300781 388.890625 C 581.808594 381.421875 592.378906 380.054688 606.617188 374.441406 C 638.671875 361.808594 670.558594 330.597656 676.609375 296.121094 C 681.003906 271.105469 673.816406 242.238281 684.886719 202 C 696.96875 182.070312 713.800781 172.011719 724.101562 171.53125 C 729.871094 171.265625 735.269531 173.34375 740.722656 175.214844 C 744.382812 176.476562 744.421875 186.453125 750.242188 186.464844 C 756.054688 186.453125 756.101562 176.476562 759.753906 175.214844 C 765.207031 173.34375 770.601562 171.265625 776.378906 171.53125 C 793.886719 172.335938 809.015625 190.339844 816.898438 204.191406 C 822.171875 213.484375 829.429688 224.964844 831.84375 235.339844 C 842.589844 281.316406 842.078125 304.796875 842.710938 318.449219 C 846.773438 404.9375 913.171875 372.125 953.542969 397.851562 C 965.421875 418.027344 966.203125 408.503906 936.519531 405.011719 C 899.664062 400.679688 877.609375 427.800781 841.21875 407.511719 C 808.03125 389.003906 815.792969 346.292969 819.3125 314.996094 C 823.132812 280.914062 837.945312 214.085938 795.804688 195.425781 C 776.4375 186.84375 764.890625 189.960938 757.601562 196.058594 C 750.539062 201.957031 750.132812 208.71875 750.886719 217.457031 C 750.953125 218.238281 752.148438 218.789062 752.542969 217.898438 C 754.878906 212.675781 757.351562 208.515625 761.363281 205.039062 C 769.804688 199.523438 781.492188 200.191406 785.953125 202.195312 C 790.910156 204.414062 795.496094 207.6875 799.703125 211.511719 C 791.25 211.300781 774.914062 218.195312 779.332031 228.066406 C 780.019531 229.625 782.191406 229.921875 783.535156 229.167969 C 788.867188 226.179688 795.390625 212.414062 811.417969 227.585938 C 831.640625 286.78125 763.664062 404.394531 858.234375 423.878906 C 892.15625 430.871094 919.972656 399.535156 963.003906 422.113281 C 968.207031 424.835938 972.359375 428.660156 975.929688 433.085938 C 1005.929688 488.984375 975.273438 524.351562 954.550781 614.011719 C 949.285156 636.785156 941.753906 656.839844 948.820312 681.382812 C 930.585938 632.683594 939.351562 570.410156 954.210938 520.664062 C 954.65625 519.15625 952.730469 518.132812 951.648438 519.179688 C 939.550781 530.808594 924.921875 593.007812 930.21875 634.613281 C 932.132812 649.617188 936.914062 696.792969 958.417969 716.140625 C 931.882812 707.691406 916.316406 679.609375 908.097656 652.828125 C 885.445312 578.988281 928.777344 468.53125 904.273438 442.894531 C 903.394531 441.972656 901.574219 442.363281 901.308594 443.675781 C 899.476562 452.785156 901.742188 462.699219 902.144531 471.890625 C 903.074219 493.339844 898.566406 522.105469 897.757812 544.652344 C 893.636719 546.886719 878.613281 639.652344 918.476562 696.1875 C 852.257812 649.9375 832.90625 559.152344 849.617188 528.179688 C 850.488281 526.585938 844.183594 529.984375 842.859375 531.214844 C 831.664062 541.636719 836.398438 579.019531 839.175781 592.871094 C 842.628906 610.089844 845.835938 612.847656 850.097656 630.417969 C 877.914062 745.097656 927.027344 740.882812 921.796875 736.816406 C 907.738281 725.871094 884.261719 711.308594 865.066406 653.21875 C 900.523438 707.878906 959.425781 734.527344 979.878906 726.265625 C 1015.105469 755.242188 1040.738281 745.75 1084.132812 754.511719 C 1089.613281 760.550781 1100.722656 766.320312 1117.84375 797.976562 C 1092.757812 780.027344 1067.921875 782.195312 1019.777344 766.789062 C 1030.613281 791.886719 1098.785156 780.238281 1125.945312 819.554688 C 1138.371094 837.546875 1137.855469 879.738281 1139.496094 884.058594 C 1143.425781 894.503906 1147.917969 899.800781 1149.964844 907.554688 C 1150.839844 905.71875 1148.796875 887.269531 1148.4375 884.261719 C 1146.179688 865.453125 1150.914062 829.507812 1115.234375 775.152344 C 1110.9375 768.609375 1106.203125 763.089844 1100.605469 758.695312 C 1120.117188 764.804688 1138.609375 774.996094 1151.023438 791.570312 C 1160.664062 804.460938 1169.402344 824.421875 1169.644531 839.429688 C 1161.179688 893.242188 1185.546875 929.292969 1198.492188 937.277344 C 1199.679688 944.175781 1208.3125 957.476562 1212.675781 972.242188 C 1227.476562 1022.242188 1222.109375 1070.101562 1257.394531 1085.542969 C 1264.890625 1102.742188 1279.3125 1119.074219 1296.769531 1124.167969 C 1298.574219 1163.375 1321.519531 1198.464844 1354.050781 1202.902344 C 1358.882812 1203.570312 1363.167969 1202.179688 1367.867188 1202.171875 C 1373.816406 1202.171875 1375.746094 1205.148438 1386.808594 1197.9375 C 1388.511719 1196.832031 1392.59375 1192.472656 1394.542969 1192.394531 C 1374.558594 1193.179688 1363.921875 1167.738281 1357.917969 1152.53125 C 1339.476562 1105.878906 1350.152344 1054.054688 1353.566406 1020.726562 C 1356.09375 995.996094 1349.292969 1025.863281 1373.761719 1054.109375 C 1392.347656 1075.566406 1418.300781 1086.039062 1423.96875 1121.476562 C 1426.023438 1134.28125 1423.554688 1147.988281 1428.015625 1160.359375 C 1427.910156 1141.355469 1442.160156 1133.371094 1445.792969 1126.742188 C 1458.207031 1104.117188 1443.714844 1079.242188 1438.566406 1072.746094 C 1417.019531 1045.550781 1404.347656 1057.011719 1395.480469 1010.9375 C 1397.890625 1023.449219 1451.078125 1076.753906 1474.597656 1053.464844 " fill-opacity="1" fill-rule="nonzero"/></g><path fill="#221f1f" d="M 699.246094 214.074219 C 682.242188 213.003906 672.464844 237.3125 677.5 233.195312 C 684.121094 227.78125 691.273438 221.164062 700.699219 223.152344 C 709.902344 225.101562 712.070312 230.789062 715.003906 227.804688 C 722.457031 220.226562 704.085938 214.382812 699.246094 214.074219 " fill-opacity="1" fill-rule="nonzero"/><path fill="#221f1f" d="M 527.421875 1245.617188 C 511.054688 1245.617188 511.035156 1220.84375 527.421875 1220.84375 C 543.78125 1220.84375 543.804688 1245.617188 527.421875 1245.617188 " fill-opacity="1" fill-rule="nonzero"/><path fill="#221f1f" d="M 605.042969 1308.386719 C 588.679688 1308.386719 588.65625 1283.617188 605.042969 1283.617188 C 621.40625 1283.617188 621.425781 1308.386719 605.042969 1308.386719 " fill-opacity="1" fill-rule="nonzero"/><path fill="#221f1f" d="M 675.925781 1356.480469 C 659.566406 1356.480469 659.539062 1331.710938 675.925781 1331.710938 C 692.289062 1331.710938 692.3125 1356.480469 675.925781 1356.480469 " fill-opacity="1" fill-rule="nonzero"/><path fill="#221f1f" d="M 976.839844 1239.226562 C 993.195312 1239.226562 993.230469 1214.457031 976.839844 1214.457031 C 960.472656 1214.457031 960.453125 1239.226562 976.839844 1239.226562 " fill-opacity="1" fill-rule="nonzero"/><path fill="#221f1f" d="M 901.050781 1302.773438 C 917.417969 1302.773438 917.4375 1278 901.050781 1278 C 884.699219 1278 884.664062 1302.773438 901.050781 1302.773438 " fill-opacity="1" fill-rule="nonzero"/><path fill="#221f1f" d="M 824.769531 1352.984375 C 841.136719 1352.984375 841.15625 1328.214844 824.769531 1328.214844 C 808.398438 1328.214844 808.390625 1352.984375 824.769531 1352.984375 " fill-opacity="1" fill-rule="nonzero"/><path fill="#221f1f" d="M 750.242188 1431.738281 C 733.875 1431.738281 733.851562 1406.96875 750.242188 1406.96875 C 766.605469 1406.96875 766.628906 1431.738281 750.242188 1431.738281 " fill-opacity="1" fill-rule="nonzero"/></svg>