<svg xmlns="http://www.w3.org/2000/svg" xmlns:xlink="http://www.w3.org/1999/xlink" width="500" zoomAndPan="magnify" viewBox="0 0 375 374.999991" height="500" preserveAspectRatio="xMidYMid meet" version="1.0"><defs><g/><clipPath id="07a8af8433"><path d="M 60 100.039062 L 278 100.039062 L 278 318 L 60 318 Z M 60 100.039062 " clip-rule="nonzero"/></clipPath></defs><g clip-path="url(#07a8af8433)"><path fill="#edcca2" d="M 215.742188 139.125 C 213.65625 137.726562 211.507812 136.429688 209.300781 135.226562 C 207.09375 134.023438 204.835938 132.925781 202.53125 131.925781 C 200.226562 130.925781 197.878906 130.03125 195.492188 129.246094 C 193.109375 128.457031 190.691406 127.777344 188.242188 127.207031 C 185.796875 126.636719 183.328125 126.179688 180.839844 125.832031 C 178.351562 125.484375 175.851562 125.246094 173.34375 125.125 C 170.832031 125 168.324219 124.992188 165.8125 125.09375 C 163.300781 125.199219 160.800781 125.414062 158.308594 125.742188 C 155.816406 126.070312 153.347656 126.507812 150.894531 127.0625 C 148.445312 127.613281 146.023438 128.269531 143.628906 129.039062 C 141.238281 129.808594 138.882812 130.683594 136.570312 131.664062 C 134.257812 132.644531 131.992188 133.726562 129.777344 134.914062 C 127.5625 136.097656 125.402344 137.378906 123.300781 138.757812 C 121.203125 140.136719 119.167969 141.609375 117.199219 143.171875 C 115.230469 144.734375 113.335938 146.378906 111.515625 148.113281 C 109.699219 149.847656 107.960938 151.65625 106.304688 153.546875 C 104.644531 155.4375 103.078125 157.394531 101.597656 159.425781 C 100.117188 161.457031 98.730469 163.550781 97.441406 165.707031 C 96.148438 167.859375 94.957031 170.070312 93.863281 172.332031 C 92.769531 174.59375 91.78125 176.902344 90.894531 179.253906 C 90.011719 181.605469 89.234375 183.992188 88.5625 186.414062 C 87.894531 188.835938 87.332031 191.28125 86.882812 193.753906 C 86.433594 196.226562 86.097656 198.714844 85.871094 201.21875 C 85.644531 203.71875 85.53125 206.226562 85.53125 208.742188 C 85.53125 211.253906 85.644531 213.761719 85.871094 216.261719 C 86.097656 218.765625 86.433594 221.253906 86.882812 223.726562 C 87.332031 226.199219 87.894531 228.644531 88.5625 231.066406 C 89.234375 233.488281 90.011719 235.875 90.894531 238.226562 C 91.78125 240.578125 92.769531 242.886719 93.863281 245.148438 C 94.957031 247.410156 96.148438 249.621094 97.441406 251.777344 C 98.730469 253.929688 100.117188 256.023438 101.597656 258.054688 C 103.078125 260.085938 104.644531 262.042969 106.304688 263.933594 C 107.960938 265.824219 109.699219 267.632812 111.519531 269.367188 C 113.335938 271.101562 115.230469 272.746094 117.199219 274.308594 C 119.167969 275.871094 121.203125 277.34375 123.300781 278.722656 C 125.402344 280.101562 127.5625 281.382812 129.777344 282.566406 C 131.992188 283.753906 134.257812 284.835938 136.570312 285.816406 C 138.882812 286.796875 141.238281 287.671875 143.628906 288.441406 C 146.023438 289.210938 148.445312 289.871094 150.894531 290.421875 C 153.347656 290.972656 155.816406 291.410156 158.308594 291.738281 C 160.800781 292.066406 163.300781 292.28125 165.8125 292.386719 C 168.324219 292.488281 170.832031 292.480469 173.34375 292.355469 C 175.851562 292.234375 178.351562 292 180.839844 291.648438 C 183.328125 291.300781 185.796875 290.84375 188.242188 290.273438 C 190.691406 289.703125 193.109375 289.023438 195.492188 288.234375 C 197.878906 287.449219 200.226562 286.554688 202.53125 285.554688 C 204.835938 284.558594 207.09375 283.457031 209.300781 282.253906 C 211.507812 281.050781 213.65625 279.753906 215.742188 278.355469 C 212.527344 279.488281 209.25 280.390625 205.90625 281.0625 C 204.574219 281.332031 203.234375 281.5625 201.886719 281.757812 C 200.542969 281.953125 199.191406 282.109375 197.835938 282.226562 C 196.480469 282.347656 195.125 282.429688 193.765625 282.476562 C 192.40625 282.519531 191.046875 282.527344 189.683594 282.496094 C 188.324219 282.46875 186.96875 282.398438 185.609375 282.292969 C 184.253906 282.1875 182.902344 282.046875 181.554688 281.863281 C 180.207031 281.683594 178.863281 281.46875 177.527344 281.210938 C 176.191406 280.957031 174.863281 280.667969 173.542969 280.339844 C 172.222656 280.011719 170.910156 279.644531 169.613281 279.246094 C 168.3125 278.84375 167.023438 278.410156 165.746094 277.9375 C 164.472656 277.464844 163.210938 276.960938 161.960938 276.417969 C 160.714844 275.875 159.480469 275.300781 158.265625 274.691406 C 157.050781 274.082031 155.851562 273.4375 154.671875 272.761719 C 153.492188 272.085938 152.332031 271.378906 151.1875 270.636719 C 150.046875 269.898438 148.925781 269.125 147.828125 268.324219 C 146.730469 267.523438 145.65625 266.691406 144.601562 265.828125 C 143.550781 264.96875 142.519531 264.078125 141.519531 263.160156 C 140.515625 262.238281 139.539062 261.292969 138.585938 260.320312 C 137.636719 259.347656 136.710938 258.351562 135.816406 257.328125 C 134.917969 256.304688 134.054688 255.257812 133.214844 254.183594 C 132.378906 253.113281 131.570312 252.019531 130.792969 250.902344 C 130.015625 249.785156 129.269531 248.648438 128.554688 247.492188 C 127.839844 246.335938 127.15625 245.15625 126.507812 243.960938 C 125.859375 242.765625 125.242188 241.554688 124.660156 240.324219 C 124.078125 239.097656 123.53125 237.851562 123.015625 236.59375 C 122.503906 235.332031 122.023438 234.058594 121.582031 232.773438 C 121.136719 231.488281 120.730469 230.191406 120.359375 228.882812 C 119.988281 227.574219 119.652344 226.253906 119.355469 224.925781 C 119.054688 223.601562 118.792969 222.265625 118.570312 220.925781 C 118.34375 219.582031 118.15625 218.234375 118.007812 216.882812 C 117.859375 215.53125 117.746094 214.175781 117.667969 212.816406 C 117.59375 211.460938 117.558594 210.101562 117.558594 208.742188 C 117.558594 207.378906 117.59375 206.019531 117.667969 204.664062 C 117.746094 203.304688 117.859375 201.949219 118.007812 200.597656 C 118.15625 199.246094 118.34375 197.898438 118.570312 196.554688 C 118.792969 195.214844 119.054688 193.878906 119.355469 192.554688 C 119.652344 191.226562 119.988281 189.910156 120.359375 188.601562 C 120.730469 187.289062 121.136719 185.992188 121.582031 184.707031 C 122.023438 183.421875 122.503906 182.148438 123.015625 180.890625 C 123.53125 179.628906 124.078125 178.382812 124.660156 177.15625 C 125.242188 175.925781 125.859375 174.714844 126.507812 173.519531 C 127.15625 172.324219 127.839844 171.148438 128.554688 169.988281 C 129.269531 168.832031 130.015625 167.695312 130.792969 166.578125 C 131.570312 165.460938 132.378906 164.367188 133.214844 163.296875 C 134.054688 162.226562 134.917969 161.175781 135.816406 160.152344 C 136.710938 159.128906 137.636719 158.132812 138.585938 157.160156 C 139.539062 156.1875 140.515625 155.242188 141.519531 154.324219 C 142.519531 153.402344 143.550781 152.515625 144.601562 151.652344 C 145.65625 150.789062 146.730469 149.957031 147.828125 149.15625 C 148.925781 148.355469 150.046875 147.582031 151.1875 146.84375 C 152.332031 146.101562 153.492188 145.394531 154.671875 144.71875 C 155.851562 144.042969 157.050781 143.398438 158.265625 142.789062 C 159.480469 142.179688 160.714844 141.605469 161.960938 141.0625 C 163.210938 140.523438 164.472656 140.015625 165.746094 139.542969 C 167.023438 139.070312 168.3125 138.636719 169.613281 138.234375 C 170.910156 137.835938 172.222656 137.46875 173.542969 137.140625 C 174.863281 136.8125 176.191406 136.523438 177.527344 136.269531 C 178.863281 136.015625 180.207031 135.796875 181.554688 135.617188 C 182.902344 135.4375 184.253906 135.292969 185.609375 135.1875 C 186.96875 135.082031 188.324219 135.015625 189.683594 134.984375 C 191.046875 134.953125 192.40625 134.960938 193.765625 135.003906 C 195.125 135.050781 196.480469 135.132812 197.835938 135.253906 C 199.191406 135.371094 200.542969 135.53125 201.886719 135.722656 C 203.234375 135.917969 204.574219 136.152344 205.90625 136.417969 C 209.25 137.09375 212.527344 137.992188 215.746094 139.125 Z M 168.757812 111.761719 L 168.757812 101.222656 C 162.859375 101.253906 157 101.757812 151.183594 102.746094 L 153.015625 113.125 C 158.226562 112.246094 163.472656 111.792969 168.757812 111.761719 Z M 169.867188 101.222656 L 169.867188 111.761719 C 175.152344 111.789062 180.398438 112.242188 185.609375 113.125 L 187.441406 102.746094 C 181.625 101.757812 175.765625 101.25 169.867188 101.222656 Z M 264.738281 191.351562 L 275.121094 189.523438 C 274.070312 183.714844 272.550781 178.035156 270.5625 172.476562 L 260.65625 176.078125 C 262.4375 181.058594 263.796875 186.148438 264.738281 191.351562 Z M 275.3125 190.613281 C 276.296875 196.429688 276.804688 202.289062 276.832031 208.191406 L 266.292969 208.191406 C 266.265625 202.90625 265.8125 197.65625 264.933594 192.445312 L 275.3125 190.617188 Z M 276.832031 209.292969 L 266.296875 209.292969 C 266.269531 214.578125 265.8125 219.828125 264.933594 225.039062 L 275.3125 226.871094 C 276.300781 221.054688 276.804688 215.195312 276.832031 209.296875 Z M 275.117188 227.960938 C 274.070312 233.769531 272.550781 239.449219 270.558594 245.003906 L 260.65625 241.402344 C 262.4375 236.421875 263.796875 231.332031 264.738281 226.132812 Z M 270.179688 246.042969 L 260.277344 242.4375 C 258.4375 247.394531 256.210938 252.167969 253.585938 256.757812 L 262.710938 262.03125 C 265.640625 256.90625 268.128906 251.578125 270.179688 246.042969 Z M 262.160156 262.988281 C 259.179688 268.082031 255.800781 272.894531 252.03125 277.433594 L 243.960938 270.660156 C 247.335938 266.59375 250.363281 262.277344 253.035156 257.71875 Z M 251.320312 278.28125 L 243.253906 271.503906 C 241.542969 273.511719 239.757812 275.449219 237.894531 277.316406 C 236.027344 279.183594 234.089844 280.96875 232.078125 282.675781 L 238.851562 290.75 C 241.097656 288.84375 243.261719 286.851562 245.34375 284.769531 C 247.429688 282.6875 249.421875 280.523438 251.328125 278.277344 Z M 238 291.460938 C 233.460938 295.234375 228.644531 298.609375 223.554688 301.59375 L 218.285156 292.46875 C 222.847656 289.792969 227.164062 286.765625 231.230469 283.386719 L 238.003906 291.460938 Z M 222.601562 302.144531 L 217.328125 293.019531 C 212.738281 295.640625 207.964844 297.871094 203.007812 299.707031 L 206.609375 309.613281 C 212.148438 307.566406 217.476562 305.078125 222.601562 302.148438 Z M 205.574219 309.988281 C 200.015625 311.980469 194.335938 313.496094 188.527344 314.546875 L 186.699219 304.167969 C 191.902344 303.226562 196.992188 301.863281 201.96875 300.082031 Z M 187.4375 314.734375 L 185.605469 304.355469 C 180.394531 305.238281 175.144531 305.691406 169.859375 305.71875 L 169.859375 316.257812 C 175.761719 316.230469 181.621094 315.722656 187.4375 314.734375 Z M 168.757812 316.257812 L 168.757812 305.71875 C 163.472656 305.691406 158.222656 305.238281 153.011719 304.355469 L 151.183594 314.734375 C 157 315.722656 162.859375 316.230469 168.757812 316.257812 Z M 150.09375 314.542969 C 144.285156 313.496094 138.605469 311.976562 133.046875 309.988281 L 136.652344 300.082031 C 141.632812 301.863281 146.722656 303.222656 151.925781 304.164062 Z M 132.011719 309.609375 L 135.617188 299.703125 C 130.65625 297.867188 125.882812 295.636719 121.292969 293.015625 L 116.023438 302.140625 C 121.144531 305.070312 126.476562 307.558594 132.011719 309.605469 Z M 115.0625 301.589844 C 109.972656 298.605469 105.160156 295.230469 100.621094 291.457031 L 107.394531 283.382812 C 111.460938 286.761719 115.777344 289.785156 120.335938 292.460938 L 115.0625 301.585938 Z M 99.773438 290.746094 C 97.53125 288.84375 95.367188 286.847656 93.28125 284.765625 C 91.199219 282.683594 89.207031 280.519531 87.300781 278.273438 L 95.375 271.5 C 97.082031 273.507812 98.871094 275.449219 100.734375 277.316406 C 102.597656 279.179688 104.535156 280.96875 106.546875 282.671875 Z M 86.589844 277.425781 C 82.816406 272.890625 79.441406 268.074219 76.460938 262.980469 L 85.585938 257.710938 C 88.261719 262.273438 91.285156 266.589844 94.664062 270.660156 L 86.589844 277.433594 Z M 75.90625 262.027344 L 85.035156 256.757812 C 82.414062 252.167969 80.183594 247.390625 78.34375 242.433594 L 68.441406 246.039062 C 70.488281 251.574219 72.976562 256.90625 75.90625 262.027344 Z M 68.0625 245 C 66.070312 239.445312 64.554688 233.761719 63.503906 227.957031 L 73.886719 226.125 C 74.828125 231.328125 76.1875 236.417969 77.96875 241.394531 Z M 63.316406 226.867188 L 73.695312 225.035156 C 72.8125 219.824219 72.359375 214.578125 72.332031 209.292969 L 61.796875 209.292969 C 61.824219 215.191406 62.332031 221.050781 63.316406 226.867188 Z M 61.792969 208.179688 L 72.332031 208.179688 C 72.359375 202.898438 72.8125 197.648438 73.695312 192.4375 L 63.3125 190.605469 C 62.328125 196.425781 61.820312 202.28125 61.792969 208.179688 Z M 63.503906 189.515625 C 64.550781 183.710938 66.070312 178.027344 68.0625 172.472656 L 77.964844 176.078125 C 76.1875 181.054688 74.824219 186.144531 73.882812 191.347656 L 63.507812 189.519531 Z M 188.53125 102.9375 C 194.339844 103.984375 200.023438 105.503906 205.578125 107.492188 L 201.972656 117.398438 C 196.996094 115.617188 191.90625 114.253906 186.703125 113.3125 L 188.535156 102.933594 Z M 206.617188 107.871094 L 203.007812 117.773438 C 207.964844 119.613281 212.742188 121.84375 217.332031 124.464844 L 222.605469 115.339844 C 217.480469 112.410156 212.152344 109.921875 206.617188 107.871094 Z M 223.5625 115.890625 C 228.652344 118.875 233.46875 122.25 238.007812 126.023438 L 231.230469 134.09375 C 227.164062 130.714844 222.851562 127.691406 218.292969 125.015625 Z M 238.851562 126.734375 L 232.078125 134.804688 C 234.085938 136.515625 236.027344 138.300781 237.890625 140.164062 C 239.757812 142.03125 241.542969 143.96875 243.25 145.980469 L 251.324219 139.207031 C 249.421875 136.960938 247.425781 134.796875 245.34375 132.714844 C 243.261719 130.628906 241.097656 128.636719 238.851562 126.734375 Z M 252.039062 140.054688 C 255.808594 144.59375 259.183594 149.40625 262.164062 154.5 L 253.035156 159.765625 C 250.363281 155.207031 247.335938 150.894531 243.960938 146.828125 L 252.035156 140.054688 Z M 262.722656 155.453125 C 265.652344 160.578125 268.140625 165.90625 270.1875 171.441406 L 260.28125 175.046875 C 258.445312 170.085938 256.214844 165.3125 253.589844 160.722656 Z M 68.441406 171.4375 L 78.347656 175.042969 C 80.183594 170.085938 82.414062 165.3125 85.035156 160.71875 L 75.90625 155.449219 C 72.976562 160.574219 70.488281 165.902344 68.441406 171.4375 Z M 76.460938 154.492188 C 79.441406 149.398438 82.820312 144.585938 86.59375 140.046875 L 94.664062 146.820312 C 91.289062 150.890625 88.261719 155.203125 85.589844 159.761719 L 76.464844 154.492188 Z M 87.304688 139.199219 C 89.207031 136.957031 91.203125 134.792969 93.285156 132.710938 C 95.367188 130.625 97.53125 128.632812 99.777344 126.726562 L 106.550781 134.800781 C 104.539062 136.507812 102.601562 138.296875 100.734375 140.160156 C 98.871094 142.027344 97.082031 143.964844 95.378906 145.976562 Z M 100.625 126.019531 C 105.160156 122.246094 109.976562 118.871094 115.066406 115.890625 L 120.339844 125.015625 C 115.777344 127.6875 111.464844 130.714844 107.398438 134.089844 L 100.625 126.015625 Z M 116.023438 115.335938 L 121.292969 124.464844 C 125.882812 121.84375 130.660156 119.613281 135.617188 117.777344 L 132.011719 107.871094 C 126.476562 109.917969 121.144531 112.40625 116.023438 115.335938 Z M 133.050781 107.492188 C 138.605469 105.5 144.285156 103.984375 150.09375 102.933594 L 151.925781 113.316406 C 146.722656 114.257812 141.632812 115.617188 136.65625 117.398438 Z M 246.125 131.929688 C 247.589844 133.394531 249.015625 134.902344 250.394531 136.453125 C 251.773438 138 253.109375 139.585938 254.398438 141.210938 C 255.6875 142.835938 256.929688 144.496094 258.125 146.191406 C 259.320312 147.886719 260.464844 149.617188 261.558594 151.378906 C 262.65625 153.140625 263.699219 154.929688 264.691406 156.753906 C 265.683594 158.574219 266.625 160.421875 267.511719 162.296875 C 268.398438 164.171875 269.230469 166.070312 270.007812 167.992188 C 270.785156 169.917969 271.507812 171.859375 272.175781 173.824219 C 272.84375 175.789062 273.453125 177.769531 274.003906 179.769531 C 274.558594 181.769531 275.054688 183.78125 275.492188 185.808594 C 275.929688 187.835938 276.308594 189.875 276.628906 191.921875 C 276.953125 193.972656 277.214844 196.03125 277.417969 198.09375 C 277.621094 200.15625 277.765625 202.226562 277.847656 204.300781 C 277.933594 206.371094 277.960938 208.445312 277.925781 210.519531 C 277.890625 212.59375 277.796875 214.664062 277.644531 216.734375 C 277.492188 218.800781 277.28125 220.863281 277.011719 222.921875 C 276.738281 224.976562 276.410156 227.023438 276.023438 229.0625 C 275.632812 231.097656 275.1875 233.125 274.683594 235.136719 C 274.179688 237.148438 273.621094 239.144531 273 241.125 C 272.382812 243.105469 271.707031 245.0625 270.976562 247.003906 C 270.246094 248.945312 269.460938 250.867188 268.621094 252.761719 C 267.78125 254.660156 266.886719 256.527344 265.9375 258.375 C 264.992188 260.21875 263.992188 262.035156 262.9375 263.824219 C 261.886719 265.609375 260.785156 267.367188 259.632812 269.09375 C 258.480469 270.816406 257.28125 272.507812 256.03125 274.164062 C 254.78125 275.820312 253.484375 277.4375 252.144531 279.019531 C 250.800781 280.601562 249.414062 282.140625 247.984375 283.644531 C 246.554688 285.148438 245.082031 286.605469 243.570312 288.023438 C 242.054688 289.441406 240.5 290.816406 238.910156 292.144531 C 237.316406 293.472656 235.6875 294.757812 234.019531 295.992188 C 232.355469 297.226562 230.65625 298.414062 228.921875 299.554688 C 227.1875 300.691406 225.421875 301.777344 223.625 302.816406 C 221.828125 303.851562 220.003906 304.835938 218.152344 305.769531 C 216.300781 306.703125 214.421875 307.582031 212.519531 308.40625 C 210.613281 309.230469 208.691406 310 206.742188 310.714844 C 204.796875 311.429688 202.828125 312.089844 200.84375 312.691406 C 198.859375 313.292969 196.859375 313.839844 194.84375 314.324219 C 192.828125 314.8125 190.796875 315.242188 188.757812 315.613281 C 186.714844 315.984375 184.667969 316.296875 182.609375 316.550781 C 180.550781 316.804688 178.484375 317 176.414062 317.136719 C 174.347656 317.273438 172.273438 317.347656 170.199219 317.363281 C 168.125 317.382812 166.050781 317.339844 163.980469 317.238281 C 161.910156 317.136719 159.84375 316.976562 157.78125 316.753906 C 155.71875 316.535156 153.664062 316.253906 151.617188 315.917969 C 149.570312 315.578125 147.535156 315.183594 145.511719 314.730469 C 143.488281 314.273438 141.476562 313.761719 139.484375 313.191406 C 137.488281 312.625 135.511719 311.996094 133.554688 311.3125 C 131.59375 310.632812 129.65625 309.894531 127.742188 309.097656 C 125.824219 308.304688 123.933594 307.457031 122.066406 306.554688 C 120.195312 305.652344 118.355469 304.699219 116.542969 303.691406 C 114.730469 302.683594 112.949219 301.625 111.195312 300.515625 C 109.441406 299.40625 107.722656 298.246094 106.039062 297.039062 C 104.351562 295.828125 102.703125 294.574219 101.085938 293.273438 C 99.472656 291.96875 97.898438 290.621094 96.359375 289.226562 C 94.824219 287.835938 93.328125 286.398438 91.875 284.921875 C 90.417969 283.441406 89.007812 281.921875 87.640625 280.363281 C 86.273438 278.804688 84.949219 277.207031 83.675781 275.570312 C 82.398438 273.9375 81.171875 272.265625 79.988281 270.558594 C 78.808594 268.855469 77.679688 267.117188 76.597656 265.347656 C 75.515625 263.574219 74.488281 261.777344 73.511719 259.945312 C 72.53125 258.117188 71.609375 256.261719 70.734375 254.378906 C 69.863281 252.496094 69.046875 250.589844 68.285156 248.664062 C 67.523438 246.734375 66.816406 244.785156 66.164062 242.8125 C 65.515625 240.84375 64.921875 238.859375 64.382812 236.855469 C 63.847656 234.851562 63.367188 232.832031 62.949219 230.804688 C 62.527344 228.773438 62.164062 226.730469 61.859375 224.679688 C 61.554688 222.628906 61.308594 220.566406 61.121094 218.503906 C 60.9375 216.4375 60.808594 214.367188 60.742188 212.292969 C 60.671875 210.222656 60.664062 208.148438 60.714844 206.074219 C 60.765625 204 60.878906 201.929688 61.046875 199.863281 C 61.214844 197.796875 61.445312 195.734375 61.730469 193.679688 C 62.019531 191.625 62.367188 189.582031 62.769531 187.546875 C 63.175781 185.511719 63.636719 183.492188 64.160156 181.484375 C 64.679688 179.476562 65.257812 177.484375 65.890625 175.511719 C 66.527344 173.535156 67.214844 171.582031 67.960938 169.644531 C 68.707031 167.710938 69.511719 165.796875 70.367188 163.910156 C 71.222656 162.019531 72.132812 160.15625 73.09375 158.320312 C 74.058594 156.480469 75.070312 154.671875 76.136719 152.894531 C 77.203125 151.113281 78.320312 149.367188 79.488281 147.652344 C 80.652344 145.9375 81.867188 144.257812 83.132812 142.613281 C 84.394531 140.964844 85.703125 139.359375 87.058594 137.785156 C 88.414062 136.214844 89.8125 134.6875 91.253906 133.195312 C 92.695312 131.703125 94.179688 130.257812 95.707031 128.851562 C 97.230469 127.445312 98.796875 126.085938 100.398438 124.769531 C 102.003906 123.453125 103.640625 122.183594 105.320312 120.960938 C 106.996094 119.742188 108.703125 118.566406 110.449219 117.445312 C 112.191406 116.320312 113.964844 115.246094 115.769531 114.222656 C 117.574219 113.203125 119.40625 112.230469 121.265625 111.316406 C 123.128906 110.398438 125.011719 109.535156 126.921875 108.722656 C 128.832031 107.914062 130.765625 107.160156 132.714844 106.460938 C 134.667969 105.761719 136.640625 105.121094 138.628906 104.535156 C 140.621094 103.949219 142.625 103.421875 144.644531 102.949219 C 146.664062 102.480469 148.699219 102.066406 150.742188 101.710938 C 152.785156 101.355469 154.835938 101.0625 156.898438 100.824219 C 158.957031 100.585938 161.023438 100.410156 163.09375 100.289062 C 165.164062 100.171875 167.238281 100.113281 169.3125 100.113281 C 172.871094 100.105469 176.421875 100.277344 179.960938 100.625 C 183.503906 100.96875 187.019531 101.488281 190.511719 102.179688 C 194 102.871094 197.449219 103.734375 200.855469 104.765625 C 204.257812 105.796875 207.605469 106.992188 210.894531 108.355469 C 214.179688 109.714844 217.394531 111.238281 220.53125 112.914062 C 223.667969 114.59375 226.714844 116.421875 229.675781 118.402344 C 232.632812 120.378906 235.484375 122.5 238.234375 124.757812 C 240.980469 127.019531 243.613281 129.410156 246.125 131.929688 Z M 103.699219 229.132812 C 103.660156 228.984375 103.675781 228.84375 103.753906 228.710938 C 103.832031 228.578125 103.941406 228.488281 104.089844 228.449219 C 104.238281 228.410156 104.378906 228.429688 104.511719 228.507812 C 104.644531 228.585938 104.730469 228.699219 104.769531 228.847656 C 106.375 234.792969 108.65625 240.464844 111.621094 245.859375 C 114.589844 251.257812 118.152344 256.226562 122.308594 260.765625 L 123.082031 261.597656 L 123.863281 262.417969 C 123.964844 262.527344 124.015625 262.660156 124.011719 262.808594 C 124.007812 262.960938 123.953125 263.089844 123.84375 263.195312 C 123.734375 263.300781 123.605469 263.351562 123.457031 263.347656 C 123.304688 263.347656 123.175781 263.292969 123.070312 263.1875 C 122.742188 262.847656 122.480469 262.570312 122.273438 262.355469 C 122 262.066406 121.738281 261.785156 121.492188 261.511719 C 117.273438 256.90625 113.65625 251.867188 110.648438 246.390625 C 107.640625 240.917969 105.324219 235.164062 103.699219 229.132812 Z M 104.769531 188.632812 C 104.730469 188.78125 104.644531 188.894531 104.511719 188.972656 C 104.378906 189.050781 104.238281 189.070312 104.089844 189.03125 C 103.941406 188.992188 103.832031 188.902344 103.753906 188.769531 C 103.675781 188.636719 103.660156 188.496094 103.699219 188.347656 C 105.328125 182.316406 107.644531 176.5625 110.652344 171.089844 C 113.660156 165.617188 117.273438 160.574219 121.496094 155.96875 C 121.742188 155.699219 122 155.417969 122.277344 155.125 C 122.480469 154.90625 122.742188 154.632812 123.074219 154.296875 C 123.179688 154.1875 123.308594 154.132812 123.457031 154.132812 C 123.609375 154.128906 123.738281 154.179688 123.847656 154.285156 C 123.957031 154.390625 124.011719 154.519531 124.015625 154.671875 C 124.019531 154.820312 123.96875 154.953125 123.863281 155.0625 L 123.085938 155.882812 C 122.835938 156.144531 122.582031 156.421875 122.316406 156.714844 C 118.15625 161.253906 114.59375 166.222656 111.625 171.621094 C 108.660156 177.015625 106.375 182.6875 104.773438 188.632812 Z M 130.820312 148.679688 C 130.703125 148.773438 130.570312 148.808594 130.421875 148.792969 C 130.273438 148.773438 130.152344 148.707031 130.054688 148.59375 C 129.960938 148.476562 129.921875 148.34375 129.933594 148.195312 C 129.949219 148.046875 130.011719 147.921875 130.125 147.824219 C 134.535156 144.246094 139.277344 141.179688 144.351562 138.632812 C 144.492188 138.558594 144.632812 138.546875 144.78125 138.59375 C 144.929688 138.640625 145.039062 138.734375 145.109375 138.871094 C 145.179688 139.011719 145.1875 139.15625 145.136719 139.300781 C 145.085938 139.449219 144.988281 139.554688 144.847656 139.621094 C 139.84375 142.136719 135.171875 145.15625 130.820312 148.679688 Z M 151.804688 136.550781 C 151.660156 136.605469 151.519531 136.605469 151.375 136.542969 C 151.234375 136.480469 151.136719 136.375 151.082031 136.230469 C 151.027344 136.085938 151.03125 135.945312 151.09375 135.804688 C 151.160156 135.664062 151.265625 135.566406 151.410156 135.515625 C 152.507812 135.09375 153.636719 134.691406 154.804688 134.300781 C 155.960938 133.917969 157.109375 133.5625 158.25 133.246094 C 158.394531 133.207031 158.53125 133.226562 158.664062 133.300781 C 158.792969 133.378906 158.878906 133.488281 158.917969 133.632812 C 158.957031 133.777344 158.941406 133.914062 158.871094 134.046875 C 158.796875 134.179688 158.691406 134.265625 158.546875 134.308594 C 157.386719 134.636719 156.257812 134.984375 155.152344 135.351562 C 154.046875 135.71875 152.929688 136.117188 151.804688 136.550781 Z M 130.125 269.65625 C 130.011719 269.558594 129.949219 269.433594 129.933594 269.285156 C 129.921875 269.136719 129.960938 269.003906 130.054688 268.886719 C 130.148438 268.769531 130.273438 268.703125 130.421875 268.6875 C 130.570312 268.671875 130.703125 268.707031 130.820312 268.796875 C 135.171875 272.324219 139.84375 275.34375 144.847656 277.859375 C 144.988281 277.925781 145.085938 278.03125 145.136719 278.175781 C 145.1875 278.324219 145.179688 278.46875 145.109375 278.605469 C 145.039062 278.746094 144.929688 278.839844 144.78125 278.886719 C 144.632812 278.933594 144.492188 278.917969 144.351562 278.84375 C 139.277344 276.296875 134.535156 273.234375 130.125 269.65625 Z M 151.410156 281.964844 C 151.265625 281.914062 151.160156 281.816406 151.09375 281.675781 C 151.03125 281.535156 151.027344 281.394531 151.082031 281.25 C 151.136719 281.105469 151.234375 281 151.375 280.9375 C 151.519531 280.875 151.660156 280.875 151.804688 280.933594 C 152.933594 281.367188 154.050781 281.765625 155.152344 282.128906 C 156.25 282.496094 157.382812 282.839844 158.546875 283.171875 C 158.691406 283.214844 158.796875 283.300781 158.871094 283.433594 C 158.941406 283.566406 158.960938 283.703125 158.917969 283.847656 C 158.878906 283.992188 158.792969 284.105469 158.664062 284.179688 C 158.53125 284.253906 158.394531 284.273438 158.25 284.234375 C 157.109375 283.914062 155.960938 283.5625 154.804688 283.179688 C 153.636719 282.792969 152.507812 282.386719 151.410156 281.964844 Z M 190.71875 223.050781 C 190.71875 222.898438 190.773438 222.765625 190.882812 222.660156 C 190.988281 222.550781 191.121094 222.496094 191.273438 222.496094 C 191.425781 222.496094 191.558594 222.550781 191.664062 222.660156 C 191.773438 222.765625 191.828125 222.898438 191.828125 223.050781 L 191.828125 255.089844 C 191.828125 255.242188 191.773438 255.371094 191.664062 255.480469 C 191.558594 255.589844 191.425781 255.640625 191.273438 255.640625 C 191.121094 255.640625 190.988281 255.589844 190.882812 255.480469 C 190.773438 255.371094 190.71875 255.242188 190.71875 255.089844 Z M 191.828125 194.429688 C 191.828125 194.582031 191.773438 194.714844 191.664062 194.820312 C 191.558594 194.929688 191.425781 194.984375 191.273438 194.984375 C 191.121094 194.984375 190.988281 194.929688 190.882812 194.820312 C 190.773438 194.714844 190.71875 194.582031 190.71875 194.429688 L 190.71875 162.390625 C 190.71875 162.238281 190.773438 162.109375 190.882812 162 C 190.988281 161.890625 191.121094 161.839844 191.273438 161.839844 C 191.425781 161.839844 191.558594 161.890625 191.664062 162 C 191.773438 162.109375 191.828125 162.238281 191.828125 162.390625 Z M 217.085938 209.292969 L 237.621094 209.292969 C 237.773438 209.289062 237.898438 209.234375 238 209.125 C 238.105469 209.019531 238.15625 208.890625 238.15625 208.738281 C 238.15625 208.589844 238.105469 208.460938 238 208.355469 C 237.898438 208.246094 237.773438 208.191406 237.621094 208.1875 L 217.089844 208.1875 C 216.9375 208.191406 216.8125 208.246094 216.707031 208.355469 C 216.605469 208.460938 216.554688 208.589844 216.554688 208.738281 C 216.554688 208.890625 216.605469 209.019531 216.707031 209.125 C 216.8125 209.234375 216.9375 209.289062 217.089844 209.292969 Z M 250.179688 208.1875 L 244.199219 208.1875 C 244.050781 208.191406 243.921875 208.246094 243.820312 208.355469 C 243.714844 208.460938 243.664062 208.589844 243.664062 208.738281 C 243.664062 208.890625 243.714844 209.019531 243.820312 209.125 C 243.921875 209.234375 244.050781 209.289062 244.199219 209.292969 L 250.179688 209.292969 C 250.332031 209.289062 250.457031 209.234375 250.5625 209.125 C 250.664062 209.019531 250.714844 208.890625 250.714844 208.738281 C 250.714844 208.589844 250.664062 208.460938 250.5625 208.355469 C 250.457031 208.246094 250.332031 208.191406 250.179688 208.1875 Z M 218.222656 160.964844 C 218.296875 160.832031 218.410156 160.746094 218.558594 160.707031 C 218.703125 160.667969 218.84375 160.6875 218.976562 160.761719 C 219.109375 160.839844 219.195312 160.949219 219.234375 161.097656 C 219.273438 161.246094 219.253906 161.386719 219.175781 161.515625 L 209.019531 179.109375 C 208.945312 179.242188 208.832031 179.328125 208.683594 179.367188 C 208.535156 179.40625 208.398438 179.386719 208.265625 179.3125 C 208.132812 179.234375 208.046875 179.121094 208.007812 178.976562 C 207.96875 178.828125 207.988281 178.6875 208.0625 178.554688 Z M 201.367188 192.359375 C 201.292969 192.492188 201.179688 192.578125 201.03125 192.617188 C 200.886719 192.65625 200.746094 192.636719 200.613281 192.5625 C 200.480469 192.484375 200.394531 192.375 200.355469 192.226562 C 200.316406 192.078125 200.335938 191.9375 200.414062 191.804688 L 205.882812 182.332031 C 205.960938 182.199219 206.070312 182.113281 206.21875 182.074219 C 206.367188 182.035156 206.507812 182.054688 206.640625 182.128906 C 206.769531 182.207031 206.855469 182.320312 206.894531 182.464844 C 206.933594 182.613281 206.917969 182.753906 206.839844 182.886719 Z M 238.496094 180.835938 L 220.90625 190.996094 C 220.773438 191.074219 220.6875 191.1875 220.652344 191.332031 C 220.613281 191.480469 220.628906 191.621094 220.707031 191.753906 C 220.78125 191.882812 220.894531 191.96875 221.042969 192.007812 C 221.1875 192.046875 221.328125 192.03125 221.460938 191.953125 L 239.050781 181.792969 C 239.183594 181.71875 239.269531 181.605469 239.3125 181.457031 C 239.351562 181.308594 239.332031 181.171875 239.253906 181.039062 C 239.179688 180.90625 239.066406 180.820312 238.917969 180.78125 C 238.769531 180.742188 238.628906 180.761719 238.496094 180.835938 Z M 213.90625 196.3125 C 213.773438 196.390625 213.628906 196.414062 213.480469 196.375 C 213.332031 196.335938 213.214844 196.25 213.140625 196.113281 C 213.0625 195.980469 213.042969 195.839844 213.085938 195.6875 C 213.128906 195.539062 213.21875 195.429688 213.355469 195.355469 L 217.128906 193.175781 C 217.261719 193.105469 217.398438 193.089844 217.542969 193.128906 C 217.6875 193.171875 217.796875 193.257812 217.871094 193.386719 C 217.945312 193.515625 217.964844 193.652344 217.929688 193.796875 C 217.890625 193.941406 217.808594 194.054688 217.679688 194.132812 Z M 201.59375 168.105469 C 201.636719 167.960938 201.722656 167.851562 201.851562 167.777344 C 201.984375 167.703125 202.121094 167.683594 202.269531 167.722656 C 202.414062 167.761719 202.523438 167.84375 202.601562 167.976562 C 202.679688 168.105469 202.699219 168.242188 202.664062 168.390625 L 197.746094 186.730469 C 197.707031 186.875 197.621094 186.988281 197.488281 187.066406 C 197.359375 187.140625 197.21875 187.160156 197.070312 187.121094 C 196.921875 187.082031 196.808594 186.996094 196.734375 186.863281 C 196.65625 186.730469 196.640625 186.589844 196.679688 186.441406 Z M 220.527344 178.707031 C 220.636719 178.601562 220.765625 178.550781 220.917969 178.554688 C 221.066406 178.554688 221.195312 178.609375 221.300781 178.714844 C 221.40625 178.820312 221.460938 178.949219 221.464844 179.101562 C 221.464844 179.25 221.414062 179.378906 221.3125 179.488281 L 207.886719 192.914062 C 207.777344 193.027344 207.648438 193.082031 207.492188 193.085938 C 207.335938 193.085938 207.203125 193.035156 207.09375 192.921875 C 206.984375 192.8125 206.929688 192.679688 206.929688 192.523438 C 206.933594 192.367188 206.992188 192.238281 207.105469 192.128906 Z M 231.628906 197.355469 C 231.773438 197.316406 231.914062 197.335938 232.042969 197.414062 C 232.175781 197.488281 232.261719 197.601562 232.300781 197.75 C 232.339844 197.894531 232.320312 198.035156 232.246094 198.164062 C 232.171875 198.296875 232.058594 198.382812 231.914062 198.425781 L 209.507812 204.429688 C 209.363281 204.46875 209.222656 204.449219 209.089844 204.375 C 208.953125 204.296875 208.867188 204.1875 208.828125 204.039062 C 208.789062 203.890625 208.804688 203.75 208.882812 203.617188 C 208.960938 203.484375 209.070312 203.398438 209.21875 203.359375 L 231.625 197.355469 Z M 190.722656 149.832031 C 190.722656 149.679688 190.777344 149.550781 190.886719 149.441406 C 190.992188 149.332031 191.125 149.28125 191.277344 149.28125 C 191.429688 149.28125 191.5625 149.332031 191.667969 149.441406 C 191.777344 149.550781 191.832031 149.679688 191.832031 149.832031 L 191.832031 155.816406 C 191.832031 155.96875 191.777344 156.101562 191.667969 156.210938 C 191.5625 156.316406 191.429688 156.371094 191.277344 156.371094 C 191.125 156.371094 190.992188 156.316406 190.886719 156.210938 C 190.777344 156.101562 190.722656 155.96875 190.722656 155.816406 Z M 165.464844 208.1875 C 165.613281 208.191406 165.738281 208.246094 165.84375 208.355469 C 165.949219 208.460938 166 208.589844 166 208.738281 C 166 208.890625 165.949219 209.019531 165.84375 209.125 C 165.738281 209.234375 165.613281 209.289062 165.464844 209.292969 L 144.925781 209.292969 C 144.769531 209.300781 144.636719 209.25 144.523438 209.140625 C 144.410156 209.03125 144.351562 208.898438 144.351562 208.738281 C 144.351562 208.582031 144.410156 208.449219 144.523438 208.339844 C 144.636719 208.230469 144.769531 208.179688 144.925781 208.1875 Z M 132.367188 209.292969 C 132.210938 209.300781 132.078125 209.25 131.964844 209.140625 C 131.851562 209.03125 131.792969 208.898438 131.792969 208.738281 C 131.792969 208.582031 131.851562 208.449219 131.964844 208.339844 C 132.078125 208.230469 132.210938 208.179688 132.367188 208.1875 L 138.351562 208.1875 C 138.503906 208.191406 138.628906 208.246094 138.730469 208.355469 C 138.835938 208.460938 138.886719 208.589844 138.886719 208.738281 C 138.886719 208.890625 138.835938 209.019531 138.730469 209.125 C 138.628906 209.234375 138.503906 209.289062 138.351562 209.292969 Z M 163.375 161.515625 C 163.296875 161.386719 163.277344 161.246094 163.320312 161.097656 C 163.359375 160.949219 163.445312 160.839844 163.574219 160.761719 C 163.707031 160.6875 163.847656 160.667969 163.996094 160.707031 C 164.140625 160.746094 164.253906 160.832031 164.332031 160.964844 L 174.488281 178.554688 C 174.566406 178.6875 174.582031 178.828125 174.542969 178.976562 C 174.503906 179.121094 174.417969 179.234375 174.285156 179.3125 C 174.15625 179.386719 174.015625 179.40625 173.867188 179.367188 C 173.71875 179.328125 173.609375 179.242188 173.53125 179.109375 Z M 182.140625 191.808594 C 182.21875 191.9375 182.234375 192.078125 182.195312 192.226562 C 182.15625 192.375 182.070312 192.484375 181.9375 192.5625 C 181.808594 192.640625 181.667969 192.65625 181.519531 192.617188 C 181.371094 192.578125 181.261719 192.492188 181.183594 192.359375 L 175.710938 182.886719 C 175.632812 182.753906 175.617188 182.613281 175.65625 182.46875 C 175.695312 182.320312 175.78125 182.207031 175.910156 182.132812 C 176.042969 182.054688 176.183594 182.035156 176.332031 182.078125 C 176.476562 182.117188 176.589844 182.199219 176.667969 182.332031 Z M 143.5 181.792969 C 143.367188 181.71875 143.28125 181.605469 143.242188 181.457031 C 143.203125 181.3125 143.222656 181.171875 143.300781 181.039062 C 143.375 180.90625 143.488281 180.820312 143.636719 180.78125 C 143.78125 180.742188 143.921875 180.761719 144.054688 180.835938 L 161.644531 190.996094 C 161.777344 191.074219 161.863281 191.1875 161.902344 191.332031 C 161.941406 191.480469 161.921875 191.621094 161.847656 191.753906 C 161.769531 191.886719 161.660156 191.972656 161.511719 192.011719 C 161.363281 192.050781 161.222656 192.03125 161.089844 191.953125 L 143.5 181.796875 Z M 169.199219 195.355469 C 169.332031 195.429688 169.421875 195.539062 169.464844 195.6875 C 169.507812 195.839844 169.492188 195.980469 169.414062 196.113281 C 169.335938 196.25 169.222656 196.335938 169.070312 196.375 C 168.921875 196.414062 168.78125 196.390625 168.648438 196.3125 L 164.871094 194.132812 C 164.742188 194.054688 164.660156 193.941406 164.625 193.796875 C 164.585938 193.652344 164.605469 193.515625 164.679688 193.386719 C 164.753906 193.257812 164.863281 193.171875 165.007812 193.128906 C 165.152344 193.089844 165.289062 193.105469 165.421875 193.175781 Z M 179.890625 168.390625 C 179.847656 168.242188 179.867188 168.097656 179.941406 167.964844 C 180.019531 167.828125 180.132812 167.742188 180.28125 167.703125 C 180.429688 167.660156 180.574219 167.679688 180.707031 167.757812 C 180.839844 167.839844 180.925781 167.953125 180.960938 168.105469 L 185.875 186.441406 C 185.917969 186.589844 185.898438 186.730469 185.824219 186.863281 C 185.746094 187 185.632812 187.085938 185.484375 187.125 C 185.335938 187.164062 185.195312 187.144531 185.0625 187.066406 C 184.929688 186.992188 184.84375 186.878906 184.808594 186.730469 Z M 161.242188 179.488281 C 161.136719 179.378906 161.085938 179.25 161.089844 179.101562 C 161.089844 178.949219 161.144531 178.820312 161.253906 178.714844 C 161.359375 178.609375 161.488281 178.554688 161.636719 178.554688 C 161.785156 178.550781 161.917969 178.601562 162.023438 178.707031 L 175.449219 192.128906 C 175.554688 192.238281 175.605469 192.367188 175.601562 192.519531 C 175.601562 192.667969 175.546875 192.796875 175.441406 192.902344 C 175.335938 193.007812 175.207031 193.0625 175.054688 193.066406 C 174.90625 193.066406 174.777344 193.015625 174.667969 192.914062 Z M 150.640625 198.425781 C 150.492188 198.382812 150.378906 198.296875 150.304688 198.164062 C 150.226562 198.03125 150.210938 197.890625 150.25 197.746094 C 150.289062 197.597656 150.375 197.484375 150.507812 197.410156 C 150.640625 197.332031 150.78125 197.316406 150.929688 197.355469 L 173.335938 203.359375 C 173.484375 203.394531 173.597656 203.480469 173.679688 203.613281 C 173.757812 203.746094 173.777344 203.890625 173.738281 204.039062 C 173.695312 204.1875 173.609375 204.300781 173.476562 204.378906 C 173.339844 204.453125 173.199219 204.472656 173.046875 204.429688 L 150.644531 198.425781 Z M 219.179688 255.964844 C 219.257812 256.09375 219.273438 256.234375 219.234375 256.382812 C 219.195312 256.53125 219.109375 256.640625 218.976562 256.71875 C 218.847656 256.792969 218.707031 256.8125 218.558594 256.773438 C 218.410156 256.734375 218.300781 256.648438 218.222656 256.515625 L 208.0625 238.925781 C 207.988281 238.792969 207.96875 238.652344 208.007812 238.507812 C 208.050781 238.359375 208.132812 238.246094 208.265625 238.171875 C 208.398438 238.09375 208.539062 238.074219 208.683594 238.113281 C 208.832031 238.152344 208.945312 238.238281 209.019531 238.371094 Z M 200.414062 225.675781 C 200.339844 225.542969 200.320312 225.402344 200.359375 225.253906 C 200.398438 225.109375 200.484375 224.996094 200.617188 224.921875 C 200.75 224.84375 200.886719 224.824219 201.035156 224.863281 C 201.183594 224.902344 201.292969 224.988281 201.371094 225.121094 L 206.84375 234.59375 C 206.917969 234.726562 206.9375 234.867188 206.898438 235.015625 C 206.859375 235.160156 206.773438 235.273438 206.640625 235.351562 C 206.507812 235.425781 206.367188 235.445312 206.222656 235.40625 C 206.074219 235.367188 205.960938 235.28125 205.886719 235.148438 Z M 239.050781 235.6875 L 221.460938 225.527344 C 221.328125 225.457031 221.191406 225.441406 221.046875 225.484375 C 220.902344 225.523438 220.792969 225.609375 220.71875 225.738281 C 220.644531 225.871094 220.625 226.007812 220.664062 226.152344 C 220.699219 226.296875 220.78125 226.40625 220.910156 226.484375 L 238.503906 236.644531 C 238.636719 236.722656 238.777344 236.742188 238.925781 236.707031 C 239.078125 236.667969 239.191406 236.582031 239.265625 236.445312 C 239.34375 236.3125 239.363281 236.167969 239.320312 236.019531 C 239.277344 235.871094 239.1875 235.761719 239.050781 235.6875 Z M 213.359375 222.125 C 213.222656 222.050781 213.132812 221.941406 213.089844 221.792969 C 213.046875 221.640625 213.066406 221.5 213.140625 221.367188 C 213.21875 221.230469 213.332031 221.144531 213.484375 221.105469 C 213.632812 221.066406 213.773438 221.089844 213.90625 221.167969 L 217.683594 223.347656 C 217.8125 223.425781 217.894531 223.539062 217.929688 223.683594 C 217.96875 223.828125 217.949219 223.964844 217.875 224.09375 C 217.800781 224.226562 217.691406 224.308594 217.546875 224.351562 C 217.402344 224.390625 217.265625 224.375 217.132812 224.304688 Z M 202.664062 249.089844 C 202.699219 249.238281 202.679688 249.375 202.601562 249.503906 C 202.523438 249.636719 202.414062 249.71875 202.269531 249.757812 C 202.121094 249.796875 201.984375 249.777344 201.851562 249.703125 C 201.722656 249.632812 201.636719 249.523438 201.59375 249.375 L 196.679688 231.039062 C 196.640625 230.890625 196.65625 230.75 196.734375 230.617188 C 196.808594 230.484375 196.921875 230.398438 197.070312 230.359375 C 197.21875 230.320312 197.355469 230.339844 197.488281 230.414062 C 197.621094 230.488281 197.707031 230.601562 197.75 230.75 L 202.664062 249.085938 Z M 221.308594 237.992188 C 221.421875 238.097656 221.480469 238.230469 221.480469 238.386719 C 221.484375 238.542969 221.429688 238.675781 221.320312 238.785156 C 221.210938 238.894531 221.074219 238.949219 220.921875 238.949219 C 220.765625 238.945312 220.632812 238.886719 220.527344 238.773438 L 207.101562 225.351562 C 206.988281 225.242188 206.929688 225.113281 206.929688 224.957031 C 206.925781 224.800781 206.980469 224.667969 207.089844 224.558594 C 207.199219 224.445312 207.332031 224.394531 207.488281 224.394531 C 207.644531 224.398438 207.777344 224.453125 207.882812 224.566406 Z M 231.910156 219.054688 C 232.058594 219.097656 232.167969 219.183594 232.246094 219.316406 C 232.320312 219.445312 232.339844 219.585938 232.300781 219.734375 C 232.257812 219.878906 232.175781 219.992188 232.042969 220.066406 C 231.910156 220.144531 231.773438 220.164062 231.625 220.125 L 209.21875 214.121094 C 209.074219 214.082031 208.960938 213.996094 208.882812 213.863281 C 208.808594 213.730469 208.789062 213.589844 208.828125 213.441406 C 208.871094 213.292969 208.957031 213.183594 209.089844 213.105469 C 209.222656 213.03125 209.363281 213.011719 209.511719 213.054688 L 231.914062 219.054688 Z M 191.828125 267.648438 C 191.828125 267.800781 191.773438 267.933594 191.667969 268.042969 C 191.558594 268.148438 191.425781 268.203125 191.273438 268.203125 C 191.121094 268.203125 190.992188 268.148438 190.882812 268.042969 C 190.773438 267.933594 190.71875 267.800781 190.71875 267.648438 L 190.71875 261.664062 C 190.71875 261.511719 190.773438 261.382812 190.882812 261.273438 C 190.992188 261.164062 191.121094 261.113281 191.273438 261.113281 C 191.425781 261.113281 191.558594 261.164062 191.667969 261.273438 C 191.773438 261.382812 191.828125 261.511719 191.828125 261.664062 Z M 164.328125 256.519531 C 164.25 256.648438 164.140625 256.734375 163.992188 256.773438 C 163.84375 256.8125 163.707031 256.792969 163.574219 256.71875 C 163.441406 256.640625 163.355469 256.53125 163.316406 256.382812 C 163.277344 256.238281 163.296875 256.097656 163.371094 255.964844 L 173.527344 238.371094 C 173.605469 238.242188 173.71875 238.15625 173.863281 238.117188 C 174.011719 238.078125 174.152344 238.09375 174.285156 238.171875 C 174.417969 238.246094 174.503906 238.359375 174.542969 238.507812 C 174.582031 238.65625 174.5625 238.792969 174.484375 238.925781 Z M 181.179688 225.121094 C 181.257812 224.992188 181.371094 224.90625 181.515625 224.867188 C 181.664062 224.828125 181.804688 224.847656 181.933594 224.921875 C 182.066406 225 182.152344 225.109375 182.191406 225.257812 C 182.230469 225.40625 182.214844 225.542969 182.136719 225.675781 L 176.664062 235.148438 C 176.589844 235.28125 176.476562 235.367188 176.328125 235.40625 C 176.183594 235.445312 176.042969 235.429688 175.910156 235.351562 C 175.777344 235.277344 175.691406 235.164062 175.652344 235.015625 C 175.613281 234.867188 175.632812 234.730469 175.707031 234.597656 Z M 144.050781 236.644531 C 143.917969 236.726562 143.777344 236.746094 143.625 236.707031 C 143.476562 236.667969 143.363281 236.582031 143.285156 236.449219 C 143.207031 236.3125 143.1875 236.171875 143.230469 236.023438 C 143.273438 235.875 143.363281 235.761719 143.5 235.6875 L 161.09375 225.53125 C 161.222656 225.460938 161.363281 225.445312 161.507812 225.484375 C 161.648438 225.527344 161.757812 225.613281 161.832031 225.742188 C 161.910156 225.871094 161.925781 226.007812 161.890625 226.152344 C 161.851562 226.300781 161.769531 226.410156 161.640625 226.488281 Z M 168.644531 221.171875 C 168.777344 221.089844 168.917969 221.070312 169.070312 221.109375 C 169.21875 221.148438 169.332031 221.234375 169.410156 221.367188 C 169.488281 221.503906 169.503906 221.644531 169.460938 221.792969 C 169.421875 221.941406 169.332031 222.054688 169.195312 222.128906 L 165.417969 224.308594 C 165.285156 224.386719 165.144531 224.410156 164.992188 224.371094 C 164.84375 224.332031 164.730469 224.246094 164.652344 224.109375 C 164.574219 223.976562 164.558594 223.835938 164.601562 223.683594 C 164.644531 223.535156 164.730469 223.425781 164.867188 223.351562 Z M 180.957031 249.378906 C 180.917969 249.53125 180.835938 249.644531 180.699219 249.722656 C 180.566406 249.800781 180.425781 249.820312 180.277344 249.78125 C 180.125 249.742188 180.011719 249.652344 179.9375 249.519531 C 179.859375 249.382812 179.84375 249.242188 179.886719 249.09375 L 184.800781 230.753906 C 184.839844 230.605469 184.929688 230.496094 185.0625 230.417969 C 185.191406 230.34375 185.332031 230.324219 185.480469 230.363281 C 185.628906 230.40625 185.742188 230.492188 185.816406 230.625 C 185.890625 230.757812 185.910156 230.894531 185.871094 231.042969 L 180.957031 249.382812 Z M 162.019531 238.777344 C 161.910156 238.878906 161.78125 238.929688 161.632812 238.929688 C 161.480469 238.925781 161.351562 238.871094 161.246094 238.765625 C 161.140625 238.660156 161.085938 238.53125 161.085938 238.382812 C 161.082031 238.234375 161.132812 238.101562 161.238281 237.992188 L 174.664062 224.570312 C 174.769531 224.464844 174.902344 224.414062 175.050781 224.417969 C 175.199219 224.417969 175.328125 224.472656 175.433594 224.582031 C 175.542969 224.6875 175.59375 224.816406 175.597656 224.964844 C 175.597656 225.113281 175.546875 225.246094 175.445312 225.351562 Z M 150.925781 220.125 C 150.777344 220.164062 150.636719 220.148438 150.503906 220.070312 C 150.371094 219.996094 150.285156 219.882812 150.246094 219.734375 C 150.203125 219.589844 150.222656 219.449219 150.300781 219.316406 C 150.375 219.183594 150.488281 219.097656 150.636719 219.054688 L 173.039062 213.054688 C 173.1875 213.015625 173.324219 213.039062 173.453125 213.113281 C 173.582031 213.191406 173.667969 213.300781 173.707031 213.449219 C 173.746094 213.59375 173.726562 213.730469 173.652344 213.863281 C 173.578125 213.992188 173.46875 214.078125 173.324219 214.121094 L 150.921875 220.125 Z M 201.230469 219.46875 C 200.527344 218.914062 199.78125 218.421875 198.992188 217.992188 C 198.207031 217.5625 197.390625 217.199219 196.542969 216.90625 C 195.695312 216.613281 194.828125 216.394531 193.945312 216.242188 C 193.058594 216.09375 192.167969 216.019531 191.273438 216.019531 C 190.375 216.019531 189.484375 216.09375 188.601562 216.242188 C 187.71875 216.394531 186.851562 216.613281 186.003906 216.90625 C 185.15625 217.199219 184.339844 217.5625 183.554688 217.992188 C 182.765625 218.421875 182.019531 218.914062 181.316406 219.46875 C 181.203125 219.542969 181.082031 219.578125 180.949219 219.566406 C 180.8125 219.554688 180.699219 219.5 180.605469 219.402344 C 180.511719 219.308594 180.457031 219.191406 180.445312 219.058594 C 180.433594 218.921875 180.46875 218.800781 180.546875 218.691406 C 181.101562 217.988281 181.59375 217.242188 182.023438 216.453125 C 182.453125 215.667969 182.816406 214.851562 183.109375 214.003906 C 183.402344 213.15625 183.621094 212.289062 183.773438 211.40625 C 183.921875 210.523438 183.996094 209.632812 183.996094 208.734375 C 183.996094 207.839844 183.921875 206.949219 183.773438 206.0625 C 183.621094 205.179688 183.402344 204.3125 183.109375 203.464844 C 182.816406 202.617188 182.453125 201.800781 182.023438 201.015625 C 181.59375 200.226562 181.101562 199.480469 180.546875 198.777344 C 180.46875 198.667969 180.4375 198.542969 180.449219 198.410156 C 180.460938 198.277344 180.515625 198.160156 180.613281 198.066406 C 180.707031 197.972656 180.820312 197.917969 180.957031 197.90625 C 181.089844 197.898438 181.214844 197.929688 181.324219 198.007812 C 182.027344 198.5625 182.773438 199.054688 183.558594 199.484375 C 184.347656 199.914062 185.164062 200.277344 186.011719 200.570312 C 186.859375 200.863281 187.726562 201.082031 188.609375 201.230469 C 189.492188 201.382812 190.382812 201.457031 191.28125 201.457031 C 192.175781 201.457031 193.066406 201.382812 193.953125 201.230469 C 194.835938 201.082031 195.703125 200.863281 196.546875 200.570312 C 197.394531 200.277344 198.214844 199.914062 199 199.484375 C 199.785156 199.054688 200.53125 198.5625 201.238281 198.007812 C 201.347656 197.933594 201.46875 197.898438 201.605469 197.910156 C 201.738281 197.921875 201.855469 197.976562 201.949219 198.074219 C 202.042969 198.167969 202.097656 198.285156 202.105469 198.417969 C 202.117188 198.550781 202.082031 198.675781 202.003906 198.785156 C 201.449219 199.488281 200.957031 200.234375 200.527344 201.023438 C 200.097656 201.808594 199.738281 202.625 199.445312 203.472656 C 199.152344 204.320312 198.929688 205.1875 198.78125 206.070312 C 198.632812 206.953125 198.558594 207.84375 198.558594 208.742188 C 198.558594 209.636719 198.632812 210.527344 198.78125 211.414062 C 198.929688 212.296875 199.152344 213.164062 199.445312 214.011719 C 199.738281 214.859375 200.097656 215.675781 200.527344 216.460938 C 200.957031 217.25 201.449219 217.996094 202.003906 218.699219 C 202.082031 218.808594 202.117188 218.933594 202.101562 219.066406 C 202.089844 219.199219 202.039062 219.316406 201.941406 219.410156 C 201.847656 219.503906 201.730469 219.558594 201.597656 219.570312 C 201.460938 219.578125 201.339844 219.546875 201.230469 219.46875 Z M 191.277344 214.914062 C 188.226562 214.953125 185.382812 215.738281 182.742188 217.273438 C 183.515625 215.984375 184.101562 214.613281 184.5 213.167969 C 184.902344 211.71875 185.101562 210.242188 185.101562 208.742188 C 185.101562 207.238281 184.902344 205.761719 184.5 204.316406 C 184.101562 202.867188 183.515625 201.496094 182.742188 200.207031 C 184.03125 200.980469 185.402344 201.566406 186.851562 201.964844 C 188.296875 202.367188 189.773438 202.566406 191.277344 202.566406 C 192.777344 202.566406 194.253906 202.367188 195.703125 201.964844 C 197.148438 201.566406 198.519531 200.980469 199.808594 200.207031 C 199.035156 201.496094 198.449219 202.867188 198.050781 204.316406 C 197.648438 205.761719 197.449219 207.238281 197.449219 208.742188 C 197.449219 210.242188 197.648438 211.71875 198.050781 213.167969 C 198.449219 214.613281 199.035156 215.984375 199.808594 217.273438 C 197.171875 215.738281 194.328125 214.953125 191.277344 214.914062 Z M 265.1875 208.742188 C 265.1875 210.570312 265.132812 212.398438 265.027344 214.226562 C 264.925781 216.054688 264.765625 217.878906 264.558594 219.699219 C 264.347656 221.515625 264.085938 223.328125 263.773438 225.132812 C 263.460938 226.933594 263.097656 228.726562 262.679688 230.511719 C 262.265625 232.292969 261.800781 234.0625 261.28125 235.820312 C 260.765625 237.574219 260.199219 239.316406 259.582031 241.039062 C 258.964844 242.761719 258.300781 244.46875 257.585938 246.152344 C 256.871094 247.839844 256.109375 249.5 255.296875 251.144531 C 254.488281 252.785156 253.632812 254.402344 252.730469 255.996094 C 251.828125 257.589844 250.882812 259.152344 249.890625 260.691406 C 248.898438 262.230469 247.863281 263.738281 246.78125 265.21875 C 245.703125 266.699219 244.585938 268.144531 243.421875 269.5625 C 242.261719 270.976562 241.0625 272.355469 239.820312 273.703125 C 238.582031 275.050781 237.300781 276.359375 235.988281 277.632812 C 234.671875 278.90625 233.320312 280.140625 231.933594 281.335938 C 230.546875 282.53125 229.128906 283.6875 227.675781 284.800781 C 226.222656 285.914062 224.742188 286.988281 223.226562 288.015625 C 221.714844 289.046875 220.171875 290.03125 218.601562 290.972656 C 217.03125 291.914062 215.433594 292.808594 213.8125 293.660156 C 212.191406 294.507812 210.546875 295.3125 208.878906 296.066406 C 207.210938 296.820312 205.523438 297.53125 203.816406 298.1875 C 202.109375 298.847656 200.382812 299.457031 198.640625 300.015625 C 196.898438 300.578125 195.140625 301.085938 193.367188 301.546875 C 191.597656 302.003906 189.8125 302.414062 188.015625 302.769531 C 186.222656 303.128906 184.417969 303.433594 182.605469 303.6875 C 180.789062 303.941406 178.972656 304.140625 177.148438 304.292969 C 175.324219 304.441406 173.496094 304.539062 171.664062 304.582031 C 169.835938 304.628906 168.003906 304.621094 166.175781 304.5625 C 164.347656 304.5 162.519531 304.390625 160.695312 304.222656 C 158.875 304.058594 157.054688 303.84375 155.246094 303.574219 C 153.433594 303.304688 151.632812 302.984375 149.839844 302.613281 C 148.046875 302.242188 146.269531 301.820312 144.5 301.34375 C 142.730469 300.871094 140.976562 300.347656 139.238281 299.773438 C 137.5 299.199219 135.78125 298.574219 134.078125 297.902344 C 132.375 297.230469 130.695312 296.507812 129.03125 295.738281 C 127.371094 294.96875 125.734375 294.15625 124.117188 293.292969 C 122.503906 292.429688 120.917969 291.519531 119.355469 290.566406 C 117.792969 289.613281 116.257812 288.613281 114.753906 287.574219 C 113.246094 286.53125 111.773438 285.445312 110.328125 284.320312 C 108.886719 283.195312 107.476562 282.027344 106.101562 280.820312 C 104.722656 279.613281 103.382812 278.367188 102.078125 277.082031 C 100.773438 275.800781 99.503906 274.480469 98.277344 273.125 C 97.046875 271.765625 95.855469 270.375 94.707031 268.953125 C 93.558594 267.527344 92.449219 266.070312 91.382812 264.582031 C 90.316406 263.09375 89.292969 261.578125 88.316406 260.03125 C 87.335938 258.484375 86.402344 256.910156 85.511719 255.3125 C 84.621094 253.710938 83.78125 252.085938 82.984375 250.4375 C 82.1875 248.789062 81.4375 247.121094 80.738281 245.429688 C 80.039062 243.738281 79.386719 242.027344 78.785156 240.296875 C 78.179688 238.570312 77.628906 236.824219 77.125 235.066406 C 76.625 233.304688 76.171875 231.53125 75.769531 229.746094 C 75.371094 227.960938 75.019531 226.164062 74.722656 224.355469 C 74.421875 222.550781 74.175781 220.738281 73.984375 218.917969 C 73.789062 217.097656 73.644531 215.273438 73.554688 213.445312 C 73.464844 211.613281 73.429688 209.785156 73.445312 207.953125 C 73.460938 206.125 73.527344 204.296875 73.644531 202.46875 C 73.765625 200.640625 73.9375 198.820312 74.160156 197.003906 C 74.386719 195.1875 74.660156 193.378906 74.988281 191.578125 C 75.316406 189.777344 75.695312 187.984375 76.125 186.207031 C 76.558594 184.425781 77.039062 182.660156 77.570312 180.910156 C 78.101562 179.15625 78.683594 177.421875 79.3125 175.703125 C 79.941406 173.984375 80.621094 172.285156 81.351562 170.605469 C 82.078125 168.925781 82.855469 167.269531 83.679688 165.632812 C 84.5 164 85.371094 162.386719 86.285156 160.804688 C 87.199219 159.21875 88.160156 157.660156 89.164062 156.128906 C 90.167969 154.597656 91.21875 153.097656 92.308594 151.628906 C 93.398438 150.15625 94.53125 148.71875 95.703125 147.3125 C 96.875 145.910156 98.089844 144.539062 99.339844 143.203125 C 100.589844 141.867188 101.878906 140.566406 103.207031 139.304688 C 104.53125 138.042969 105.890625 136.820312 107.289062 135.632812 C 108.683594 134.449219 110.113281 133.304688 111.574219 132.203125 C 113.035156 131.101562 114.527344 130.042969 116.050781 129.023438 C 117.570312 128.007812 119.121094 127.035156 120.699219 126.105469 C 122.277344 125.179688 123.878906 124.296875 125.507812 123.460938 C 127.136719 122.625 128.789062 121.832031 130.460938 121.09375 C 132.136719 120.351562 133.828125 119.65625 135.542969 119.011719 C 137.253906 118.367188 138.984375 117.773438 140.734375 117.226562 C 142.480469 116.679688 144.242188 116.183594 146.019531 115.742188 C 147.792969 115.296875 149.582031 114.902344 151.378906 114.558594 C 153.179688 114.21875 154.984375 113.925781 156.800781 113.6875 C 158.613281 113.449219 160.433594 113.261719 162.261719 113.128906 C 164.085938 112.992188 165.914062 112.910156 167.746094 112.878906 C 169.574219 112.851562 171.40625 112.871094 173.234375 112.949219 C 175.0625 113.023438 176.890625 113.148438 178.710938 113.328125 C 180.53125 113.507812 182.347656 113.738281 184.15625 114.023438 C 185.964844 114.304688 187.765625 114.640625 189.554688 115.027344 C 191.34375 115.414062 193.121094 115.851562 194.882812 116.339844 C 196.648438 116.828125 198.398438 117.367188 200.128906 117.957031 C 201.863281 118.542969 203.578125 119.179688 205.277344 119.867188 C 206.972656 120.554688 208.648438 121.289062 210.304688 122.070312 C 211.960938 122.855469 213.589844 123.683594 215.199219 124.558594 C 216.804688 125.4375 218.386719 126.359375 219.941406 127.324219 C 221.496094 128.292969 223.019531 129.300781 224.515625 130.355469 C 226.015625 131.410156 227.480469 132.507812 228.914062 133.644531 C 230.347656 134.78125 231.746094 135.960938 233.113281 137.179688 C 234.480469 138.398438 235.8125 139.652344 237.105469 140.949219 C 239.328125 143.164062 241.4375 145.488281 243.433594 147.914062 C 245.425781 150.339844 247.296875 152.855469 249.042969 155.464844 C 250.792969 158.078125 252.40625 160.765625 253.886719 163.535156 C 255.367188 166.304688 256.710938 169.140625 257.910156 172.042969 C 259.113281 174.941406 260.167969 177.898438 261.078125 180.902344 C 261.992188 183.90625 262.75 186.949219 263.363281 190.03125 C 263.972656 193.113281 264.429688 196.214844 264.734375 199.339844 C 265.039062 202.464844 265.191406 205.601562 265.1875 208.742188 Z M 102.042969 202.234375 C 103.054688 203.820312 104.351562 205.125 105.929688 206.148438 C 107.546875 207.199219 109.308594 207.878906 111.210938 208.195312 C 111.34375 208.21875 111.457031 208.28125 111.542969 208.386719 C 111.628906 208.488281 111.671875 208.609375 111.671875 208.746094 C 111.671875 208.878906 111.625 209 111.539062 209.101562 C 111.449219 209.203125 111.339844 209.265625 111.203125 209.289062 C 109.304688 209.601562 107.546875 210.285156 105.929688 211.332031 C 104.347656 212.355469 103.050781 213.660156 102.039062 215.25 C 101.988281 215.332031 101.921875 215.394531 101.839844 215.441406 C 101.753906 215.488281 101.664062 215.511719 101.570312 215.511719 C 101.476562 215.511719 101.386719 215.488281 101.300781 215.441406 C 101.21875 215.394531 101.152344 215.332031 101.101562 215.25 C 100.089844 213.664062 98.792969 212.359375 97.214844 211.335938 C 95.59375 210.289062 93.835938 209.605469 91.933594 209.289062 C 91.796875 209.265625 91.6875 209.203125 91.601562 209.097656 C 91.515625 208.996094 91.472656 208.875 91.472656 208.738281 C 91.472656 208.605469 91.515625 208.484375 91.605469 208.382812 C 91.695312 208.28125 91.804688 208.21875 91.941406 208.195312 C 93.839844 207.882812 95.597656 207.199219 97.210938 206.152344 C 98.792969 205.128906 100.09375 203.820312 101.105469 202.230469 C 101.15625 202.152344 101.222656 202.085938 101.304688 202.039062 C 101.390625 201.992188 101.480469 201.96875 101.574219 201.972656 C 101.671875 201.972656 101.761719 201.996094 101.84375 202.042969 C 101.929688 202.089844 101.996094 202.15625 102.046875 202.238281 Z M 105.328125 207.074219 C 106.417969 207.78125 107.578125 208.335938 108.8125 208.738281 C 107.578125 209.144531 106.417969 209.699219 105.328125 210.40625 C 103.855469 211.359375 102.601562 212.546875 101.570312 213.96875 C 100.539062 212.546875 99.289062 211.359375 97.8125 210.40625 C 96.726562 209.699219 95.566406 209.144531 94.332031 208.738281 C 95.566406 208.335938 96.726562 207.78125 97.8125 207.074219 C 99.289062 206.117188 100.539062 204.929688 101.570312 203.507812 C 102.601562 204.929688 103.855469 206.117188 105.328125 207.074219 Z M 196.039062 128.261719 C 204.714844 131.144531 212.707031 135.324219 220.027344 140.796875 C 220.140625 140.878906 220.210938 140.992188 220.238281 141.128906 C 220.265625 141.265625 220.246094 141.394531 220.175781 141.515625 C 220.109375 141.636719 220.007812 141.71875 219.875 141.765625 C 219.742188 141.808594 219.609375 141.804688 219.480469 141.75 C 215.027344 139.871094 210.429688 138.457031 205.691406 137.5 C 204.378906 137.238281 203.058594 137.011719 201.730469 136.820312 C 200.40625 136.628906 199.074219 136.472656 197.742188 136.355469 C 196.40625 136.238281 195.070312 136.15625 193.730469 136.113281 C 192.394531 136.070312 191.054688 136.0625 189.714844 136.09375 C 188.375 136.125 187.039062 136.191406 185.703125 136.296875 C 184.367188 136.398438 183.035156 136.539062 181.707031 136.71875 C 180.378906 136.898438 179.058594 137.113281 177.742188 137.363281 C 176.425781 137.613281 175.117188 137.902344 173.820312 138.222656 C 172.519531 138.546875 171.226562 138.90625 169.949219 139.300781 C 168.667969 139.695312 167.398438 140.125 166.144531 140.589844 C 164.886719 141.054688 163.644531 141.554688 162.417969 142.089844 C 161.1875 142.621094 159.972656 143.1875 158.777344 143.789062 C 157.578125 144.390625 156.398438 145.023438 155.238281 145.691406 C 154.074219 146.355469 152.933594 147.054688 151.808594 147.78125 C 150.683594 148.511719 149.582031 149.269531 148.5 150.0625 C 147.417969 150.851562 146.359375 151.671875 145.324219 152.519531 C 144.285156 153.367188 143.273438 154.246094 142.285156 155.148438 C 141.296875 156.054688 140.335938 156.984375 139.398438 157.945312 C 138.464844 158.902344 137.554688 159.882812 136.671875 160.894531 C 135.789062 161.902344 134.9375 162.933594 134.109375 163.988281 C 133.285156 165.042969 132.492188 166.121094 131.726562 167.21875 C 130.960938 168.320312 130.226562 169.4375 129.523438 170.578125 C 128.820312 171.71875 128.148438 172.878906 127.507812 174.054688 C 126.867188 175.230469 126.261719 176.425781 125.6875 177.636719 C 125.113281 178.847656 124.574219 180.074219 124.070312 181.3125 C 123.5625 182.554688 123.09375 183.808594 122.65625 185.074219 C 122.21875 186.339844 121.820312 187.617188 121.453125 188.90625 C 121.089844 190.195312 120.757812 191.492188 120.464844 192.800781 C 120.171875 194.105469 119.914062 195.421875 119.691406 196.742188 C 119.472656 198.0625 119.285156 199.390625 119.140625 200.722656 C 118.992188 202.054688 118.878906 203.386719 118.804688 204.726562 C 118.730469 206.0625 118.695312 207.402344 118.695312 208.742188 C 118.695312 210.082031 118.730469 211.417969 118.804688 212.757812 C 118.878906 214.09375 118.992188 215.429688 119.136719 216.761719 C 119.285156 218.089844 119.472656 219.417969 119.691406 220.738281 C 119.914062 222.058594 120.171875 223.375 120.464844 224.679688 C 120.757812 225.988281 121.089844 227.285156 121.453125 228.574219 C 121.820312 229.863281 122.21875 231.140625 122.65625 232.40625 C 123.09375 233.675781 123.5625 234.925781 124.070312 236.167969 C 124.574219 237.410156 125.113281 238.632812 125.6875 239.84375 C 126.261719 241.054688 126.867188 242.25 127.507812 243.425781 C 128.148438 244.605469 128.820312 245.761719 129.523438 246.902344 C 130.226562 248.042969 130.960938 249.160156 131.726562 250.261719 C 132.492188 251.359375 133.285156 252.4375 134.109375 253.492188 C 134.9375 254.550781 135.789062 255.582031 136.671875 256.589844 C 137.554688 257.597656 138.464844 258.578125 139.398438 259.539062 C 140.335938 260.496094 141.296875 261.425781 142.285156 262.332031 C 143.273438 263.238281 144.285156 264.113281 145.324219 264.960938 C 146.359375 265.8125 147.417969 266.628906 148.5 267.421875 C 149.582031 268.210938 150.683594 268.96875 151.808594 269.699219 C 152.933594 270.429688 154.074219 271.125 155.238281 271.792969 C 156.398438 272.457031 157.578125 273.089844 158.777344 273.691406 C 159.972656 274.292969 161.1875 274.859375 162.417969 275.394531 C 163.644531 275.925781 164.886719 276.425781 166.144531 276.890625 C 167.398438 277.355469 168.667969 277.785156 169.949219 278.179688 C 171.226562 278.574219 172.519531 278.933594 173.820312 279.257812 C 175.117188 279.582031 176.425781 279.867188 177.742188 280.117188 C 179.058594 280.371094 180.378906 280.585938 181.707031 280.761719 C 183.035156 280.941406 184.367188 281.082031 185.703125 281.1875 C 187.039062 281.289062 188.375 281.359375 189.714844 281.386719 C 191.054688 281.417969 192.394531 281.410156 193.730469 281.367188 C 195.070312 281.324219 196.40625 281.242188 197.742188 281.125 C 199.074219 281.007812 200.40625 280.855469 201.730469 280.664062 C 203.058594 280.472656 204.378906 280.242188 205.691406 279.980469 C 210.414062 279.027344 215 277.617188 219.441406 275.75 C 219.570312 275.683594 219.703125 275.671875 219.839844 275.707031 C 219.976562 275.746094 220.085938 275.828125 220.160156 275.949219 C 220.238281 276.070312 220.261719 276.203125 220.238281 276.34375 C 220.210938 276.484375 220.140625 276.597656 220.027344 276.683594 C 218.574219 277.765625 217.089844 278.800781 215.570312 279.789062 C 214.050781 280.773438 212.5 281.710938 210.921875 282.601562 C 209.34375 283.488281 207.738281 284.324219 206.105469 285.109375 C 204.472656 285.894531 202.816406 286.625 201.136719 287.304688 C 199.457031 287.984375 197.757812 288.609375 196.039062 289.175781 C 194.320312 289.746094 192.582031 290.261719 190.832031 290.71875 C 189.078125 291.179688 187.3125 291.578125 185.535156 291.925781 C 183.757812 292.269531 181.96875 292.558594 180.171875 292.789062 C 178.375 293.019531 176.574219 293.191406 174.765625 293.308594 C 172.957031 293.421875 171.148438 293.480469 169.335938 293.480469 C 167.527344 293.476562 165.714844 293.417969 163.910156 293.300781 C 162.101562 293.183594 160.296875 293.011719 158.503906 292.777344 C 156.707031 292.546875 154.917969 292.253906 153.140625 291.90625 C 151.363281 291.5625 149.597656 291.15625 147.847656 290.695312 C 146.09375 290.238281 144.359375 289.722656 142.640625 289.148438 C 140.921875 288.578125 139.222656 287.953125 137.542969 287.273438 C 135.863281 286.589844 134.207031 285.859375 132.578125 285.070312 C 130.945312 284.285156 129.339844 283.445312 127.761719 282.558594 C 126.183594 281.667969 124.636719 280.730469 123.117188 279.738281 C 121.601562 278.75 120.117188 277.714844 118.664062 276.632812 C 117.214844 275.546875 115.796875 274.417969 114.417969 273.242188 C 113.039062 272.070312 111.699219 270.851562 110.398438 269.589844 C 109.097656 268.328125 107.839844 267.027344 106.621094 265.6875 C 105.40625 264.347656 104.230469 262.96875 103.101562 261.550781 C 101.972656 260.132812 100.890625 258.683594 99.855469 257.199219 C 98.820312 255.710938 97.832031 254.195312 96.890625 252.644531 C 95.953125 251.097656 95.066406 249.519531 94.226562 247.910156 C 93.390625 246.304688 92.605469 244.675781 91.871094 243.019531 C 91.140625 241.363281 90.460938 239.683594 89.835938 237.984375 C 89.210938 236.28125 88.640625 234.566406 88.125 232.828125 C 87.609375 231.089844 87.148438 229.339844 86.746094 227.574219 C 86.34375 225.808594 85.996094 224.03125 85.707031 222.242188 C 85.417969 220.453125 85.1875 218.660156 85.015625 216.855469 C 84.839844 215.054688 84.722656 213.246094 84.667969 211.433594 C 84.609375 209.625 84.609375 207.816406 84.667969 206.003906 C 84.722656 204.195312 84.839844 202.386719 85.015625 200.582031 C 85.1875 198.78125 85.417969 196.984375 85.707031 195.195312 C 85.996094 193.410156 86.34375 191.632812 86.746094 189.867188 C 87.148438 188.097656 87.609375 186.347656 88.125 184.613281 C 88.640625 182.875 89.210938 181.15625 89.835938 179.457031 C 90.460938 177.757812 91.140625 176.078125 91.871094 174.421875 C 92.605469 172.765625 93.390625 171.132812 94.226562 169.527344 C 95.066406 167.921875 95.953125 166.34375 96.894531 164.792969 C 97.832031 163.246094 98.820312 161.726562 99.855469 160.242188 C 100.890625 158.757812 101.972656 157.304688 103.101562 155.886719 C 104.230469 154.472656 105.40625 153.09375 106.621094 151.75 C 107.839844 150.410156 109.097656 149.109375 110.402344 147.847656 C 111.703125 146.589844 113.042969 145.371094 114.421875 144.195312 C 115.800781 143.023438 117.214844 141.894531 118.664062 140.808594 C 120.117188 139.726562 121.601562 138.6875 123.121094 137.699219 C 124.636719 136.710938 126.183594 135.773438 127.761719 134.882812 C 129.339844 133.992188 130.945312 133.15625 132.578125 132.367188 C 134.210938 131.582031 135.863281 130.847656 137.542969 130.167969 C 139.222656 129.488281 140.921875 128.863281 142.640625 128.289062 C 144.359375 127.71875 146.09375 127.203125 147.847656 126.742188 C 149.597656 126.28125 151.363281 125.878906 153.140625 125.53125 C 154.917969 125.183594 156.707031 124.894531 158.503906 124.664062 C 160.300781 124.429688 162.101562 124.253906 163.910156 124.136719 C 165.71875 124.023438 167.527344 123.960938 169.335938 123.960938 C 171.148438 123.960938 172.957031 124.019531 174.765625 124.132812 C 176.574219 124.25 178.375 124.421875 180.171875 124.652344 C 181.96875 124.882812 183.757812 125.171875 185.535156 125.515625 C 187.3125 125.859375 189.078125 126.261719 190.832031 126.722656 C 192.585938 127.179688 194.320312 127.695312 196.039062 128.261719 Z M 196.039062 128.261719 " fill-opacity="1" fill-rule="evenodd"/></g><path stroke-linecap="round" transform="matrix(0.53033, 0.53033, -0.53033, 0.53033, 11.202496, 49.82499)" fill="none" stroke-linejoin="miter" d="M 1.0016 1.000414 L 107.524297 1.000414 " stroke="#edcca2" stroke-width="2" stroke-opacity="1" stroke-miterlimit="4"/><path stroke-linecap="round" transform="matrix(0.53033, 0.53033, -0.53033, 0.53033, 271.524421, 310.146894)" fill="none" stroke-linejoin="miter" d="M 0.99858 1.000434 L 107.521277 1.000434 " stroke="#edcca2" stroke-width="2" stroke-opacity="1" stroke-miterlimit="4"/><g fill="#edcca2" fill-opacity="1"><g transform="translate(96.830771, 56.225095)"><g><path d="M 22.65625 -8.296875 L -0.6875 -25.78125 L 6.0625 -7.359375 C 6.289062 -6.734375 6.5625 -6.265625 6.875 -5.953125 C 7.1875 -5.640625 7.523438 -5.4375 7.890625 -5.34375 C 8.253906 -5.25 8.648438 -5.242188 9.078125 -5.328125 C 9.503906 -5.410156 9.9375 -5.53125 10.375 -5.6875 L 10.90625 -5.890625 L 11.515625 -4.21875 L 1.515625 -0.546875 L 0.90625 -2.21875 L 1.421875 -2.40625 C 1.867188 -2.570312 2.273438 -2.757812 2.640625 -2.96875 C 3.015625 -3.175781 3.3125 -3.4375 3.53125 -3.75 C 3.757812 -4.0625 3.890625 -4.4375 3.921875 -4.875 C 3.953125 -5.3125 3.851562 -5.84375 3.625 -6.46875 L -3.515625 -25.984375 C -3.734375 -26.566406 -3.992188 -27.003906 -4.296875 -27.296875 C -4.597656 -27.597656 -4.929688 -27.789062 -5.296875 -27.875 C -5.671875 -27.96875 -6.066406 -27.96875 -6.484375 -27.875 C -6.898438 -27.78125 -7.328125 -27.648438 -7.765625 -27.484375 L -8.28125 -27.296875 L -8.890625 -28.96875 L -1.609375 -31.640625 L 20.71875 -14.84375 L 14.265625 -32.484375 C 14.046875 -33.066406 13.78125 -33.503906 13.46875 -33.796875 C 13.164062 -34.097656 12.828125 -34.289062 12.453125 -34.375 C 12.085938 -34.46875 11.695312 -34.46875 11.28125 -34.375 C 10.863281 -34.28125 10.4375 -34.15625 10 -34 L 9.46875 -33.796875 L 8.859375 -35.46875 L 18.84375 -39.125 L 19.453125 -37.453125 L 18.96875 -37.28125 C 18.507812 -37.113281 18.09375 -36.925781 17.71875 -36.71875 C 17.351562 -36.507812 17.054688 -36.25 16.828125 -35.9375 C 16.609375 -35.625 16.476562 -35.25 16.4375 -34.8125 C 16.40625 -34.375 16.503906 -33.847656 16.734375 -33.234375 L 25.484375 -9.328125 Z M 22.65625 -8.296875 "/></g></g></g><g fill="#edcca2" fill-opacity="1"><g transform="translate(137.108111, 42.873309)"><g><path d="M 27.328125 -18.078125 C 27.566406 -15.753906 27.5 -13.609375 27.125 -11.640625 C 26.75 -9.671875 26.066406 -7.945312 25.078125 -6.46875 C 24.097656 -5 22.820312 -3.804688 21.25 -2.890625 C 19.6875 -1.972656 17.835938 -1.40625 15.703125 -1.1875 C 13.460938 -0.957031 11.472656 -1.128906 9.734375 -1.703125 C 7.992188 -2.273438 6.503906 -3.179688 5.265625 -4.421875 C 4.023438 -5.671875 3.03125 -7.226562 2.28125 -9.09375 C 1.53125 -10.957031 1.035156 -13.054688 0.796875 -15.390625 C 0.554688 -17.722656 0.613281 -19.863281 0.96875 -21.8125 C 1.320312 -23.769531 1.976562 -25.476562 2.9375 -26.9375 C 3.90625 -28.394531 5.1875 -29.578125 6.78125 -30.484375 C 8.382812 -31.398438 10.304688 -31.976562 12.546875 -32.21875 C 14.671875 -32.4375 16.585938 -32.257812 18.296875 -31.6875 C 20.015625 -31.113281 21.503906 -30.207031 22.765625 -28.96875 C 24.023438 -27.738281 25.039062 -26.203125 25.8125 -24.359375 C 26.582031 -22.523438 27.085938 -20.429688 27.328125 -18.078125 Z M 5.484375 -15.8125 C 5.703125 -13.726562 6.050781 -11.882812 6.53125 -10.28125 C 7.007812 -8.675781 7.648438 -7.34375 8.453125 -6.28125 C 9.253906 -5.21875 10.226562 -4.441406 11.375 -3.953125 C 12.53125 -3.460938 13.894531 -3.296875 15.46875 -3.453125 C 17.03125 -3.617188 18.328125 -4.054688 19.359375 -4.765625 C 20.390625 -5.484375 21.1875 -6.441406 21.75 -7.640625 C 22.3125 -8.847656 22.65625 -10.285156 22.78125 -11.953125 C 22.914062 -13.628906 22.875 -15.507812 22.65625 -17.59375 C 22.445312 -19.6875 22.101562 -21.535156 21.625 -23.140625 C 21.15625 -24.753906 20.523438 -26.085938 19.734375 -27.140625 C 18.941406 -28.191406 17.972656 -28.957031 16.828125 -29.4375 C 15.691406 -29.914062 14.34375 -30.078125 12.78125 -29.921875 C 11.207031 -29.753906 9.90625 -29.316406 8.875 -28.609375 C 7.84375 -27.910156 7.035156 -26.960938 6.453125 -25.765625 C 5.867188 -24.578125 5.507812 -23.144531 5.375 -21.46875 C 5.238281 -19.789062 5.273438 -17.90625 5.484375 -15.8125 Z M 5.484375 -15.8125 "/></g></g></g><g fill="#edcca2" fill-opacity="1"><g transform="translate(178.296788, 39.394354)"><g><path d="M 26.515625 4.421875 L 26.8125 2.671875 L 26.9375 2.703125 C 27.394531 2.773438 27.804688 2.804688 28.171875 2.796875 C 28.546875 2.796875 28.875 2.722656 29.15625 2.578125 C 29.4375 2.441406 29.679688 2.210938 29.890625 1.890625 C 30.109375 1.566406 30.273438 1.125 30.390625 0.5625 L 34.125 -21.78125 L 20.078125 3.359375 L 17.8125 2.96875 L 12.5625 -25.28125 L 8.90625 -3.40625 C 8.789062 -2.75 8.769531 -2.210938 8.84375 -1.796875 C 8.914062 -1.378906 9.066406 -1.039062 9.296875 -0.78125 C 9.523438 -0.53125 9.820312 -0.335938 10.1875 -0.203125 C 10.550781 -0.078125 10.960938 0.0234375 11.421875 0.109375 L 11.546875 0.125 L 11.25 1.875 L 1.59375 0.265625 L 1.890625 -1.484375 L 2.421875 -1.390625 C 2.890625 -1.316406 3.332031 -1.273438 3.75 -1.265625 C 4.175781 -1.265625 4.5625 -1.332031 4.90625 -1.46875 C 5.257812 -1.601562 5.554688 -1.84375 5.796875 -2.1875 C 6.035156 -2.539062 6.207031 -3.023438 6.3125 -3.640625 L 9.765625 -24.34375 C 9.867188 -24.957031 9.863281 -25.460938 9.75 -25.859375 C 9.632812 -26.265625 9.429688 -26.597656 9.140625 -26.859375 C 8.859375 -27.117188 8.515625 -27.3125 8.109375 -27.4375 C 7.710938 -27.5625 7.28125 -27.660156 6.8125 -27.734375 L 6.28125 -27.828125 L 6.578125 -29.59375 L 16.109375 -28 L 20.78125 -2.65625 L 33.359375 -25.125 L 42.625 -23.578125 L 42.328125 -21.8125 L 41.796875 -21.90625 C 41.316406 -21.976562 40.863281 -22.015625 40.4375 -22.015625 C 40.019531 -22.015625 39.632812 -21.9375 39.28125 -21.78125 C 38.9375 -21.625 38.640625 -21.363281 38.390625 -21 C 38.148438 -20.632812 37.972656 -20.128906 37.859375 -19.484375 L 34.46875 0.859375 C 34.351562 1.515625 34.351562 2.054688 34.46875 2.484375 C 34.59375 2.910156 34.789062 3.253906 35.0625 3.515625 C 35.34375 3.785156 35.679688 3.988281 36.078125 4.125 C 36.484375 4.257812 36.925781 4.363281 37.40625 4.4375 L 37.9375 4.53125 L 37.640625 6.28125 Z M 26.515625 4.421875 "/></g></g></g><g fill="#edcca2" fill-opacity="1"><g transform="translate(226.904452, 49.655426)"><g><path d="M 9.921875 2.125 L 17.375 5.453125 C 18 5.734375 18.566406 5.882812 19.078125 5.90625 C 19.597656 5.925781 20.066406 5.851562 20.484375 5.6875 C 20.898438 5.53125 21.273438 5.296875 21.609375 4.984375 C 21.941406 4.671875 22.238281 4.316406 22.5 3.921875 L 23.484375 2.375 L 25.515625 3.28125 L 22.234375 9.921875 L 1.46875 0.65625 L 2.1875 -0.96875 L 2.6875 -0.75 C 3.113281 -0.550781 3.53125 -0.394531 3.9375 -0.28125 C 4.351562 -0.164062 4.742188 -0.128906 5.109375 -0.171875 C 5.484375 -0.222656 5.832031 -0.382812 6.15625 -0.65625 C 6.476562 -0.925781 6.769531 -1.347656 7.03125 -1.921875 L 15.515625 -20.9375 C 15.785156 -21.539062 15.921875 -22.0625 15.921875 -22.5 C 15.921875 -22.9375 15.816406 -23.316406 15.609375 -23.640625 C 15.410156 -23.972656 15.128906 -24.253906 14.765625 -24.484375 C 14.410156 -24.722656 14.015625 -24.941406 13.578125 -25.140625 L 13.078125 -25.359375 L 13.8125 -26.984375 L 33.328125 -18.265625 L 30.484375 -11.421875 L 28.484375 -12.3125 L 29.03125 -14.078125 C 29.1875 -14.523438 29.273438 -14.972656 29.296875 -15.421875 C 29.328125 -15.867188 29.269531 -16.296875 29.125 -16.703125 C 28.976562 -17.109375 28.738281 -17.484375 28.40625 -17.828125 C 28.082031 -18.179688 27.628906 -18.488281 27.046875 -18.75 L 20.546875 -21.65625 L 15.9375 -11.359375 L 25.265625 -7.1875 L 24.4375 -5.3125 L 15.109375 -9.484375 Z M 9.921875 2.125 "/></g></g></g><g fill="#edcca2" fill-opacity="1"><g transform="translate(260.434593, 66.446115)"><g/></g></g><g fill="#edcca2" fill-opacity="1"><g transform="translate(278.600919, 78.962909)"><g><path d="M 13.21875 -1.125 L 8.9375 0.890625 C 8.601562 1.023438 8.300781 1.179688 8.03125 1.359375 C 7.757812 1.546875 7.535156 1.726562 7.359375 1.90625 C 6.867188 2.40625 6.664062 2.9375 6.75 3.5 C 6.84375 4.0625 7.222656 4.675781 7.890625 5.34375 L 8.59375 6.03125 L 7.34375 7.296875 L 0 0 L 1.25 -1.265625 L 1.828125 -0.6875 C 2.117188 -0.40625 2.394531 -0.191406 2.65625 -0.046875 C 2.925781 0.0976562 3.234375 0.160156 3.578125 0.140625 C 3.921875 0.128906 4.316406 0.0507812 4.765625 -0.09375 C 5.222656 -0.25 5.785156 -0.472656 6.453125 -0.765625 L 30.875 -11.984375 L 33.21875 -9.640625 L 21.53125 15.71875 C 21.332031 16.144531 21.191406 16.519531 21.109375 16.84375 C 21.023438 17.175781 21.003906 17.484375 21.046875 17.765625 C 21.097656 18.054688 21.203125 18.332031 21.359375 18.59375 C 21.523438 18.851562 21.757812 19.128906 22.0625 19.421875 L 22.453125 19.828125 L 21.203125 21.09375 L 12.921875 12.859375 L 14.171875 11.59375 L 14.875 12.28125 C 16.082031 13.476562 17.164062 13.597656 18.125 12.640625 C 18.289062 12.472656 18.4375 12.28125 18.5625 12.0625 C 18.6875 11.84375 18.820312 11.578125 18.96875 11.265625 L 21.125 6.734375 Z M 25.4375 -2.453125 C 26.007812 -3.648438 26.550781 -4.765625 27.0625 -5.796875 C 27.582031 -6.828125 28.117188 -7.789062 28.671875 -8.6875 C 28.242188 -8.382812 27.816406 -8.113281 27.390625 -7.875 C 26.960938 -7.632812 26.515625 -7.390625 26.046875 -7.140625 C 25.585938 -6.898438 25.097656 -6.65625 24.578125 -6.40625 C 24.054688 -6.15625 23.476562 -5.875 22.84375 -5.5625 L 15.296875 -2.09375 L 22.09375 4.65625 Z M 25.4375 -2.453125 "/></g></g></g><g fill="#edcca2" fill-opacity="1"><g transform="translate(306.190639, 108.08017)"><g><path d="M 7.65625 13.296875 C 6.78125 11.878906 6.144531 10.507812 5.75 9.1875 C 5.363281 7.875 5.253906 6.625 5.421875 5.4375 C 5.597656 4.257812 6.078125 3.148438 6.859375 2.109375 C 7.640625 1.066406 8.769531 0.09375 10.25 -0.8125 L 24.28125 -9.40625 C 24.8125 -9.738281 25.1875 -10.082031 25.40625 -10.4375 C 25.632812 -10.800781 25.753906 -11.171875 25.765625 -11.546875 C 25.773438 -11.929688 25.691406 -12.3125 25.515625 -12.6875 C 25.347656 -13.070312 25.144531 -13.460938 24.90625 -13.859375 L 24.609375 -14.328125 L 26.140625 -15.265625 L 32.59375 -4.734375 L 31.0625 -3.796875 L 30.765625 -4.28125 C 30.523438 -4.675781 30.265625 -5.039062 29.984375 -5.375 C 29.703125 -5.707031 29.390625 -5.953125 29.046875 -6.109375 C 28.703125 -6.265625 28.3125 -6.316406 27.875 -6.265625 C 27.4375 -6.210938 26.9375 -6.015625 26.375 -5.671875 L 12.265625 2.96875 C 11.210938 3.613281 10.410156 4.3125 9.859375 5.0625 C 9.304688 5.820312 8.96875 6.609375 8.84375 7.421875 C 8.71875 8.234375 8.769531 9.070312 9 9.9375 C 9.238281 10.800781 9.628906 11.675781 10.171875 12.5625 C 10.816406 13.601562 11.515625 14.414062 12.265625 15 C 13.015625 15.59375 13.785156 15.988281 14.578125 16.1875 C 15.378906 16.382812 16.195312 16.394531 17.03125 16.21875 C 17.875 16.039062 18.710938 15.695312 19.546875 15.1875 L 33.9375 6.375 C 34.46875 6.039062 34.84375 5.691406 35.0625 5.328125 C 35.289062 4.972656 35.410156 4.601562 35.421875 4.21875 C 35.441406 3.84375 35.363281 3.460938 35.1875 3.078125 C 35.007812 2.691406 34.800781 2.300781 34.5625 1.90625 L 34.265625 1.4375 L 35.796875 0.5 L 41.375 9.578125 L 39.84375 10.515625 L 39.546875 10.046875 C 39.296875 9.640625 39.03125 9.269531 38.75 8.9375 C 38.476562 8.601562 38.164062 8.359375 37.8125 8.203125 C 37.46875 8.054688 37.078125 8.003906 36.640625 8.046875 C 36.203125 8.097656 35.703125 8.296875 35.140625 8.640625 L 20.8125 17.421875 C 19.613281 18.148438 18.414062 18.617188 17.21875 18.828125 C 16.03125 19.035156 14.875 18.96875 13.75 18.625 C 12.632812 18.289062 11.5625 17.675781 10.53125 16.78125 C 9.5 15.894531 8.539062 14.734375 7.65625 13.296875 Z M 7.65625 13.296875 "/></g></g></g><g fill="#edcca2" fill-opacity="1"><g transform="translate(326.235811, 143.543048)"><g><path d="M 9.34375 12.78125 C 8.707031 13 8.226562 13.257812 7.90625 13.5625 C 7.59375 13.875 7.378906 14.207031 7.265625 14.5625 C 7.160156 14.925781 7.144531 15.320312 7.21875 15.75 C 7.300781 16.175781 7.414062 16.613281 7.5625 17.0625 L 7.875 17.984375 L 6.1875 18.546875 L 2.015625 6.03125 L 3.703125 5.46875 L 4 6.390625 C 4.15625 6.835938 4.328125 7.25 4.515625 7.625 C 4.710938 8 4.953125 8.304688 5.234375 8.546875 C 5.515625 8.785156 5.863281 8.929688 6.28125 8.984375 C 6.707031 9.046875 7.21875 8.976562 7.8125 8.78125 L 30.140625 1.34375 L 28.859375 -2.5 C 28.660156 -3.09375 28.398438 -3.554688 28.078125 -3.890625 C 27.765625 -4.222656 27.414062 -4.46875 27.03125 -4.625 C 26.65625 -4.78125 26.25 -4.851562 25.8125 -4.84375 C 25.375 -4.84375 24.921875 -4.800781 24.453125 -4.71875 L 22.65625 -4.34375 L 21.953125 -6.4375 L 29.0625 -8.546875 L 36.609375 14.09375 L 29.640625 16.609375 L 28.9375 14.53125 L 30.609375 13.75 C 31.035156 13.5625 31.425781 13.332031 31.78125 13.0625 C 32.132812 12.800781 32.414062 12.5 32.625 12.15625 C 32.84375 11.8125 32.972656 11.40625 33.015625 10.9375 C 33.066406 10.46875 32.992188 9.929688 32.796875 9.328125 L 31.484375 5.40625 Z M 9.34375 12.78125 "/></g></g></g><g fill="#edcca2" fill-opacity="1"><g transform="translate(336.887835, 178.281509)"><g><path d="M 17.75 27.546875 C 15.425781 27.753906 13.28125 27.660156 11.3125 27.265625 C 9.351562 26.867188 7.644531 26.164062 6.1875 25.15625 C 4.726562 24.15625 3.546875 22.863281 2.640625 21.28125 C 1.742188 19.695312 1.195312 17.835938 1 15.703125 C 0.800781 13.460938 1 11.472656 1.59375 9.734375 C 2.195312 8.003906 3.125 6.53125 4.375 5.3125 C 5.625 4.09375 7.1875 3.117188 9.0625 2.390625 C 10.9375 1.660156 13.039062 1.191406 15.375 0.984375 C 17.707031 0.765625 19.847656 0.84375 21.796875 1.21875 C 23.753906 1.601562 25.457031 2.28125 26.90625 3.25 C 28.351562 4.226562 29.519531 5.523438 30.40625 7.140625 C 31.300781 8.753906 31.851562 10.679688 32.0625 12.921875 C 32.25 15.046875 32.046875 16.960938 31.453125 18.671875 C 30.867188 20.378906 29.953125 21.859375 28.703125 23.109375 C 27.460938 24.359375 25.914062 25.351562 24.0625 26.09375 C 22.207031 26.84375 20.101562 27.328125 17.75 27.546875 Z M 15.75 5.671875 C 13.664062 5.859375 11.816406 6.179688 10.203125 6.640625 C 8.585938 7.109375 7.242188 7.734375 6.171875 8.515625 C 5.109375 9.304688 4.328125 10.273438 3.828125 11.421875 C 3.328125 12.566406 3.144531 13.925781 3.28125 15.5 C 3.425781 17.0625 3.847656 18.363281 4.546875 19.40625 C 5.242188 20.445312 6.1875 21.253906 7.375 21.828125 C 8.570312 22.410156 10.003906 22.773438 11.671875 22.921875 C 13.347656 23.078125 15.226562 23.0625 17.3125 22.875 C 19.40625 22.6875 21.257812 22.363281 22.875 21.90625 C 24.5 21.457031 25.84375 20.835938 26.90625 20.046875 C 27.96875 19.265625 28.742188 18.304688 29.234375 17.171875 C 29.722656 16.046875 29.898438 14.703125 29.765625 13.140625 C 29.617188 11.566406 29.203125 10.253906 28.515625 9.203125 C 27.828125 8.160156 26.890625 7.34375 25.703125 6.75 C 24.515625 6.164062 23.082031 5.789062 21.40625 5.625 C 19.726562 5.46875 17.84375 5.484375 15.75 5.671875 Z M 15.75 5.671875 "/></g></g></g><g fill="#edcca2" fill-opacity="1"><g transform="translate(339.245438, 219.918702)"><g><path d="M 1.734375 24 C 0.515625 24.539062 -0.421875 25.101562 -1.078125 25.6875 C -1.742188 26.28125 -2.140625 27.019531 -2.265625 27.90625 L -2.296875 28.03125 L -4.0625 27.78125 L -3.96875 27.203125 C -3.78125 25.878906 -3.570312 24.804688 -3.34375 23.984375 C -3.125 23.160156 -2.835938 22.472656 -2.484375 21.921875 C -2.128906 21.367188 -1.675781 20.921875 -1.125 20.578125 C -0.570312 20.242188 0.132812 19.890625 1 19.515625 L 11.28125 15.21875 L 11.78125 11.734375 L 3.140625 10.484375 C 2.523438 10.390625 2.015625 10.410156 1.609375 10.546875 C 1.203125 10.679688 0.878906 10.890625 0.640625 11.171875 C 0.410156 11.453125 0.234375 11.789062 0.109375 12.1875 C -0.00390625 12.59375 -0.0976562 13.03125 -0.171875 13.5 L -0.25 14.0625 L -2.015625 13.8125 L -0.234375 1.59375 L 1.53125 1.84375 L 1.453125 2.390625 C 1.390625 2.847656 1.359375 3.289062 1.359375 3.71875 C 1.359375 4.144531 1.425781 4.53125 1.5625 4.875 C 1.707031 5.226562 1.957031 5.519531 2.3125 5.75 C 2.664062 5.976562 3.148438 6.140625 3.765625 6.234375 L 24.53125 9.265625 C 25.144531 9.347656 25.648438 9.328125 26.046875 9.203125 C 26.453125 9.085938 26.78125 8.882812 27.03125 8.59375 C 27.289062 8.3125 27.476562 7.960938 27.59375 7.546875 C 27.71875 7.140625 27.8125 6.707031 27.875 6.25 L 27.953125 5.703125 L 29.71875 5.96875 L 28.078125 17.265625 C 27.546875 20.898438 26.472656 23.503906 24.859375 25.078125 C 23.253906 26.660156 21.101562 27.253906 18.40625 26.859375 C 17.28125 26.691406 16.320312 26.363281 15.53125 25.875 C 14.75 25.394531 14.09375 24.816406 13.5625 24.140625 C 13.039062 23.460938 12.628906 22.722656 12.328125 21.921875 C 12.023438 21.117188 11.804688 20.335938 11.671875 19.578125 Z M 13.75 12.03125 L 13.328125 14.984375 C 13.148438 16.210938 13.132812 17.253906 13.28125 18.109375 C 13.4375 18.960938 13.75 19.675781 14.21875 20.25 C 14.695312 20.820312 15.328125 21.273438 16.109375 21.609375 C 16.898438 21.941406 17.84375 22.1875 18.9375 22.34375 C 20.0625 22.507812 21.03125 22.53125 21.84375 22.40625 C 22.65625 22.289062 23.347656 22.015625 23.921875 21.578125 C 24.503906 21.140625 24.96875 20.519531 25.3125 19.71875 C 25.664062 18.914062 25.929688 17.921875 26.109375 16.734375 L 26.515625 13.890625 Z M 13.75 12.03125 "/></g></g></g><g fill="#edcca2" fill-opacity="1"><g transform="translate(332.497754, 257.56598)"><g><path d="M -1.59375 10.015625 L -4.53125 17.640625 C -4.769531 18.273438 -4.882812 18.847656 -4.875 19.359375 C -4.875 19.867188 -4.78125 20.328125 -4.59375 20.734375 C -4.414062 21.148438 -4.160156 21.515625 -3.828125 21.828125 C -3.503906 22.148438 -3.132812 22.429688 -2.71875 22.671875 L -1.140625 23.578125 L -1.9375 25.65625 L -8.734375 22.71875 L -0.578125 1.5 L 1.078125 2.140625 L 0.875 2.65625 C 0.707031 3.09375 0.578125 3.515625 0.484375 3.921875 C 0.398438 4.335938 0.390625 4.726562 0.453125 5.09375 C 0.515625 5.457031 0.691406 5.796875 0.984375 6.109375 C 1.273438 6.421875 1.710938 6.6875 2.296875 6.90625 L 21.734375 14.390625 C 22.347656 14.617188 22.875 14.722656 23.3125 14.703125 C 23.75 14.679688 24.125 14.5625 24.4375 14.34375 C 24.75 14.125 25.015625 13.828125 25.234375 13.453125 C 25.453125 13.085938 25.644531 12.679688 25.8125 12.234375 L 26.015625 11.71875 L 27.671875 12.359375 L 20 32.3125 L 13.015625 29.84375 L 13.8125 27.796875 L 15.59375 28.25 C 16.050781 28.375 16.5 28.4375 16.9375 28.4375 C 17.382812 28.445312 17.804688 28.367188 18.203125 28.203125 C 18.609375 28.046875 18.976562 27.789062 19.3125 27.4375 C 19.65625 27.082031 19.9375 26.609375 20.15625 26.015625 L 22.71875 19.375 L 12.1875 15.328125 L 8.515625 24.859375 L 6.59375 24.109375 L 10.265625 14.578125 Z M -1.59375 10.015625 "/></g></g></g></svg>